<?xml version="1.0" encoding="UTF-8" standalone="no"?>
<!-- Created with Inkscape (http://www.inkscape.org/) -->

<svg
   width="61.121357mm"
   height="45.721802mm"
   viewBox="0 0 61.121355 45.721803"
   version="1.1"
   id="svg1"
   inkscape:version="1.4.2 (f4327f4, 2025-05-13)"
   sodipodi:docname="designer-klient.svg"
   xmlns:inkscape="http://www.inkscape.org/namespaces/inkscape"
   xmlns:sodipodi="http://sodipodi.sourceforge.net/DTD/sodipodi-0.dtd"
   xmlns="http://www.w3.org/2000/svg"
   xmlns:svg="http://www.w3.org/2000/svg">
  <sodipodi:namedview
     id="namedview1"
     pagecolor="#ffffff"
     bordercolor="#000000"
     borderopacity="0.25"
     inkscape:showpageshadow="2"
     inkscape:pageopacity="0.0"
     inkscape:pagecheckerboard="0"
     inkscape:deskcolor="#d1d1d1"
     inkscape:document-units="mm"
     inkscape:zoom="1.5215769"
     inkscape:cx="131.11398"
     inkscape:cy="193.87781"
     inkscape:window-width="1920"
     inkscape:window-height="1171"
     inkscape:window-x="-9"
     inkscape:window-y="-9"
     inkscape:window-maximized="1"
     inkscape:current-layer="layer1"
     showguides="true">
    <sodipodi:guide
       position="23.652945,68.819241"
       orientation="1,0"
       id="guide1"
       inkscape:locked="false" />
  </sodipodi:namedview>
  <defs
     id="defs1">
    <inkscape:path-effect
       effect="roughen"
       id="path-effect21"
       is_visible="true"
       lpeversion="1.2"
       global_randomize="1;1"
       displace_x="0.0823585;1"
       displace_y="0.106805;1"
       method="size"
       max_segment_size="0.247075"
       segments="2"
       handles="along"
       shift_nodes="true"
       fixed_displacement="false"
       spray_tool_friendly="false" />
    <inkscape:path-effect
       effect="roughen"
       id="path-effect22"
       is_visible="true"
       lpeversion="1.2"
       global_randomize="1;1"
       displace_x="0.0559771;1"
       displace_y="0.9;1"
       method="size"
       max_segment_size="1"
       segments="2"
       handles="along"
       shift_nodes="true"
       fixed_displacement="false"
       spray_tool_friendly="false" />
    <inkscape:path-effect
       effect="roughen"
       id="path-effect22-1"
       is_visible="true"
       lpeversion="1.2"
       global_randomize="1;1"
       displace_x="0.0559771;1"
       displace_y="0.9;1977933676"
       method="size"
       max_segment_size="1"
       segments="3"
       handles="along"
       shift_nodes="true"
       fixed_displacement="false"
       spray_tool_friendly="false" />
    <inkscape:path-effect
       effect="roughen"
       id="path-effect22-1-7"
       is_visible="true"
       lpeversion="1.2"
       global_randomize="1;1"
       displace_x="0.0559771;1"
       displace_y="0.9;1589339349"
       method="size"
       max_segment_size="1"
       segments="3"
       handles="along"
       shift_nodes="true"
       fixed_displacement="false"
       spray_tool_friendly="false" />
    <inkscape:path-effect
       effect="roughen"
       id="path-effect22-1-7-8"
       is_visible="true"
       lpeversion="1.2"
       global_randomize="1;1"
       displace_x="0.0559771;1"
       displace_y="0.9;81908378"
       method="size"
       max_segment_size="1"
       segments="3"
       handles="along"
       shift_nodes="true"
       fixed_displacement="false"
       spray_tool_friendly="false" />
    <inkscape:path-effect
       effect="roughen"
       id="path-effect22-1-7-8-6"
       is_visible="true"
       lpeversion="1.2"
       global_randomize="1;1"
       displace_x="0.0559771;1"
       displace_y="0.9;455591877"
       method="size"
       max_segment_size="1"
       segments="3"
       handles="along"
       shift_nodes="true"
       fixed_displacement="false"
       spray_tool_friendly="false" />
  </defs>
  <g
     inkscape:label="Layer 1"
     inkscape:groupmode="layer"
     id="layer1"
     transform="translate(-117.15948,-108.54733)">
    <g
       id="g18"
       transform="translate(14.102562,90.151451)">
      <path
         style="baseline-shift:baseline;display:inline;overflow:visible;opacity:1;vector-effect:none;paint-order:fill markers stroke;enable-background:accumulate;stop-color:#000000;stop-opacity:1"
         d="m 118.94141,37.603516 c -1.25431,0 -2.21044,0.602037 -2.94532,1.546875 -0.73487,0.944837 -1.26132,2.230357 -1.70703,3.636718 -0.45907,1.448557 -0.98773,3.135441 -1.16015,4.66211 -0.17243,1.526669 0.0114,2.918067 1.02343,3.71289 1.06582,0.837031 3.20362,1.081904 5.18555,1.033203 0.99096,-0.02435 1.94118,-0.126841 2.69531,-0.283203 0.37707,-0.07818 0.7045,-0.169602 0.9668,-0.273437 0.2623,-0.103835 0.46078,-0.214708 0.58008,-0.365235 0.92126,-1.162378 0.90072,-2.903381 0.57422,-4.623046 -0.3265,-1.719666 -0.96795,-3.433062 -1.34375,-4.548829 -0.50416,-1.496849 -0.83063,-2.604401 -1.35742,-3.361328 -0.5268,-0.756926 -1.27343,-1.136718 -2.51172,-1.136718 z m 0,0.263671 c 1.18696,0 1.80896,0.325192 2.29492,1.023438 0.48595,0.698246 0.81865,1.793881 1.32422,3.294922 0.37865,1.124223 1.01333,2.824812 1.33398,4.513672 0.32065,1.68886 0.31748,3.351614 -0.52148,4.410156 -0.064,0.08069 -0.22945,0.187697 -0.47071,0.283203 -0.24125,0.09551 -0.55714,0.185691 -0.92382,0.261719 -0.73338,0.152056 -1.66972,0.253342 -2.64649,0.277344 -1.95354,0.048 -4.07171,-0.235686 -5.01758,-0.978516 -0.90567,-0.711266 -1.08995,-1.986381 -0.92187,-3.474609 0.16808,-1.488228 0.68963,-3.163628 1.14844,-4.611329 0.44147,-1.393018 0.96314,-2.6535 1.66406,-3.554687 0.70092,-0.901187 1.56538,-1.445312 2.73633,-1.445313 z"
         id="path1" />
      <path
         style="baseline-shift:baseline;display:inline;overflow:visible;opacity:1;vector-effect:none;paint-order:fill markers stroke;enable-background:accumulate;stop-color:#000000;stop-opacity:1"
         d="m 118.96484,29.074219 c -0.87993,-0.159269 -1.66884,0.131066 -2.24609,0.867187 -0.57725,0.736121 -0.95779,1.903165 -1.09961,3.517578 -0.21202,2.413602 1.4642,4.408203 3.32227,4.408203 0.92922,0 1.70043,-0.514122 2.25976,-1.3125 0.55933,-0.798377 0.91996,-1.882044 1.0625,-3.068359 0.10975,-0.913343 -0.26481,-1.926494 -0.88476,-2.757812 -0.61996,-0.831319 -1.49041,-1.487115 -2.41407,-1.654297 z m -0.0469,0.259765 c 0.83182,0.150559 1.6616,0.763725 2.25,1.552735 0.5884,0.789009 0.93229,1.748243 0.83398,2.566406 -0.13848,1.152512 -0.49245,2.201616 -1.01757,2.951172 -0.52513,0.749556 -1.21017,1.199219 -2.04297,1.199219 -1.666,0 -3.25885,-1.843425 -3.0586,-4.123047 0.13917,-1.584191 0.5153,-2.702104 1.04297,-3.375 0.52767,-0.672897 1.19194,-0.91633 1.99219,-0.771485 z"
         id="path2" />
      <g
         id="rect2"
         style="opacity:1">
        <path
           style="baseline-shift:baseline;display:inline;overflow:visible;vector-effect:none;fill:#ff8c00;stroke-linejoin:round;paint-order:fill markers stroke;enable-background:accumulate;stop-color:#000000;stop-opacity:1"
           d="m 125.4219,36.557262 0.26595,-0.11615 0.34826,-0.0506 0.30022,0.0459 0.31397,0.13142 v 5.67991 l -0.29009,0.0556 -0.3241,0.002 -0.33865,-0.0107 -0.27556,-0.0469 z"
           id="path26" />
        <path
           style="baseline-shift:baseline;display:inline;overflow:visible;vector-effect:none;stroke-linejoin:round;paint-order:fill markers stroke;enable-background:accumulate;stop-color:#000000;stop-opacity:1"
           d="m 126.03125,36.357422 -0.34766,0.05078 a 0.03307621,0.03307621 0 0 0 -0.01,0.002 l -0.26563,0.117188 a 0.03307621,0.03307621 0 0 0 -0.0195,0.0293 v 5.691406 a 0.03307621,0.03307621 0 0 0 0.0273,0.0332 l 0.27539,0.04687 a 0.03307621,0.03307621 0 0 0 0.006,0 l 0.33789,0.0098 a 0.03307621,0.03307621 0 0 0 0.002,0 l 0.32422,-0.002 a 0.03307621,0.03307621 0 0 0 0.006,0 l 0.28906,-0.05664 a 0.03307621,0.03307621 0 0 0 0.0273,-0.03125 v -5.679688 a 0.03307621,0.03307621 0 0 0 -0.0215,-0.03125 l -0.3125,-0.130859 a 0.03307621,0.03307621 0 0 0 -0.008,-0.002 l -0.30078,-0.04687 a 0.03307621,0.03307621 0 0 0 -0.01,0 z m 0.004,0.06641 0.29297,0.04492 0.28906,0.121094 v 5.630859 l -0.25977,0.04883 -0.32031,0.002 -0.33594,-0.0098 -0.24609,-0.04102 V 36.58009 l 0.24219,-0.107422 z"
           id="path27" />
      </g>
      <g
         id="path6"
         style="opacity:1">
        <path
           style="baseline-shift:baseline;display:inline;overflow:visible;vector-effect:none;fill:#ffdead;stroke-linejoin:round;paint-order:fill markers stroke;enable-background:accumulate;stop-color:#000000;stop-opacity:1"
           d="m 126.19992,35.790532 c -0.0502,0.0165 -0.10653,0.0252 -0.16381,0.0253 -0.0573,-1e-4 -0.11361,-0.009 -0.16381,-0.0253 l -0.4504,0.76673 0.26595,-0.11611 0.34826,-0.0506 0.30022,0.0459 0.31397,0.13138 z"
           id="path28" />
        <path
           style="baseline-shift:baseline;display:inline;overflow:visible;vector-effect:none;stroke-linejoin:round;paint-order:fill markers stroke;enable-background:accumulate;stop-color:#000000;stop-opacity:1"
           d="m 125.88281,35.759766 a 0.03307621,0.03307621 0 0 0 -0.0391,0.01367 l -0.45117,0.767579 a 0.03307621,0.03307621 0 0 0 0.043,0.04687 l 0.26172,-0.115235 0.33789,-0.04883 0.29297,0.04492 0.30859,0.128906 a 0.03307621,0.03307621 0 0 0 0.043,-0.04687 l -0.45117,-0.777344 a 0.03307621,0.03307621 0 0 0 -0.0391,-0.01367 c -0.0459,0.0151 -0.0991,0.02314 -0.15234,0.02344 -0.0539,-9.4e-5 -0.10764,-0.0083 -0.1543,-0.02344 z m 0.006,0.06641 c 0.0467,0.01255 0.0953,0.02335 0.14649,0.02344 a 0.03307621,0.03307621 0 0 0 0.002,0 c 0.0511,-8.9e-5 0.0996,-0.01078 0.14648,-0.02344 L 126.57227,36.5 126.34961,36.40625 a 0.03307621,0.03307621 0 0 0 -0.008,-0.002 l -0.30078,-0.04687 a 0.03307621,0.03307621 0 0 0 -0.01,0 l -0.34766,0.05078 a 0.03307621,0.03307621 0 0 0 -0.01,0.002 l -0.16992,0.07617 z"
           id="path29" />
      </g>
      <g
         id="path5"
         style="opacity:1">
        <path
           style="baseline-shift:baseline;display:inline;overflow:visible;vector-effect:none;stroke-linejoin:round;paint-order:fill markers stroke;enable-background:accumulate;stop-color:#000000;stop-opacity:1"
           d="m 126.19992,35.790532 -0.16381,-0.26303 -0.16381,0.26303 a 0.34228873,0.20473345 0 0 0 0.16381,0.0253 0.34228873,0.20473345 0 0 0 0.16381,-0.0253 z"
           id="path30" />
        <path
           style="baseline-shift:baseline;display:inline;overflow:visible;vector-effect:none;stroke-linejoin:round;paint-order:fill markers stroke;enable-background:accumulate;stop-color:#000000;stop-opacity:1"
           d="m 126.00781,35.509766 -0.16406,0.263671 a 0.03307621,0.03307621 0 0 0 0.0176,0.04883 c 0.0539,0.01771 0.11323,0.02724 0.17383,0.02734 a 0.03307621,0.03307621 0 0 0 0.002,0 c 0.0606,-1.07e-4 0.11993,-0.0096 0.17383,-0.02734 a 0.03307621,0.03307621 0 0 0 0.0176,-0.04883 l -0.16407,-0.263671 a 0.03307621,0.03307621 0 0 0 -0.0566,0 z m 0.0273,0.08008 0.11132,0.175781 c -0.0353,0.008 -0.0711,0.01737 -0.10937,0.01758 -0.039,-6.9e-5 -0.0754,-0.0094 -0.11133,-0.01758 z"
           id="path31" />
      </g>
      <g
         id="path7"
         style="opacity:1">
        <path
           style="baseline-shift:baseline;display:inline;overflow:visible;vector-effect:none;stroke-linejoin:round;paint-order:fill markers stroke;enable-background:accumulate;stop-color:#000000;stop-opacity:1"
           d="m 125.68785,36.441112 0.01,5.85353"
           id="path32" />
        <path
           style="baseline-shift:baseline;display:inline;overflow:visible;vector-effect:none;stroke-linejoin:round;paint-order:fill markers stroke;enable-background:accumulate;stop-color:#000000;stop-opacity:1"
           d="m 125.6543,36.441406 0.01,5.853516 h 0.0664 l -0.01,-5.853516 z"
           id="path33" />
      </g>
      <g
         id="path8"
         style="opacity:1">
        <path
           style="baseline-shift:baseline;display:inline;overflow:visible;vector-effect:none;stroke-linejoin:round;paint-order:fill markers stroke;enable-background:accumulate;stop-color:#000000;stop-opacity:1"
           d="m 126.03611,36.390552 v 5.91477"
           id="path34" />
        <path
           style="baseline-shift:baseline;display:inline;overflow:visible;vector-effect:none;stroke-linejoin:round;paint-order:fill markers stroke;enable-background:accumulate;stop-color:#000000;stop-opacity:1"
           d="m 126.00391,36.390625 v 5.914062 h 0.0644 v -5.914062 z"
           id="path35" />
      </g>
      <g
         id="path9"
         style="opacity:1">
        <path
           style="baseline-shift:baseline;display:inline;overflow:visible;vector-effect:none;stroke-linejoin:round;paint-order:fill markers stroke;enable-background:accumulate;stop-color:#000000;stop-opacity:1"
           d="m 126.33633,36.436452 0.0239,5.86694"
           id="path36" />
        <path
           style="baseline-shift:baseline;display:inline;overflow:visible;vector-effect:none;stroke-linejoin:round;paint-order:fill markers stroke;enable-background:accumulate;stop-color:#000000;stop-opacity:1"
           d="m 126.36914,36.435547 -0.0664,0.002 0.0254,5.865234 h 0.0644 z"
           id="path37" />
      </g>
      <g
         id="path10"
         style="opacity:1">
        <path
           style="baseline-shift:baseline;display:inline;overflow:visible;vector-effect:none;stroke-linecap:round;stroke-linejoin:round;paint-order:fill markers stroke;enable-background:accumulate;stop-color:#000000;stop-opacity:1"
           d="m 122.299,40.991042 c 1.35944,-0.22374 2.60515,-0.66359 3.73711,-1.31954"
           id="path38" />
        <path
           style="baseline-shift:baseline;display:inline;overflow:visible;vector-effect:none;stroke-linecap:round;stroke-linejoin:round;paint-order:fill markers stroke;enable-background:accumulate;stop-color:#000000;stop-opacity:1"
           d="m 125.9707,39.556641 c -1.11772,0.647702 -2.34855,1.083356 -3.69336,1.304687 a 0.1322915,0.1322915 0 0 0 -0.10937,0.150391 0.1322915,0.1322915 0 0 0 0.15234,0.109375 c 1.37408,-0.226149 2.63506,-0.67174 3.78125,-1.335938 a 0.1322915,0.1322915 0 0 0 0.0488,-0.179687 0.1322915,0.1322915 0 0 0 -0.17969,-0.04883 z"
           id="path39" />
      </g>
      <g
         id="path11"
         style="opacity:1">
        <path
           style="baseline-shift:baseline;display:inline;overflow:visible;vector-effect:none;stroke-linecap:round;stroke-linejoin:round;paint-order:fill markers stroke;enable-background:accumulate;stop-color:#000000;stop-opacity:1"
           d="m 115.1044,40.962756 c -1.33415,-0.5963 -2.48632,-1.37459 -3.4565,-2.33486"
           id="path40" />
        <path
           style="baseline-shift:baseline;display:inline;overflow:visible;vector-effect:none;stroke-linecap:round;stroke-linejoin:round;paint-order:fill markers stroke;enable-background:accumulate;stop-color:#000000;stop-opacity:1"
           d="m 111.74023,38.533203 a 0.1322915,0.1322915 0 0 0 -0.18554,0.002 0.1322915,0.1322915 0 0 0 0,0.1875 c 0.982,0.971967 2.1487,1.759108 3.49609,2.361328 a 0.1322915,0.1322915 0 0 0 0.17383,-0.06641 0.1322915,0.1322915 0 0 0 -0.0664,-0.175781 c -1.3209,-0.59038 -2.4596,-1.360021 -3.41797,-2.308594 z"
           id="path41" />
      </g>
      <path
         style="baseline-shift:baseline;display:inline;overflow:visible;opacity:1;vector-effect:none;stroke-linecap:round;stroke-linejoin:round;paint-order:fill markers stroke;enable-background:accumulate;stop-color:#000000;stop-opacity:1"
         d="m 115.72461,51.589844 a 0.1322915,0.1322915 0 0 0 -0.14258,0.11914 c -0.18995,2.069575 -0.21798,4.162954 -0.10547,6.275391 l -1.23828,-0.287109 a 0.1322915,0.1322915 0 0 0 -0.16015,0.09961 0.1322915,0.1322915 0 0 0 0.0996,0.158203 l 1.39844,0.324219 a 0.13230472,0.13230472 0 0 0 0.16211,-0.136719 c -0.1235,-2.15936 -0.0866,-4.296513 0.10742,-6.410156 a 0.1322915,0.1322915 0 0 0 -0.12109,-0.142579 z"
         id="path12" />
      <path
         style="baseline-shift:baseline;display:inline;overflow:visible;opacity:1;vector-effect:none;stroke-linecap:round;stroke-linejoin:round;paint-order:fill markers stroke;enable-background:accumulate;stop-color:#000000;stop-opacity:1"
         d="m 121.24414,51.779297 a 0.1322915,0.1322915 0 0 0 -0.10742,0.152344 c 0.35728,2.060453 0.37527,4.121307 0.0547,6.18164 a 0.13230472,0.13230472 0 0 0 0.14453,0.150391 l 1.55273,-0.169922 a 0.1322915,0.1322915 0 0 0 0.11719,-0.146484 0.1322915,0.1322915 0 0 0 -0.14453,-0.117188 l -1.39649,0.154297 c 0.29831,-2.032413 0.28404,-4.065414 -0.0684,-6.097656 a 0.1322915,0.1322915 0 0 0 -0.15234,-0.107422 z"
         id="path13" />
      <path
         style="baseline-shift:baseline;display:inline;overflow:visible;opacity:1;vector-effect:none;stroke-linecap:round;stroke-linejoin:round;paint-order:fill markers stroke;enable-background:accumulate;stop-color:#000000;stop-opacity:1"
         d="m 117.90625,34.746094 a 0.1322915,0.1322915 0 0 0 -0.17773,0.05664 0.1322915,0.1322915 0 0 0 0.0566,0.177735 c 0.92488,0.478958 1.75599,0.537817 2.44336,0.142578 a 0.1322915,0.1322915 0 0 0 0.0488,-0.181641 0.1322915,0.1322915 0 0 0 -0.18164,-0.04883 c -0.59945,0.344689 -1.31277,0.30751 -2.18945,-0.146484 z"
         id="path14" />
      <g
         id="path15"
         style="opacity:1">
        <path
           style="baseline-shift:baseline;display:inline;overflow:visible;vector-effect:none;stroke-linecap:round;stroke-linejoin:round;paint-order:fill markers stroke;enable-background:accumulate;stop-color:#000000;stop-opacity:1"
           d="m 118.35276,32.244869 a 0.36192104,0.2050886 0 0 1 -0.36192,0.205089 0.36192104,0.2050886 0 0 1 -0.36192,-0.205089 0.36192104,0.2050886 0 0 1 0.36192,-0.205088 0.36192104,0.2050886 0 0 1 0.36192,0.205088 z"
           id="path42" />
        <path
           style="baseline-shift:baseline;display:inline;overflow:visible;vector-effect:none;stroke-linecap:round;stroke-linejoin:round;paint-order:fill markers stroke;enable-background:accumulate;stop-color:#000000;stop-opacity:1"
           d="m 117.99023,31.908203 c -0.12019,0 -0.2297,0.02483 -0.32031,0.07617 -0.0906,0.05134 -0.17383,0.140048 -0.17383,0.259766 0,0.119718 0.0832,0.210375 0.17383,0.261718 0.0906,0.05134 0.20012,0.07617 0.32031,0.07617 0.1202,0 0.23166,-0.02483 0.32227,-0.07617 0.0906,-0.05134 0.17188,-0.142 0.17188,-0.261718 -1e-5,-0.119718 -0.0813,-0.208423 -0.17188,-0.259766 -0.0906,-0.05134 -0.20207,-0.07617 -0.32227,-0.07617 z m 0,0.263672 c 0.0797,0 0.15103,0.02009 0.19141,0.04297 0.0404,0.02288 0.0391,0.03575 0.0391,0.0293 0,-0.0065 10e-4,0.0084 -0.0391,0.03125 -0.0404,0.02288 -0.11172,0.04297 -0.19141,0.04297 -0.0797,0 -0.14907,-0.02008 -0.18945,-0.04297 -0.0404,-0.02288 -0.0391,-0.0377 -0.0391,-0.03125 0,0.0065 -0.001,-0.0064 0.0391,-0.0293 0.0404,-0.02288 0.10977,-0.04297 0.18945,-0.04297 z"
           id="path43" />
      </g>
      <g
         id="path15-1"
         style="opacity:1">
        <path
           style="baseline-shift:baseline;display:inline;overflow:visible;vector-effect:none;stroke-linecap:round;stroke-linejoin:round;paint-order:fill markers stroke;enable-background:accumulate;stop-color:#000000;stop-opacity:1"
           d="m 120.49123,32.294868 a 0.36192104,0.2050886 0 0 1 -0.36192,0.205089 0.36192104,0.2050886 0 0 1 -0.36192,-0.205089 0.36192104,0.2050886 0 0 1 0.36192,-0.205088 0.36192104,0.2050886 0 0 1 0.36192,0.205088 z"
           id="path44" />
        <path
           style="baseline-shift:baseline;display:inline;overflow:visible;vector-effect:none;stroke-linecap:round;stroke-linejoin:round;paint-order:fill markers stroke;enable-background:accumulate;stop-color:#000000;stop-opacity:1"
           d="m 120.12891,31.957031 c -0.1202,0 -0.22971,0.02678 -0.32032,0.07813 -0.0906,0.05134 -0.17382,0.140048 -0.17382,0.259766 0,0.119718 0.0832,0.208422 0.17382,0.259765 0.0906,0.05134 0.20012,0.07813 0.32032,0.07813 0.1202,0 0.23166,-0.02678 0.32226,-0.07813 0.0906,-0.05134 0.17188,-0.140047 0.17188,-0.259765 0,-0.119718 -0.0813,-0.208422 -0.17188,-0.259766 -0.0906,-0.05134 -0.20207,-0.07813 -0.32226,-0.07813 z m 0,0.265625 c 0.0797,0 0.15102,0.02009 0.1914,0.04297 0.0404,0.02288 0.0391,0.03575 0.0391,0.0293 -1e-5,-0.0065 0.001,0.0064 -0.0391,0.0293 -0.0404,0.02288 -0.11172,0.04297 -0.1914,0.04297 -0.0797,0 -0.14907,-0.02008 -0.18946,-0.04297 -0.0404,-0.02288 -0.0391,-0.03575 -0.0391,-0.0293 0,0.0065 -0.001,-0.0064 0.0391,-0.0293 0.0404,-0.02288 0.10977,-0.04297 0.18946,-0.04297 z"
           id="path45" />
      </g>
    </g>
    <g
       id="g23"
       transform="translate(-22.195776,75.291701)">
      <g
         id="g21"
         transform="translate(11.777578,0.81893383)">
        <path
           style="baseline-shift:baseline;display:inline;overflow:visible;opacity:1;vector-effect:none;paint-order:fill markers stroke;enable-background:accumulate;stop-color:#000000;stop-opacity:1"
           d="m 180.48437,51.625 c -1.25372,0 -2.23522,0.593713 -2.98437,1.535156 -0.74915,0.941444 -1.27928,2.228942 -1.67188,3.654297 -0.40259,1.461663 -0.7132,3.167198 -0.79101,4.695313 -0.0778,1.528114 0.0641,2.878317 0.63086,3.648437 0.40996,0.557048 1.15871,0.899396 2.04101,1.099609 0.88231,0.200214 1.90515,0.257124 2.88868,0.212891 0.98352,-0.04423 1.92616,-0.190316 2.64453,-0.400391 0.35918,-0.105037 0.66168,-0.225181 0.89062,-0.363281 0.22895,-0.138099 0.39616,-0.296036 0.43555,-0.501953 0.53874,-2.816188 0.53395,-6.805394 -0.21484,-9.080078 -0.49401,-1.500695 -0.82195,-2.60899 -1.35157,-3.365234 C 182.47233,52.003521 181.72254,51.625 180.48437,51.625 Z m 0,0.265625 c 1.1871,0 1.81251,0.324272 2.30079,1.021484 0.48828,0.697213 0.82129,1.792816 1.3164,3.296875 0.71975,2.186448 0.73691,6.177432 0.20703,8.947266 -0.016,0.08386 -0.11435,0.204699 -0.3125,0.324219 -0.19814,0.11952 -0.48319,0.235067 -0.82812,0.335937 -0.68987,0.201741 -1.617,0.345271 -2.58203,0.388672 -0.96504,0.0434 -1.96883,-0.0123 -2.81836,-0.205078 -0.84954,-0.192777 -1.5386,-0.525035 -1.88672,-0.998047 -0.48877,-0.66412 -0.65463,-1.976217 -0.57813,-3.478516 0.0765,-1.502298 0.38342,-3.19429 0.78125,-4.638671 0.38722,-1.405813 0.90956,-2.663913 1.62305,-3.560547 0.71349,-0.896635 1.60582,-1.433594 2.77734,-1.433594 z"
           id="path1-4" />
        <path
           style="baseline-shift:baseline;display:inline;overflow:visible;opacity:1;vector-effect:none;paint-order:fill markers stroke;enable-background:accumulate;stop-color:#000000;stop-opacity:1"
           d="m 180.49023,43.095703 c -0.87855,-0.03854 -1.55191,0.163904 -2.0664,0.830078 -0.5145,0.666174 -0.88309,1.764996 -1.25977,3.539063 -0.50701,2.387896 1.46013,4.425781 3.32031,4.425781 0.92881,0 1.76465,-0.505026 2.36133,-1.302734 0.59669,-0.797709 0.96094,-1.89114 0.96094,-3.095704 0,-0.952582 -0.60535,-2.156719 -0.95898,-2.835937 -0.29348,-0.563676 -0.59574,-0.946314 -0.97461,-1.191406 -0.37888,-0.245093 -0.82419,-0.344635 -1.38282,-0.369141 z m -0.0117,0.263672 c 0.5335,0.0234 0.92254,0.116294 1.25,0.328125 0.32745,0.211831 0.60298,0.550584 0.88476,1.091797 0.3503,0.67281 0.92969,1.877109 0.92969,2.71289 0,1.151086 -0.35018,2.191481 -0.9082,2.9375 -0.55803,0.74602 -1.31717,1.195313 -2.1504,1.195313 -1.66387,0 -3.53205,-1.884803 -3.06054,-4.105469 0.37393,-1.761114 0.74446,-2.832123 1.20898,-3.433594 0.46453,-0.60147 1.01009,-0.76322 1.84571,-0.726562 z"
           id="path2-2" />
        <g
           id="path11-7"
           style="opacity:1">
          <path
             style="baseline-shift:baseline;display:inline;overflow:visible;vector-effect:none;stroke-linecap:round;stroke-linejoin:round;paint-order:fill markers stroke;enable-background:accumulate;stop-color:#000000;stop-opacity:1"
             d="m 176.64642,54.985676 c -1.04461,-0.934093 -2.48632,-1.37459 -3.4565,-2.33486"
             id="path3" />
          <path
             style="baseline-shift:baseline;display:inline;overflow:visible;vector-effect:none;stroke-linecap:round;stroke-linejoin:round;paint-order:fill markers stroke;enable-background:accumulate;stop-color:#000000;stop-opacity:1"
             d="m 173.2832,52.556641 a 0.1322915,0.1322915 0 0 0 -0.1875,0.002 0.1322915,0.1322915 0 0 0 0.002,0.185547 c 1.00237,0.992136 2.446,1.432291 3.46093,2.339843 a 0.1322915,0.1322915 0 0 0 0.18555,-0.0098 0.1322915,0.1322915 0 0 0 -0.01,-0.1875 c -1.07429,-0.960633 -2.51318,-1.401675 -3.45117,-2.330078 z"
             id="path4" />
        </g>
        <path
           style="baseline-shift:baseline;display:inline;overflow:visible;opacity:1;vector-effect:none;stroke-linecap:round;stroke-linejoin:round;paint-order:fill markers stroke;enable-background:accumulate;stop-color:#000000;stop-opacity:1"
           d="m 177.20508,65.847656 a 0.1322915,0.1322915 0 0 0 -0.14453,0.119141 c -0.18996,2.069672 -0.15637,3.945197 -0.041,6.041015 l -1.24023,-0.287109 a 0.1322915,0.1322915 0 0 0 -0.15821,0.09766 0.1322915,0.1322915 0 0 0 0.0996,0.160157 l 1.39844,0.324218 a 0.13230472,0.13230472 0 0 0 0.16211,-0.136718 c -0.12372,-2.162419 -0.15087,-4.063801 0.043,-6.175782 a 0.1322915,0.1322915 0 0 0 -0.11914,-0.142578 z"
           id="path12-6" />
        <path
           style="baseline-shift:baseline;display:inline;overflow:visible;opacity:1;vector-effect:none;stroke-linecap:round;stroke-linejoin:round;paint-order:fill markers stroke;enable-background:accumulate;stop-color:#000000;stop-opacity:1"
           d="m 182.01172,66.066406 a 0.1322915,0.1322915 0 0 0 -0.10742,0.152344 c 0.36306,2.093792 1.14598,3.885757 0.83007,5.916016 a 0.13230472,0.13230472 0 0 0 0.14454,0.152343 l 1.55273,-0.169922 a 0.1322915,0.1322915 0 0 0 0.11719,-0.146484 0.1322915,0.1322915 0 0 0 -0.14649,-0.117187 l -1.41406,0.154296 c 0.26052,-2.04441 -0.47584,-3.836142 -0.82226,-5.833984 a 0.1322915,0.1322915 0 0 0 -0.1543,-0.107422 z"
           id="path13-1" />
        <path
           style="baseline-shift:baseline;display:inline;overflow:visible;opacity:1;vector-effect:none;stroke-linecap:round;stroke-linejoin:round;paint-order:fill markers stroke;enable-background:accumulate;stop-color:#000000;stop-opacity:1"
           d="m 179.44922,48.767578 a 0.1322915,0.1322915 0 0 0 -0.17774,0.05664 0.1322915,0.1322915 0 0 0 0.0566,0.179687 c 0.92489,0.478958 1.75404,0.535864 2.44141,0.140625 a 0.1322915,0.1322915 0 0 0 0.0488,-0.179687 0.1322915,0.1322915 0 0 0 -0.17969,-0.04883 c -0.59945,0.344688 -1.31277,0.305556 -2.18945,-0.148438 z"
           id="path14-8" />
        <g
           id="path15-9"
           style="opacity:1">
          <path
             style="baseline-shift:baseline;display:inline;overflow:visible;vector-effect:none;stroke-linecap:round;stroke-linejoin:round;paint-order:fill markers stroke;enable-background:accumulate;stop-color:#000000;stop-opacity:1"
             d="m 179.89477,46.267788 a 0.36192104,0.2050886 0 0 1 -0.36192,0.205089 0.36192104,0.2050886 0 0 1 -0.36192,-0.205089 0.36192104,0.2050886 0 0 1 0.36192,-0.205089 0.36192104,0.2050886 0 0 1 0.36192,0.205089 z"
             id="path16" />
          <path
             style="baseline-shift:baseline;display:inline;overflow:visible;vector-effect:none;stroke-linecap:round;stroke-linejoin:round;paint-order:fill markers stroke;enable-background:accumulate;stop-color:#000000;stop-opacity:1"
             d="m 179.5332,45.929687 c -0.1202,10e-7 -0.23166,0.02678 -0.32226,0.07813 -0.0906,0.05134 -0.17188,0.140048 -0.17188,0.259766 0,0.119718 0.0813,0.208422 0.17188,0.259766 0.0906,0.05134 0.20206,0.07813 0.32226,0.07813 0.1202,0 0.22971,-0.02678 0.32032,-0.07813 0.0906,-0.05134 0.17382,-0.140048 0.17382,-0.259766 0,-0.119718 -0.0832,-0.208422 -0.17382,-0.259766 -0.0906,-0.05134 -0.20012,-0.07812 -0.32032,-0.07813 z m 0,0.265625 c 0.0797,10e-7 0.14907,0.02009 0.18946,0.04297 0.0404,0.02288 0.0391,0.03575 0.0391,0.0293 0,-0.0065 10e-4,0.0064 -0.0391,0.0293 -0.0404,0.02288 -0.10977,0.04297 -0.18946,0.04297 -0.0797,0 -0.15102,-0.02009 -0.1914,-0.04297 -0.0404,-0.02288 -0.0391,-0.03575 -0.0391,-0.0293 0,0.0065 -10e-4,-0.0064 0.0391,-0.0293 0.0404,-0.02288 0.11172,-0.04297 0.1914,-0.04297 z"
             id="path17" />
        </g>
        <g
           id="path15-1-2"
           style="opacity:1">
          <path
             style="baseline-shift:baseline;display:inline;overflow:visible;vector-effect:none;stroke-linecap:round;stroke-linejoin:round;paint-order:fill markers stroke;enable-background:accumulate;stop-color:#000000;stop-opacity:1"
             d="m 182.03325,46.317787 a 0.36192104,0.2050886 0 0 1 -0.36192,0.205089 0.36192104,0.2050886 0 0 1 -0.36193,-0.205089 0.36192104,0.2050886 0 0 1 0.36193,-0.205088 0.36192104,0.2050886 0 0 1 0.36192,0.205088 z"
             id="path18" />
          <path
             style="baseline-shift:baseline;display:inline;overflow:visible;vector-effect:none;stroke-linecap:round;stroke-linejoin:round;paint-order:fill markers stroke;enable-background:accumulate;stop-color:#000000;stop-opacity:1"
             d="m 181.67187,45.980469 c -0.1202,-2e-6 -0.23165,0.02678 -0.32226,0.07813 -0.0906,0.05134 -0.17188,0.140046 -0.17188,0.259765 0,0.119721 0.0813,0.208423 0.17188,0.259766 0.0906,0.05134 0.20206,0.07617 0.32226,0.07617 0.1202,0 0.22971,-0.02483 0.32032,-0.07617 0.0906,-0.05134 0.17383,-0.140048 0.17383,-0.259766 0,-0.119717 -0.0832,-0.208422 -0.17383,-0.259765 -0.0906,-0.05134 -0.20012,-0.07813 -0.32032,-0.07813 z m 0,0.263672 c 0.0797,0 0.14907,0.02008 0.18946,0.04297 0.0404,0.02288 0.0391,0.0377 0.0391,0.03125 0,-0.0065 0.001,0.0064 -0.0391,0.0293 -0.0404,0.02288 -0.10977,0.04297 -0.18946,0.04297 -0.0797,10e-7 -0.15102,-0.02008 -0.1914,-0.04297 -0.0404,-0.02288 -0.0391,-0.03575 -0.0391,-0.0293 0,0.0065 -0.001,-0.0084 0.0391,-0.03125 0.0404,-0.02288 0.11172,-0.04297 0.1914,-0.04297 z"
             id="path23" />
        </g>
        <g
           id="g20"
           transform="translate(60.348784,14.876615)">
          <path
             d="m 126.7581,37.488047 v 1.586984 h 1.59215 v -1.586984 z"
             style="opacity:1;fill:#fe7e79;fill-opacity:1;stroke-width:0.264583;stroke-linecap:round;stroke-linejoin:round;paint-order:fill markers stroke"
             id="path19" />
          <path
             d="m 128.35025,39.075031 h -1.59215 v 0.825789 h 1.59215 z"
             style="opacity:1;fill:#5483dd;fill-opacity:1;stroke-width:0.264583;stroke-linecap:round;stroke-linejoin:round;paint-order:fill markers stroke"
             id="path20" />
        </g>
        <g
           id="path10-5"
           style="opacity:1">
          <path
             style="baseline-shift:baseline;display:inline;overflow:visible;vector-effect:none;stroke-linecap:round;stroke-linejoin:round;paint-order:fill markers stroke;enable-background:accumulate;stop-color:#000000;stop-opacity:1"
             d="m 183.84102,55.013962 c 1.35944,-0.22374 2.60515,-0.66359 3.73711,-1.31954"
             id="path24" />
          <path
             style="baseline-shift:baseline;display:inline;overflow:visible;vector-effect:none;stroke-linecap:round;stroke-linejoin:round;paint-order:fill markers stroke;enable-background:accumulate;stop-color:#000000;stop-opacity:1"
             d="m 187.51172,53.580078 c -1.11773,0.647703 -2.3466,1.081403 -3.69141,1.302734 a 0.1322915,0.1322915 0 0 0 -0.10937,0.152344 0.1322915,0.1322915 0 0 0 0.15234,0.109375 c 1.37408,-0.226149 2.63506,-0.67174 3.78125,-1.335937 a 0.1322915,0.1322915 0 0 0 0.0488,-0.179688 0.1322915,0.1322915 0 0 0 -0.18164,-0.04883 z"
             id="path25" />
        </g>
      </g>
      <g
         id="g22"
         transform="matrix(0.48750706,0,0,0.48984099,76.743078,18.761634)"
         style="stroke-width:2.04636">
        <path
           style="baseline-shift:baseline;display:inline;overflow:visible;opacity:1;vector-effect:none;stroke-linecap:round;stroke-linejoin:round;paint-order:fill markers stroke;enable-background:accumulate;stop-color:#000000;stop-opacity:1"
           d="m 219.41992,63.289062 -0.23828,0.0098 -0.24023,0.0059 -0.24414,-0.0059 a 0.27074308,0.27074308 0 0 0 -0.0156,0 l -0.23633,0.0098 -0.24219,0.0098 -0.24414,0.0098 a 0.27074308,0.27074308 0 0 0 -0.002,0 l -0.24023,0.01172 a 0.27074308,0.27074308 0 0 0 -0.0254,0.002 l -0.19141,0.02734 -0.24414,-0.01953 a 0.27074308,0.27074308 0 0 0 -0.0273,0 l -0.2461,0.0078 a 0.27074308,0.27074308 0 0 0 -0.008,0 l -0.22656,0.01172 -0.2461,-0.0078 a 0.27074308,0.27074308 0 0 0 -0.0215,0 l -0.23438,0.0098 a 0.27074308,0.27074308 0 0 0 -0.006,0 l -0.22461,0.01367 -0.23828,-0.01172 a 0.27074308,0.27074308 0 0 0 -0.0352,0 l -0.23242,0.01953 -0.23633,0.01367 h -0.24414 a 0.27074308,0.27074308 0 0 0 -0.0234,0 l -0.23633,0.02148 a 0.27074308,0.27074308 0 0 0 -0.01,0 l -0.23633,0.0293 a 0.27074308,0.27074308 0 0 0 -0.13672,0.05664 l -0.17774,0.144531 a 0.27074308,0.27074308 0 0 0 -0.0644,0.07422 l -0.0977,0.164062 -0.15625,0.144532 a 0.27074308,0.27074308 0 0 0 -0.006,0.0059 l -0.17383,0.169922 a 0.27074308,0.27074308 0 0 0 -0.0137,0.01367 l -0.16211,0.18164 a 0.27074308,0.27074308 0 0 0 -0.0117,0.01563 l -0.12696,0.166016 -0.15234,0.128906 a 0.27074308,0.27074308 0 0 0 -0.0469,0.05078 l -0.13282,0.191407 -0.15234,0.171875 a 0.27074308,0.27074308 0 0 0 -0.01,0.01367 l -0.14062,0.179687 -0.15235,0.173828 -0.13281,0.150391 -0.14648,0.0957 a 0.27074308,0.27074308 0 0 0 -0.0332,0.02539 l -0.1914,0.171875 a 0.27074308,0.27074308 0 0 0 -0.041,0.04687 l -0.13476,0.193359 -0.15235,0.1875 -0.15234,0.183594 a 0.27074308,0.27074308 0 0 0 0,0.002 l -0.15039,0.185547 a 0.27074308,0.27074308 0 0 0 -0.0352,0.05859 l -0.0488,0.105469 -0.13867,0.07813 a 0.27074308,0.27074308 0 0 0 -0.0918,0.08594 l -0.15821,0.238281 a 0.27074308,0.27074308 0 0 0 -0.0449,0.152344 l 0.002,0.25 a 0.27074308,0.27074308 0 0 0 0.004,0.03906 l 0.0371,0.242188 -0.002,0.193359 a 0.27074308,0.27074308 0 0 0 0,0.002 V 68.4375 l -0.006,0.228516 -0.01,0.24414 a 0.27074308,0.27074308 0 0 0 0,0.0059 l -0.006,0.222656 -0.004,0.277344 a 0.27074308,0.27074308 0 0 0 0,0.002 l -0.002,0.246093 -0.01,0.189454 a 0.27074308,0.27074308 0 0 0 0.002,0.05078 l 0.043,0.302734 0.01,0.22461 a 0.27074308,0.27074308 0 0 0 0,0.0098 l 0.0176,0.251953 a 0.27074308,0.27074308 0 0 0 0.004,0.02734 l 0.0352,0.197266 -0.0156,0.171875 a 0.27074308,0.27074308 0 0 0 -0.002,0.03516 l 0.0117,0.269531 -0.0156,0.140625 a 0.27074308,0.27074308 0 0 0 0,0.0293 v 0.326172 a 0.27074308,0.27074308 0 0 0 0.002,0.03125 l 0.0254,0.216797 -0.0137,0.201172 a 0.27074308,0.27074308 0 0 0 0,0.03516 l 0.0156,0.265625 -0.01,0.199219 a 0.27074308,0.27074308 0 0 0 -0.002,0.0078 l -0.006,0.240235 -0.0215,0.173828 a 0.27074308,0.27074308 0 0 0 -0.002,0.01563 l -0.0156,0.279297 -0.0176,0.216796 a 0.27074308,0.27074308 0 0 0 0,0.01172 l -0.01,0.259766 a 0.27074308,0.27074308 0 0 0 0,0.002 l -0.004,0.207031 a 0.27074308,0.27074308 0 0 0 0,0.0039 l -0.004,0.28711 a 0.27074308,0.27074308 0 0 0 0,0.0039 v 0.283203 a 0.27074308,0.27074308 0 0 0 0.008,0.06445 l 0.0566,0.240235 0.0176,0.191406 -0.01,0.121094 a 0.27074308,0.27074308 0 0 0 -0.002,0.01758 l -0.01,0.335937 a 0.27074308,0.27074308 0 0 0 0,0.01758 l 0.008,0.253907 -0.008,0.216797 a 0.27074308,0.27074308 0 0 0 0,0.03906 l 0.0254,0.242188 -0.008,0.216796 a 0.27074308,0.27074308 0 0 0 0,0.03711 l 0.0254,0.234375 -0.0137,0.205078 -0.0234,0.214844 a 0.27074308,0.27074308 0 0 0 -0.002,0.03711 l 0.008,0.273438 -0.008,0.234375 a 0.27074308,0.27074308 0 0 0 0,0.0059 l -0.002,0.251953 a 0.27074308,0.27074308 0 0 0 0,0.0059 l 0.004,0.253907 a 0.27074308,0.27074308 0 0 0 0.002,0.01953 l 0.0176,0.201172 -0.0332,0.136719 a 0.27074308,0.27074308 0 0 0 -0.008,0.04102 l -0.0234,0.283203 -0.0371,0.199219 a 0.27074308,0.27074308 0 0 0 -0.004,0.07617 l 0.0293,0.277344 a 0.27074308,0.27074308 0 0 0 0.24804,0.242187 l 0.28516,0.02344 a 0.27074308,0.27074308 0 0 0 0.0664,-0.0039 l 0.17968,-0.0293 0.21094,-0.0078 0.26758,0.0039 a 0.27074308,0.27074308 0 0 0 0.0117,0 l 0.21289,-0.0078 a 0.27074308,0.27074308 0 0 0 0.0684,-0.01172 l 0.20117,-0.06055 0.20117,0.0039 0.24805,0.01172 a 0.27074308,0.27074308 0 0 0 0.041,0 l 0.2168,-0.02148 0.21289,-0.01563 0.27344,0.02539 a 0.27074308,0.27074308 0 0 0 0.043,0 l 0.18554,-0.01172 0.23047,-0.0098 0.24219,0.002 0.24219,0.002 0.25195,0.0059 a 0.27074308,0.27074308 0 0 0 0.0625,-0.0059 l 0.19531,-0.04297 0.2168,-0.01953 0.26563,0.02344 a 0.27074308,0.27074308 0 0 0 0.11132,-0.01367 l 0.15039,-0.05078 0.19727,-0.002 0.22656,0.0059 0.27539,0.0293 a 0.27074308,0.27074308 0 0 0 0.0391,0.002 l 0.16796,-0.0059 0.26368,0.02734 a 0.27074308,0.27074308 0 0 0 0.0312,0.002 l 0.20117,-0.002 a 0.27074308,0.27074308 0 0 0 0.0801,-0.01172 l 0.21093,-0.06836 0.1875,-0.01758 0.28321,0.01758 0.21484,0.02344 a 0.27074308,0.27074308 0 0 0 0.01,0.002 l 0.21484,0.01563 a 0.27074308,0.27074308 0 0 0 0.002,0 l 0.2461,0.01563 0.23242,0.01758 a 0.27074308,0.27074308 0 0 0 0.01,0.002 l 0.22852,0.0098 0.27539,0.02148 0.23633,0.01953 a 0.27074308,0.27074308 0 0 0 0.0176,0 l 0.24023,0.0078 0.24805,0.01563 0.18945,0.01953 a 0.27074308,0.27074308 0 0 0 0.0117,0.002 l 0.23438,0.01367 a 0.27074308,0.27074308 0 0 0 0.0176,0 l 0.22657,-0.002 a 0.27074308,0.27074308 0 0 0 0.0137,0 l 0.2207,-0.01172 0.24609,0.02344 a 0.27074308,0.27074308 0 0 0 0.0137,0.002 l 0.22656,0.0078 a 0.27074308,0.27074308 0 0 0 0.0625,-0.0039 l 0.19531,-0.03906 0.22266,0.0059 0.23828,0.01172 a 0.27074308,0.27074308 0 0 0 0.0293,-0.002 l 0.21289,-0.01367 0.22851,0.01953 0.24219,0.02539 a 0.27074308,0.27074308 0 0 0 0.0234,0.002 L 223.5625,80 a 0.27074308,0.27074308 0 0 0 0.27539,-0.253906 l 0.0156,-0.232422 0.0137,-0.238281 0.0254,-0.234375 a 0.27074308,0.27074308 0 0 0 0,-0.0293 v -0.234375 l 0.0508,-0.205078 a 0.27074308,0.27074308 0 0 0 0.008,-0.05664 l 0.006,-0.248047 a 0.27074308,0.27074308 0 0 0 0,-0.01563 l -0.008,-0.261719 -0.002,-0.236328 -0.002,-0.240234 0.004,-0.236328 a 0.27074308,0.27074308 0 0 0 0,-0.0078 l -0.004,-0.257812 -0.006,-0.25586 a 0.27074308,0.27074308 0 0 0 0,-0.0059 l -0.01,-0.263672 v -0.203125 a 0.27074308,0.27074308 0 0 0 0,-0.0059 l -0.004,-0.25 a 0.27074308,0.27074308 0 0 0 0,-0.0039 l -0.008,-0.263671 -0.006,-0.201172 0.0391,-0.203125 a 0.27074308,0.27074308 0 0 0 0.004,-0.05469 l -0.004,-0.251953 0.0215,-0.195312 a 0.27074308,0.27074308 0 0 0 0,-0.04492 l -0.0156,-0.265625 0.0371,-0.136719 a 0.27074308,0.27074308 0 0 0 0.01,-0.07422 l -0.002,-0.271484 a 0.27074308,0.27074308 0 0 0 0,-0.002 l -0.004,-0.244141 v -0.244141 a 0.27074308,0.27074308 0 0 0 0,-0.0039 l -0.004,-0.24414 0.004,-0.230469 a 0.27074308,0.27074308 0 0 0 0,-0.0078 l -0.002,-0.253906 a 0.27074308,0.27074308 0 0 0 0,-0.002 l -0.006,-0.345703 -0.002,-0.146485 a 0.27074308,0.27074308 0 0 0 -0.002,-0.01367 l -0.0156,-0.259766 0.004,-0.193359 0.0195,-0.230469 a 0.27074308,0.27074308 0 0 0 0,-0.0332 l -0.01,-0.269532 -0.008,-0.257812 -0.01,-0.257813 a 0.27074308,0.27074308 0 0 0 0,-0.0078 l -0.0117,-0.208984 0.0215,-0.199219 a 0.27074308,0.27074308 0 0 0 0,-0.0293 v -0.248047 l 0.006,-0.208984 0.041,-0.22461 a 0.27074308,0.27074308 0 0 0 0.004,-0.06641 l -0.0176,-0.279297 -0.008,-0.21875 0.004,-0.228515 0.0117,-0.216797 0.0449,-0.232422 a 0.27074308,0.27074308 0 0 0 0.004,-0.02148 l 0.0254,-0.234375 a 0.27074308,0.27074308 0 0 0 0.002,-0.02734 l 0.002,-0.248047 0.0195,-0.230469 a 0.27074308,0.27074308 0 0 0 -0.002,-0.04883 l -0.0273,-0.263672 0.0195,-0.193359 a 0.27074308,0.27074308 0 0 0 -0.002,-0.05469 l -0.0332,-0.300781 -0.0234,-0.207031 -0.006,-0.195313 0.0195,-0.226562 a 0.27074308,0.27074308 0 0 0 0,-0.05078 l -0.0254,-0.257812 -0.0137,-0.226563 a 0.27074308,0.27074308 0 0 0 -0.002,-0.01367 l -0.0371,-0.320313 -0.0137,-0.160156 -0.01,-0.226563 a 0.27074308,0.27074308 0 0 0 0,-0.0039 l -0.0137,-0.246094 a 0.27074308,0.27074308 0 0 0 -0.002,-0.02148 l -0.0352,-0.263672 -0.0137,-0.210937 a 0.27074308,0.27074308 0 0 0 0,-0.0098 l -0.0254,-0.242188 -0.006,-0.21875 a 0.27074308,0.27074308 0 0 0 -0.27148,-0.263671 h -0.19727 l -0.26953,-0.0332 a 0.27074308,0.27074308 0 0 0 -0.041,-0.002 l -0.22656,0.0059 a 0.27074308,0.27074308 0 0 0 -0.0137,0 l -0.22266,0.01758 -0.24023,0.002 a 0.27074308,0.27074308 0 0 0 -0.0234,0.002 l -0.20508,0.01953 -0.25195,-0.01172 -0.22461,-0.02734 -0.23437,-0.04297 a 0.27074308,0.27074308 0 0 0 -0.0488,-0.0039 l -0.2461,-0.002 a 0.27074308,0.27074308 0 0 0 -0.0137,0 l -0.22461,0.01172 -0.21093,0.0078 -0.2168,-0.05664 a 0.27074308,0.27074308 0 0 0 -0.082,-0.0078 l -0.22657,0.01172 -0.22656,0.0039 -0.23633,-0.04102 a 0.27074308,0.27074308 0 0 0 -0.0176,-0.002 l -0.23438,-0.02344 a 0.27074308,0.27074308 0 0 0 -0.0371,-0.002 z m 0.002,0.542969 0.20704,0.01953 0.25,0.04297 a 0.27074308,0.27074308 0 0 0 0.0488,0.0039 l 0.25586,-0.002 a 0.27074308,0.27074308 0 0 0 0.0117,-0.002 l 0.19141,-0.0098 0.21484,0.05469 a 0.27074308,0.27074308 0 0 0 0.0742,0.0078 l 0.25391,-0.0078 a 0.27074308,0.27074308 0 0 0 0.004,0 l 0.2168,-0.01172 0.21484,0.002 0.22071,0.04102 a 0.27074308,0.27074308 0 0 0 0.0195,0.002 l 0.24219,0.0293 a 0.27074308,0.27074308 0 0 0 0.0176,0 l 0.28125,0.01563 a 0.27074308,0.27074308 0 0 0 0.0391,-0.002 l 0.21289,-0.02148 0.23633,-0.002 a 0.27074308,0.27074308 0 0 0 0.0176,-0.002 l 0.22461,-0.01563 0.19922,-0.0059 0.25391,0.0332 v -0.01172 l 0.002,0.01172 0.0117,0.002 a 0.27074308,0.27074308 0 0 0 0.0332,0.002 h -0.0449 l 0.0234,0.232422 0.0137,0.212891 a 0.27074308,0.27074308 0 0 0 0.002,0.01758 l 0.0332,0.263672 0.0137,0.236328 0.01,0.230469 a 0.27074308,0.27074308 0 0 0 0.002,0.01172 l 0.0137,0.169922 a 0.27074308,0.27074308 0 0 0 0.002,0.0078 l 0.0352,0.318359 0.0156,0.222656 a 0.27074308,0.27074308 0 0 0 0,0.0078 l 0.0234,0.238281 -0.0195,0.216797 a 0.27074308,0.27074308 0 0 0 0,0.03125 l 0.006,0.222656 a 0.27074308,0.27074308 0 0 0 0,0.02539 l 0.0254,0.216797 0.0312,0.273437 -0.0176,0.191407 a 0.27074308,0.27074308 0 0 0 0,0.05273 l 0.0274,0.265625 -0.0156,0.214844 a 0.27074308,0.27074308 0 0 0 -0.002,0.01953 l -0.002,0.242187 -0.0234,0.210938 -0.0469,0.240234 a 0.27074308,0.27074308 0 0 0 -0.004,0.03711 l -0.0137,0.242187 a 0.27074308,0.27074308 0 0 0 0,0.0078 l -0.004,0.240234 a 0.27074308,0.27074308 0 0 0 0,0.01367 l 0.008,0.228516 a 0.27074308,0.27074308 0 0 0 0,0.0098 l 0.0176,0.25 -0.0391,0.210938 a 0.27074308,0.27074308 0 0 0 -0.006,0.03906 l -0.006,0.236328 a 0.27074308,0.27074308 0 0 0 -0.002,0.0098 l 0.002,0.238281 -0.0215,0.207031 a 0.27074308,0.27074308 0 0 0 0,0.04297 l 0.0117,0.226563 0.01,0.255859 a 0.27074308,0.27074308 0 0 0 0,0.002 l 0.008,0.257813 0.01,0.253906 -0.0195,0.222656 a 0.27074308,0.27074308 0 0 0 0,0.01758 l -0.004,0.212891 a 0.27074308,0.27074308 0 0 0 0,0.02148 l 0.0176,0.265625 0.002,0.140625 0.004,0.345703 0.004,0.25 -0.004,0.232422 a 0.27074308,0.27074308 0 0 0 0,0.0098 l 0.004,0.246094 v 0.242187 a 0.27074308,0.27074308 0 0 0 0,0.0039 l 0.004,0.246094 0.002,0.232422 -0.0391,0.142578 a 0.27074308,0.27074308 0 0 0 -0.01,0.08789 l 0.0176,0.289062 -0.0195,0.191407 a 0.27074308,0.27074308 0 0 0 -0.002,0.03125 l 0.004,0.240234 -0.0391,0.205078 a 0.27074308,0.27074308 0 0 0 -0.004,0.05664 l 0.006,0.230468 a 0.27074308,0.27074308 0 0 0 0,0.002 l 0.008,0.263671 0.004,0.244141 -0.002,0.207031 a 0.27074308,0.27074308 0 0 0 0.002,0.01172 l 0.01,0.267578 0.004,0.25 0.004,0.253906 -0.004,0.234375 a 0.27074308,0.27074308 0 0 0 0,0.0059 l 0.002,0.246094 L 223.4082,78 a 0.27074308,0.27074308 0 0 0 0,0.0039 l 0.008,0.25586 -0.006,0.210937 -0.0508,0.208984 a 0.27074308,0.27074308 0 0 0 -0.008,0.06641 V 79 l -0.0234,0.224609 a 0.27074308,0.27074308 0 0 0 -0.002,0.01172 l -0.0117,0.214844 -0.18945,-0.02148 a 0.27074308,0.27074308 0 0 0 -0.006,0 l -0.25195,-0.02148 a 0.27074308,0.27074308 0 0 0 -0.041,0 l -0.2168,0.01367 -0.22851,-0.0098 a 0.27074308,0.27074308 0 0 0 -0.004,0 l -0.25586,-0.0059 a 0.27074308,0.27074308 0 0 0 -0.0566,0.0039 l -0.19336,0.03906 -0.1875,-0.0078 -0.25976,-0.02344 a 0.27074308,0.27074308 0 0 0 -0.0391,-0.002 l -0.23243,0.01172 -0.21289,0.002 -0.21875,-0.01367 -0.18945,-0.01953 a 0.27074308,0.27074308 0 0 0 -0.0117,-0.002 l -0.25781,-0.01563 a 0.27074308,0.27074308 0 0 0 -0.01,0 l -0.23828,-0.0078 -0.23047,-0.01953 a 0.27074308,0.27074308 0 0 0 -0.002,0 L 219.5,79.330078 a 0.27074308,0.27074308 0 0 0 -0.008,0 l -0.23047,-0.0098 -0.22852,-0.01758 a 0.27074308,0.27074308 0 0 0 -0.004,0 l -0.2461,-0.01758 -0.20898,-0.01563 -0.2168,-0.02344 a 0.27074308,0.27074308 0 0 0 -0.0137,0 l -0.31055,-0.01953 a 0.27074308,0.27074308 0 0 0 -0.041,0 l -0.23633,0.02148 a 0.27074308,0.27074308 0 0 0 -0.0586,0.01172 l -0.19922,0.06445 -0.14649,0.002 -0.26562,-0.0293 a 0.27074308,0.27074308 0 0 0 -0.0371,0 l -0.16992,0.0039 -0.26758,-0.02734 a 0.27074308,0.27074308 0 0 0 -0.0215,-0.002 l -0.24218,-0.0078 a 0.27074308,0.27074308 0 0 0 -0.0117,0 l -0.2461,0.0039 a 0.27074308,0.27074308 0 0 0 -0.082,0.01563 l -0.13672,0.04492 -0.23437,-0.01953 a 0.27074308,0.27074308 0 0 0 -0.0488,0 l -0.25781,0.02344 a 0.27074308,0.27074308 0 0 0 -0.0332,0.0039 l -0.17968,0.04102 -0.22071,-0.0059 a 0.27074308,0.27074308 0 0 0 -0.002,0 l -0.24414,-0.002 a 0.27074308,0.27074308 0 0 0 -0.002,0 l -0.24805,-0.002 a 0.27074308,0.27074308 0 0 0 -0.0137,0 l -0.24024,0.0098 a 0.27074308,0.27074308 0 0 0 -0.006,0 l -0.16992,0.01172 -0.27343,-0.02539 a 0.27074308,0.27074308 0 0 0 -0.043,0 l -0.23828,0.01563 a 0.27074308,0.27074308 0 0 0 -0.008,0.002 l -0.20117,0.01953 -0.23437,-0.01172 a 0.27074308,0.27074308 0 0 0 -0.008,0 l -0.24609,-0.0039 a 0.27074308,0.27074308 0 0 0 -0.084,0.01172 l -0.20899,0.0625 -0.16992,0.0059 -0.26563,-0.0039 a 0.27074308,0.27074308 0 0 0 -0.0117,0 l -0.23829,0.0078 a 0.27074308,0.27074308 0 0 0 -0.0351,0.0039 l -0.16406,0.02734 -0.0274,-0.002 -0.002,-0.01563 0.0332,-0.173828 a 0.27074308,0.27074308 0 0 0 0.002,-0.02539 l 0.0254,-0.273437 0.0391,-0.160157 a 0.27074308,0.27074308 0 0 0 0.008,-0.08984 l -0.0234,-0.236329 -0.004,-0.238281 0.002,-0.246094 0.008,-0.238281 a 0.27074308,0.27074308 0 0 0 0,-0.01563 l -0.006,-0.261719 0.0215,-0.203125 a 0.27074308,0.27074308 0 0 0 0.002,-0.01563 l 0.0137,-0.234375 a 0.27074308,0.27074308 0 0 0 0,-0.04297 l -0.0254,-0.238282 0.008,-0.214843 a 0.27074308,0.27074308 0 0 0 0,-0.03711 l -0.0254,-0.242187 0.008,-0.208985 a 0.27074308,0.27074308 0 0 0 0,-0.01953 l -0.008,-0.255859 0.01,-0.31836 0.0137,-0.136718 a 0.27074308,0.27074308 0 0 0 0,-0.05078 l -0.0215,-0.236328 a 0.27074308,0.27074308 0 0 0 -0.008,-0.03906 l -0.0547,-0.230469 v -0.248047 l 0.004,-0.285156 0.006,-0.205078 0.008,-0.25 0.0176,-0.212891 a 0.27074308,0.27074308 0 0 0 0,-0.0078 l 0.0156,-0.273438 0.0215,-0.175781 a 0.27074308,0.27074308 0 0 0 0.002,-0.02344 l 0.006,-0.25 0.0137,-0.210937 a 0.27074308,0.27074308 0 0 0 0,-0.0332 l -0.0176,-0.263672 0.0156,-0.208984 a 0.27074308,0.27074308 0 0 0 -0.002,-0.05078 l -0.0273,-0.226562 V 71.57607 l 0.0156,-0.144531 a 0.27074308,0.27074308 0 0 0 0,-0.03906 l -0.01,-0.271484 0.0176,-0.189453 a 0.27074308,0.27074308 0 0 0 -0.004,-0.07031 l -0.0391,-0.220703 -0.0156,-0.234375 -0.01,-0.234375 a 0.27074308,0.27074308 0 0 0 -0.002,-0.02734 l -0.041,-0.291015 0.008,-0.169922 a 0.27074308,0.27074308 0 0 0 0,-0.0098 l 0.002,-0.25 0.006,-0.273437 0.004,-0.220704 0.01,-0.24414 a 0.27074308,0.27074308 0 0 0 0,-0.002 l 0.006,-0.236328 a 0.27074308,0.27074308 0 0 0 0,-0.0059 v -0.248047 l 0.002,-0.214843 a 0.27074308,0.27074308 0 0 0 -0.002,-0.04492 l -0.0391,-0.244141 -0.002,-0.146484 0.0781,-0.115235 0.1582,-0.08984 a 0.27074308,0.27074308 0 0 0 0.11329,-0.125 l 0.0703,-0.154297 0.12695,-0.158203 0.15039,-0.183594 0.15821,-0.19336 a 0.27074308,0.27074308 0 0 0 0.0137,-0.01758 l 0.12304,-0.175781 0.15235,-0.136719 0.16015,-0.105468 a 0.27074308,0.27074308 0 0 0 0.0566,-0.04687 l 0.15625,-0.179688 0.15821,-0.179687 a 0.27074308,0.27074308 0 0 0 0.0117,-0.01367 l 0.13867,-0.179688 0.15625,-0.177734 a 0.27074308,0.27074308 0 0 0 0.0195,-0.02344 l 0.12109,-0.175781 0.14649,-0.125 a 0.27074308,0.27074308 0 0 0 0.041,-0.04102 l 0.13868,-0.18164 0.14843,-0.166016 0.16407,-0.160156 0.18359,-0.169922 a 0.27074308,0.27074308 0 0 0 0.0508,-0.0625 l 0.0918,-0.15625 0.0801,-0.06445 0.15429,-0.01758 0.22071,-0.01953 h 0.24023 a 0.27074308,0.27074308 0 0 0 0.0176,0 l 0.24609,-0.01563 a 0.27074308,0.27074308 0 0 0 0.006,0 l 0.2168,-0.01758 0.23633,0.01367 a 0.27074308,0.27074308 0 0 0 0.0312,0 l 0.23632,-0.01563 0.22266,-0.0098 0.24805,0.0078 a 0.27074308,0.27074308 0 0 0 0.0234,0 L 217,63.898437 l 0.22852,-0.0078 0.25781,0.02148 a 0.27074308,0.27074308 0 0 0 0.0586,-0.002 l 0.20899,-0.0293 0.22851,-0.01172 0.24219,-0.0098 a 0.27074308,0.27074308 0 0 0 0.002,0 l 0.24219,-0.0098 0.22656,-0.0098 0.24219,0.0059 a 0.27074308,0.27074308 0 0 0 0.0117,0 l 0.24609,-0.0059 a 0.27074308,0.27074308 0 0 0 0.004,0 z"
           id="path21"
           transform="translate(-1.7854771,-3.136649)" />
        <path
           style="baseline-shift:baseline;display:inline;overflow:visible;opacity:1;vector-effect:none;stroke-linecap:round;stroke-linejoin:round;paint-order:fill markers stroke;enable-background:accumulate;stop-color:#000000;stop-opacity:1"
           d="m 215.22461,64.138672 -0.94531,0.08398 a 0.27074308,0.27074308 0 0 0 -0.0274,0.0039 l -0.84375,0.167969 -0.93945,-0.126953 a 0.27074308,0.27074308 0 0 0 -0.10547,0.0078 l -0.92187,0.24414 a 0.27071601,0.27071601 0 0 0 -0.19141,0.332031 0.27071601,0.27071601 0 0 0 0.33008,0.191407 l 0.87109,-0.230469 0.92969,0.125 a 0.27074308,0.27074308 0 0 0 0.0879,-0.0039 l 0.87305,-0.173828 0.91015,-0.08008 0.91602,0.06445 0.92383,0.152343 a 0.27074308,0.27074308 0 0 0 0.10742,-0.0039 l 0.83008,-0.199219 0.91992,0.275391 a 0.27074308,0.27074308 0 0 0 0.0547,0.0098 l 0.88086,0.07422 a 0.27071601,0.27071601 0 0 0 0.29296,-0.248047 0.27071601,0.27071601 0 0 0 -0.24804,-0.291015 l -0.85352,-0.07227 -0.96094,-0.289062 a 0.27074308,0.27074308 0 0 0 -0.14062,-0.0039 l -0.84766,0.205079 -0.88281,-0.146485 a 0.27074308,0.27074308 0 0 0 -0.0254,-0.002 l -0.95117,-0.06641 a 0.27074308,0.27074308 0 0 0 -0.043,0 z"
           id="path22"
           transform="translate(-0.05444107,-0.81651455)" />
        <path
           style="baseline-shift:baseline;display:inline;overflow:visible;opacity:1;vector-effect:none;stroke-linecap:round;stroke-linejoin:round;paint-order:fill markers stroke;enable-background:accumulate;stop-color:#000000;stop-opacity:1"
           d="m 215.2793,63.763672 a 0.27074308,0.27074308 0 0 0 -0.21289,0.05664 l -0.88282,0.710938 -0.81054,0.232422 -0.90235,0.07422 -0.86718,-0.310547 a 0.27071601,0.27071601 0 0 0 -0.34766,0.162109 0.27071601,0.27071601 0 0 0 0.16406,0.347656 l 0.92188,0.330078 a 0.27074308,0.27074308 0 0 0 0.11328,0.01563 l 0.99023,-0.08203 a 0.27074308,0.27074308 0 0 0 0.0508,-0.0098 l 0.88868,-0.253907 a 0.27074308,0.27074308 0 0 0 0.0957,-0.05078 l 0.83203,-0.669922 0.90625,0.148438 0.91016,0.199218 a 0.27074308,0.27074308 0 0 0 0.13867,-0.0059 l 0.79687,-0.246094 0.94141,0.320313 0.81055,0.291015 A 0.27071601,0.27071601 0 0 0 220.16213,64.86126 0.27071601,0.27071601 0 0 0 220,64.513672 l -0.8125,-0.291016 a 0.27074308,0.27074308 0 0 0 -0.004,-0.002 l -1.02929,-0.349609 a 0.27074308,0.27074308 0 0 0 -0.16602,-0.002 l -0.8125,0.25 -0.84961,-0.185547 a 0.27074308,0.27074308 0 0 0 -0.0137,-0.002 z"
           id="path22-7"
           transform="translate(-0.03777207,1.7114544)" />
        <path
           style="baseline-shift:baseline;display:inline;overflow:visible;opacity:1;vector-effect:none;stroke-linecap:round;stroke-linejoin:round;paint-order:fill markers stroke;enable-background:accumulate;stop-color:#000000;stop-opacity:1"
           d="m 217.05664,64.359375 -0.9082,0.214844 -0.88867,-0.0293 a 0.27074308,0.27074308 0 0 0 -0.0879,0.01172 l -0.89257,0.269531 -0.83594,-0.04297 a 0.27074308,0.27074308 0 0 0 -0.0527,0.0039 l -0.91796,0.132813 -0.84961,-0.384766 a 0.27071601,0.27071601 0 0 0 -0.35938,0.134766 0.27071601,0.27071601 0 0 0 0.13672,0.357422 l 0.92188,0.417968 a 0.27074308,0.27074308 0 0 0 0.15039,0.02148 l 0.9707,-0.140625 0.85547,0.04297 a 0.27074308,0.27074308 0 0 0 0.0918,-0.01172 l 0.89649,-0.269531 0.87891,0.02734 a 0.27074308,0.27074308 0 0 0 0.0723,-0.0059 l 0.81641,-0.193359 0.8164,0.634765 a 0.27074308,0.27074308 0 0 0 0.2461,0.04492 l 1.02929,-0.3125 0.83985,-0.255859 a 0.27071601,0.27071601 0 0 0 0.17969,-0.337891 0.27071601,0.27071601 0 0 0 -0.3379,-0.179687 l -0.83984,0.255859 -0.89453,0.271484 -0.80859,-0.628906 a 0.27074308,0.27074308 0 0 0 -0.22852,-0.04883 z"
           id="path22-7-3"
           transform="translate(0.13029803,4.0113897)" />
        <path
           style="baseline-shift:baseline;display:inline;overflow:visible;opacity:1;vector-effect:none;stroke-linecap:round;stroke-linejoin:round;paint-order:fill markers stroke;enable-background:accumulate;stop-color:#000000;stop-opacity:1"
           d="m 218.02344,64.443359 -0.91407,0.0332 -0.93945,0.02539 a 0.27074308,0.27074308 0 0 0 -0.0234,0.002 l -0.85546,0.09961 a 0.27074308,0.27074308 0 0 0 -0.125,0.04687 l -0.875,0.617187 -0.80079,-0.05078 a 0.27074308,0.27074308 0 0 0 -0.0254,0 l -0.93945,0.0293 -0.8457,-0.675782 a 0.27071601,0.27071601 0 0 0 -0.37891,0.04297 0.27071601,0.27071601 0 0 0 0.041,0.378906 l 0.92187,0.738282 a 0.27074308,0.27074308 0 0 0 0.17774,0.06055 l 1.02734,-0.0332 0.88281,0.05664 a 0.27074308,0.27074308 0 0 0 0.17383,-0.04883 l 0.89648,-0.632813 0.77344,-0.08984 0.92969,-0.02539 a 0.27074308,0.27074308 0 0 0 0.002,0 l 0.89649,-0.03125 0.9414,0.09375 a 0.27074308,0.27074308 0 0 0 0.0391,0.002 l 0.91406,-0.03711 a 0.27071601,0.27071601 0 0 0 0.25976,-0.28125 0.27071601,0.27071601 0 0 0 -0.28125,-0.259766 L 219,64.539062 l -0.94141,-0.09375 a 0.27074308,0.27074308 0 0 0 -0.0352,-0.002 z"
           id="path22-7-3-0"
           transform="translate(-0.03612217,6.1181829)" />
        <path
           style="baseline-shift:baseline;display:inline;overflow:visible;opacity:1;vector-effect:none;stroke-linecap:round;stroke-linejoin:round;paint-order:fill markers stroke;enable-background:accumulate;stop-color:#000000;stop-opacity:1"
           d="m 215.27344,63.681641 a 0.27074308,0.27074308 0 0 0 -0.11328,0.02148 l -0.96094,0.396484 a 0.27074308,0.27074308 0 0 0 -0.004,0.002 l -0.84765,0.365235 -0.91993,0.04492 h -0.91601 a 0.27071601,0.27071601 0 0 0 -0.27149,0.269531 0.27071601,0.27071601 0 0 0 0.27149,0.271484 h 0.92187 a 0.27074308,0.27074308 0 0 0 0.0137,0 l 0.9746,-0.04687 a 0.27074308,0.27074308 0 0 0 0.0957,-0.02148 l 0.89062,-0.386719 0.9043,-0.371094 0.94727,0.03516 0.93554,0.173828 a 0.27074308,0.27074308 0 0 0 0.0742,0.0039 l 0.83789,-0.08008 0.90235,0.212891 0.75781,0.46289 a 0.27071601,0.27071601 0 0 0 0.37109,-0.08984 0.27071601,0.27071601 0 0 0 -0.0898,-0.373046 L 219.2558,64.08794 a 0.27074308,0.27074308 0 0 0 -0.0801,-0.0332 l -0.98828,-0.232421 a 0.27074308,0.27074308 0 0 0 -0.0879,-0.0059 l -0.8418,0.08008 -0.91797,-0.169922 a 0.27074308,0.27074308 0 0 0 -0.0391,-0.0039 z"
           id="path22-7-3-0-4"
           transform="translate(0.30167063,9.0401905)" />
      </g>
    </g>
    <path
       id="rect23"
       style="fill:#778899;stroke-width:0.264583;stroke-linecap:round;stroke-linejoin:round;paint-order:fill markers stroke"
       d="m 152.61812,113.34792 h 0.52916 v 40.92121 h -0.52916 z" />
    <path
       style="font-size:6.35px;line-height:0.4;font-family:Handlee;-inkscape-font-specification:Handlee;fill:#778899;stroke-width:0.264583;stroke-linecap:round;stroke-linejoin:round;paint-order:fill markers stroke"
       d="m 118.34688,113.17013 -0.52705,0.019 q -0.4445,0 -0.57785,-0.12065 -0.0825,-0.0635 -0.0825,-0.1778 0,-0.71755 0.0508,-1.8796 0.0508,-1.1684 0.0508,-1.8161 0,-0.26035 0.4826,-0.4191 0.4826,-0.15875 1.03505,-0.15875 1.03505,0 1.7145,0.5842 0.6858,0.5842 0.6858,1.51765 0,0.4699 -0.1651,0.86995 -0.15875,0.40005 -0.4318,0.69215 -0.27305,0.28575 -0.635,0.48895 -0.7239,0.40005 -1.6002,0.40005 z m 2.38125,-2.2987 q 0,-0.81915 -0.5588,-1.3716 -0.55245,-0.5588 -1.4351,-0.5588 -0.4318,0 -1.0287,0.28575 0,0.51435 -0.0508,1.54305 -0.0508,1.02235 -0.0508,1.41605 0,0.38735 0.006,0.55245 0.3556,0.0698 0.762,0.0698 1.0287,0 1.6891,-0.50165 0.66675,-0.50165 0.66675,-1.4351 z m 2.86385,-2.2987 0.9779,0.019 q 0.48895,0 0.6731,0.1143 -0.0191,0.1778 -0.13335,0.23495 -0.1143,0.0572 -0.3302,0.0572 l -1.3716,-0.0191 q -0.5207,0 -0.8763,0.0318 -0.0699,0.3556 -0.0699,1.02235 l 0.006,0.28575 q 0,0.18415 -0.006,0.3937 0.2921,0.0508 0.762,0.0508 l 0.75565,-0.006 q 0.4318,0 0.4953,0.0444 0.0635,0.0444 0.0635,0.0952 0,0.2413 -0.61595,0.2413 l -1.44145,-0.0444 q -0.006,0.1524 -0.0127,0.5207 -0.0127,0.76835 -0.0571,1.16205 0.4064,0.0254 0.5842,0.0254 0.1778,0 0.3683,-0.006 0.1905,-0.006 0.7112,-0.0381 0.5207,-0.0318 0.7747,-0.0318 0.26035,0 0.3556,0.0381 0.0952,0.0318 0.0952,0.1524 0,0.0762 -0.0444,0.10795 -0.0381,0.0254 -0.0699,0.0444 -0.0317,0.0127 -0.0825,0.0254 -0.0444,0.006 -0.0825,0.0127 -0.0318,0.006 -0.0952,0.0127 -0.0572,0 -0.0953,0.006 -0.0318,0 -0.0889,0 h -0.0889 q -1.2446,0.0571 -1.59385,0.0571 -1.04775,0 -1.04775,-0.2921 -0.0127,-0.59055 -0.0127,-1.12395 0,-1.75895 0.1143,-2.92735 0.13335,-0.20955 0.7747,-0.2413 0.40005,-0.0254 0.70485,-0.0254 z m 2.73684,0.28575 q 0.2413,-0.15875 0.52705,-0.23495 0.28575,-0.0762 0.56515,-0.0762 0.2794,0 0.5207,0.0381 0.24765,0.0318 0.50165,0.1143 0.26035,0.0825 0.42545,0.254 0.1651,0.17145 0.18415,0.4064 0.006,0.0953 -0.0762,0.14605 -0.0762,0.0444 -0.1778,0.0444 -0.0952,0 -0.14605,-0.0444 -0.0444,-0.0508 -0.0889,-0.14605 -0.2413,-0.48895 -1.0541,-0.48895 -0.55245,0 -0.90805,0.23495 -0.34925,0.23495 -0.34925,0.6858 0,0.254 0.15875,0.43815 0.15875,0.1778 0.41275,0.2794 0.26035,0.1016 0.56515,0.18415 0.31115,0.0825 0.61595,0.18415 0.31115,0.1016 0.56515,0.2413 0.26035,0.1397 0.4191,0.3937 0.15875,0.24765 0.15875,0.5969 0,0.508 -0.50165,0.8636 -0.4953,0.3556 -1.25095,0.3556 -0.5842,0 -1.143,-0.24765 -0.5588,-0.24765 -0.5588,-0.508 0,-0.0698 0.0825,-0.127 0.0825,-0.0635 0.15875,-0.0635 0.0826,0 0.1524,0.0508 0.0699,0.0444 0.15875,0.127 0.0889,0.0825 0.15875,0.127 0.4826,0.3048 1.0795,0.3048 0.4191,0 0.81915,-0.254 0.40005,-0.26035 0.40005,-0.69215 0,-0.2921 -0.2159,-0.4826 -0.2159,-0.19685 -0.53975,-0.2794 -0.32385,-0.0889 -0.70485,-0.19685 -0.37465,-0.10795 -0.6985,-0.22225 -0.32385,-0.1143 -0.53975,-0.3683 -0.2159,-0.254 -0.2159,-0.60325 0,-0.3556 0.14605,-0.61595 0.1524,-0.2667 0.3937,-0.4191 z m 4.12751,-0.19685 q -0.0635,2.8702 -0.0699,4.4831 -0.0952,0.1016 -0.17145,0.1016 -0.0699,0 -0.12065,-0.0318 -0.14605,-0.0952 -0.14605,-0.3556 0.0127,-3.05435 0.0445,-3.57505 0.0317,-0.5207 0.0952,-0.60325 0.0635,-0.0825 0.1524,-0.0825 0.0889,0 0.2159,0.0635 z m 3.175,2.53365 q -0.3556,0 -0.3556,-0.12065 0,-0.1397 0.43815,-0.2159 0.43815,-0.0825 0.889,-0.0825 0.45085,0 0.65405,0.0254 0.2032,0.0254 0.26035,0.0699 0.0635,0.0444 0.0635,0.127 0,1.143 -0.5461,1.68275 -0.5461,0.53975 -1.5748,0.53975 -1.02235,0 -1.60655,-0.50165 -0.57785,-0.50165 -0.57785,-1.3843 0,-1.2192 0.73025,-1.97485 0.73025,-0.762 1.8161,-0.762 0.47625,0 0.9017,0.19685 0.42545,0.19685 0.5207,0.508 -0.0889,0.0762 -0.17145,0.0762 -0.0825,0 -0.2032,-0.0381 -0.1143,-0.0381 -0.23495,-0.14605 -0.12065,-0.10795 -0.3683,-0.2159 -0.24765,-0.1143 -0.5207,-0.1143 -0.84455,0 -1.46685,0.7239 -0.61595,0.71755 -0.61595,1.69545 0,0.7747 0.56515,1.21285 0.5715,0.43815 1.3335,0.43815 0.86995,0 1.2319,-0.53975 0.3429,-0.4953 0.3429,-1.26365 -0.0508,-0.0445 -0.13335,-0.0445 -0.0825,0 -0.19685,0.006 -0.2921,0.0127 -0.6731,0.0571 -0.381,0.0444 -0.50165,0.0444 z m 6.10869,1.44145 0.0571,-3.937 q 0.1016,-0.1016 0.2159,-0.1016 0.1143,0 0.1778,0.0381 0.0445,0.84455 0.0445,1.39065 l -0.0508,2.94005 q 0,0.127 0,0.2413 -0.2159,0.1397 -0.3556,0.1397 l -0.0762,-0.0127 q -0.0635,-0.0318 -0.1016,-0.0508 -0.0317,-0.0127 -0.0889,-0.0889 -0.0572,-0.0699 -0.0762,-0.1016 -0.019,-0.0318 -0.0889,-0.1397 -0.0635,-0.10795 -0.0889,-0.14605 -0.0254,-0.0444 -0.36195,-0.57785 -0.3302,-0.53975 -0.4191,-0.6731 -0.0889,-0.13335 -0.381,-0.56515 -0.28575,-0.4318 -0.45085,-0.64135 -0.48895,-0.6223 -0.9017,-1.0033 0.0317,0.83185 0.0317,1.778 0,0.94615 -0.0381,2.0193 -0.0762,0.1143 -0.42545,0.1143 0,-3.58775 -0.0254,-4.4196 0.12065,-0.1143 0.23495,-0.1143 0.1143,0 0.22225,0.0635 0.1651,0.1016 0.3683,0.3048 0.6731,0.6731 1.27,1.53035 0.60325,0.85725 1.3081,2.01295 z m 3.1369,-4.064 0.9779,0.019 q 0.48895,0 0.6731,0.1143 -0.019,0.1778 -0.13335,0.23495 -0.1143,0.0572 -0.3302,0.0572 l -1.3716,-0.0191 q -0.5207,0 -0.8763,0.0318 -0.0699,0.3556 -0.0699,1.02235 l 0.006,0.28575 q 0,0.18415 -0.006,0.3937 0.2921,0.0508 0.762,0.0508 l 0.75565,-0.006 q 0.4318,0 0.4953,0.0444 0.0635,0.0444 0.0635,0.0952 0,0.2413 -0.61595,0.2413 l -1.44145,-0.0444 q -0.006,0.1524 -0.0127,0.5207 -0.0127,0.76835 -0.0572,1.16205 0.4064,0.0254 0.5842,0.0254 0.1778,0 0.3683,-0.006 0.1905,-0.006 0.7112,-0.0381 0.5207,-0.0318 0.7747,-0.0318 0.26035,0 0.3556,0.0381 0.0952,0.0318 0.0952,0.1524 0,0.0762 -0.0445,0.10795 -0.0381,0.0254 -0.0698,0.0444 -0.0318,0.0127 -0.0826,0.0254 -0.0444,0.006 -0.0825,0.0127 -0.0317,0.006 -0.0952,0.0127 -0.0572,0 -0.0952,0.006 -0.0318,0 -0.0889,0 h -0.0889 q -1.2446,0.0571 -1.59385,0.0571 -1.04775,0 -1.04775,-0.2921 -0.0127,-0.59055 -0.0127,-1.12395 0,-1.75895 0.1143,-2.92735 0.13335,-0.20955 0.7747,-0.2413 0.40005,-0.0254 0.70485,-0.0254 z m 2.83845,3.3401 0.019,0.95885 q 0,0.19685 -0.0889,0.2667 -0.0889,0.0699 -0.1651,0.0699 -0.0762,0 -0.14605,-0.0191 -0.0825,-0.67945 -0.0825,-1.32715 0,-0.6477 0.0381,-1.46685 0.0445,-0.81915 0.0508,-1.2954 0,-0.508 1.3589,-0.508 0.71755,0 1.35255,0.29845 0.3302,0.1524 0.53975,0.4318 0.20955,0.27305 0.20955,0.61595 0,0.33655 -0.1524,0.6096 -0.1524,0.27305 -0.38735,0.4572 -0.23495,0.1778 -0.53975,0.31115 -0.50165,0.2286 -1.1176,0.3048 0.3048,0.17145 0.9906,0.8255 0.2032,0.19685 0.51435,0.3556 0.31115,0.1524 0.64135,0.1524 0.0317,0 0.13335,-0.0127 0.1016,-0.0191 0.17145,-0.0254 0.0699,-0.006 0.127,0.0318 0.0635,0.0318 0.0635,0.12065 0,0.2159 -0.53975,0.2159 -0.62865,0 -1.25095,-0.4826 -0.27305,-0.2032 -0.5334,-0.4191 -0.64135,-0.53975 -1.20015,-0.67945 -0.006,0.0571 -0.006,0.20955 z m 2.60985,-1.89865 q 0,-0.5334 -0.4826,-0.8001 -0.47625,-0.27305 -1.21285,-0.27305 -0.46355,0 -0.8636,0.1016 0,0.50165 -0.0318,1.1176 -0.0317,0.6096 -0.0317,0.8382 0,0.2286 0.006,0.33655 0.9398,-0.0699 1.45415,-0.22225 0.55245,-0.15875 0.8255,-0.3937 0.33655,-0.2921 0.33655,-0.70485 z"
       id="text23"
       aria-label="DESIGNER" />
    <path
       style="font-size:6.35px;line-height:0.4;font-family:Handlee;-inkscape-font-specification:Handlee;fill:#778899;stroke-width:0.264583;stroke-linecap:round;stroke-linejoin:round;paint-order:fill markers stroke"
       d="m 157.03062,108.64893 0.019,1.49225 q 0,0.3175 -0.019,0.61595 0.5588,-0.22225 0.9906,-0.52705 0.43815,-0.31115 0.6731,-0.5842 0.23495,-0.2794 0.4064,-0.5207 0.1778,-0.24765 0.3048,-0.3937 0.13335,-0.14605 0.24765,-0.14605 0.1143,0 0.22225,0.0825 -0.26035,0.65405 -0.7366,1.1303 -0.4699,0.4699 -1.1938,0.95885 0.33655,0.17145 0.635,0.48895 0.3048,0.31115 0.50165,0.61595 0.55245,0.84455 1.03505,1.2065 -0.10795,0.1651 -0.3175,0.1651 -0.2032,0 -0.4953,-0.32385 -0.2921,-0.3302 -0.53975,-0.73025 -0.24765,-0.40005 -0.56515,-0.7747 -0.3175,-0.381 -0.5842,-0.4572 -0.0508,0.019 -0.26035,0.12065 -0.2032,0.0952 -0.32385,0.13335 0,1.07315 -0.0318,1.8034 -0.1143,0.1143 -0.41275,0.1143 -0.0127,-0.1905 -0.0127,-0.86995 l 0.0254,-3.47345 q 0.0762,-0.1397 0.28575,-0.1397 0.0699,0 0.14605,0.0127 z m 4.09574,0.15875 -0.0317,2.81305 q 0,0.65405 0.0381,1.23825 0.381,0.0254 0.69215,0.0254 l 1.3335,-0.0254 q 0.31115,0 0.31115,0.1778 0,0.20955 -1.3335,0.20955 -0.32385,0 -0.83185,-0.0318 -0.508,-0.0318 -0.61595,-0.1016 -0.0318,-0.6731 -0.0318,-2.1971 l 0.0318,-2.2352 q 0.1651,-0.127 0.2667,-0.127 0.17145,0 0.17145,0.254 z m 3.42265,-0.14605 q -0.0635,2.8702 -0.0699,4.4831 -0.0952,0.1016 -0.17145,0.1016 -0.0699,0 -0.12065,-0.0318 -0.14605,-0.0952 -0.14605,-0.3556 0.0127,-3.05435 0.0444,-3.57505 0.0318,-0.5207 0.0952,-0.60325 0.0635,-0.0825 0.1524,-0.0825 0.0889,0 0.2159,0.0635 z m 2.6289,-0.0889 0.9779,0.019 q 0.48895,0 0.6731,0.1143 -0.019,0.1778 -0.13335,0.23495 -0.1143,0.0572 -0.3302,0.0572 l -1.3716,-0.0191 q -0.5207,0 -0.8763,0.0318 -0.0699,0.3556 -0.0699,1.02235 l 0.006,0.28575 q 0,0.18415 -0.006,0.3937 0.2921,0.0508 0.762,0.0508 l 0.75565,-0.006 q 0.4318,0 0.4953,0.0444 0.0635,0.0444 0.0635,0.0952 0,0.2413 -0.61595,0.2413 l -1.44145,-0.0444 q -0.006,0.1524 -0.0127,0.5207 -0.0127,0.76835 -0.0572,1.16205 0.4064,0.0254 0.5842,0.0254 0.1778,0 0.3683,-0.006 0.1905,-0.006 0.7112,-0.0381 0.5207,-0.0318 0.7747,-0.0318 0.26035,0 0.3556,0.0381 0.0952,0.0318 0.0952,0.1524 0,0.0762 -0.0444,0.10795 -0.0381,0.0254 -0.0699,0.0444 -0.0318,0.0127 -0.0825,0.0254 -0.0445,0.006 -0.0826,0.0127 -0.0317,0.006 -0.0952,0.0127 -0.0572,0 -0.0952,0.006 -0.0317,0 -0.0889,0 h -0.0889 q -1.2446,0.0571 -1.59385,0.0571 -1.04775,0 -1.04775,-0.2921 -0.0127,-0.59055 -0.0127,-1.12395 0,-1.75895 0.1143,-2.92735 0.13335,-0.20955 0.7747,-0.2413 0.40005,-0.0254 0.70485,-0.0254 z m 5.82295,4.064 0.0572,-3.937 q 0.1016,-0.1016 0.2159,-0.1016 0.1143,0 0.1778,0.0381 0.0445,0.84455 0.0445,1.39065 l -0.0508,2.94005 q 0,0.127 0,0.2413 -0.2159,0.1397 -0.3556,0.1397 l -0.0762,-0.0127 q -0.0635,-0.0318 -0.1016,-0.0508 -0.0318,-0.0127 -0.0889,-0.0889 -0.0572,-0.0699 -0.0762,-0.1016 -0.0191,-0.0318 -0.0889,-0.1397 -0.0635,-0.10795 -0.0889,-0.14605 -0.0254,-0.0444 -0.36195,-0.57785 -0.3302,-0.53975 -0.4191,-0.6731 -0.0889,-0.13335 -0.381,-0.56515 -0.28575,-0.4318 -0.45085,-0.64135 -0.48895,-0.6223 -0.9017,-1.0033 0.0318,0.83185 0.0318,1.778 0,0.94615 -0.0381,2.0193 -0.0762,0.1143 -0.42545,0.1143 0,-3.58775 -0.0254,-4.4196 0.12065,-0.1143 0.23495,-0.1143 0.1143,0 0.22225,0.0635 0.1651,0.1016 0.3683,0.3048 0.6731,0.6731 1.27,1.53035 0.60325,0.85725 1.3081,2.01295 z m 0.93979,-3.74015 q 0,-0.3048 2.1844,-0.3048 0.50165,0 1.28905,0.0444 0.7874,0.0381 0.8128,0.1143 -0.0127,0.28575 -0.52705,0.28575 -0.14605,0 -0.48895,-0.0318 -0.3429,-0.0318 -0.59055,-0.0318 -0.2413,0 -0.2413,0.10795 0,1.36525 -0.0635,4.07035 -0.13335,0.0953 -0.3937,0.0953 -0.006,-0.2794 -0.006,-0.66675 l 0.0318,-2.7432 q 0,-0.4953 -0.0127,-0.83185 -0.13335,-0.0127 -0.34925,-0.0127 -0.20955,0 -0.6604,0.0381 -0.45085,0.0318 -0.635,0.0318 -0.34925,0 -0.34925,-0.1651 z"
       id="text24"
       aria-label="KLIENT" />
  </g>
</svg>
