<?xml version="1.0" encoding="UTF-8" standalone="no"?>
<!-- Created with Inkscape (http://www.inkscape.org/) -->

<svg
   width="147.25829mm"
   height="49.876236mm"
   viewBox="0 0 147.25829 49.876236"
   version="1.1"
   id="svg1"
   inkscape:version="1.4.2 (f4327f4, 2025-05-13)"
   sodipodi:docname="kommunikasjonsmodell.svg"
   xmlns:inkscape="http://www.inkscape.org/namespaces/inkscape"
   xmlns:sodipodi="http://sodipodi.sourceforge.net/DTD/sodipodi-0.dtd"
   xmlns="http://www.w3.org/2000/svg"
   xmlns:svg="http://www.w3.org/2000/svg">
  <sodipodi:namedview
     id="namedview1"
     pagecolor="#ffffff"
     bordercolor="#000000"
     borderopacity="0.25"
     inkscape:showpageshadow="2"
     inkscape:pageopacity="0.0"
     inkscape:pagecheckerboard="0"
     inkscape:deskcolor="#d1d1d1"
     inkscape:document-units="mm"
     inkscape:zoom="1.3984406"
     inkscape:cx="319.28422"
     inkscape:cy="154.45776"
     inkscape:window-width="3440"
     inkscape:window-height="1417"
     inkscape:window-x="1912"
     inkscape:window-y="-8"
     inkscape:window-maximized="1"
     inkscape:current-layer="layer1" />
  <defs
     id="defs1">
    <inkscape:path-effect
       effect="fillet_chamfer"
       id="path-effect33"
       is_visible="true"
       lpeversion="1"
       nodesatellites_param="F,0,0,1,0,0,0,1 @ F,0,0,1,0,4.9270409,0,1 @ F,0,1,1,0,4.9270409,0,1 @ F,0,0,1,0,0,0,1"
       radius="0"
       unit="px"
       method="auto"
       mode="F"
       chamfer_steps="1"
       flexible="false"
       use_knot_distance="true"
       apply_no_radius="true"
       apply_with_radius="true"
       only_selected="false"
       hide_knots="false" />
    <inkscape:path-effect
       effect="fillet_chamfer"
       id="path-effect31"
       is_visible="true"
       lpeversion="1"
       nodesatellites_param="F,0,0,1,0,0,0,1 @ F,0,0,1,0,0,0,1 @ F,0,0,1,0,0,0,1 @ F,0,0,1,0,0,0,1"
       radius="0"
       unit="px"
       method="auto"
       mode="F"
       chamfer_steps="1"
       flexible="false"
       use_knot_distance="true"
       apply_no_radius="true"
       apply_with_radius="true"
       only_selected="false"
       hide_knots="false" />
    <inkscape:path-effect
       effect="fillet_chamfer"
       id="path-effect30"
       is_visible="true"
       lpeversion="1"
       nodesatellites_param="F,0,0,1,0,0,0,1 @ F,0,0,1,0,4.9270409,0,1 @ F,0,1,1,0,4.9270409,0,1 @ F,0,0,1,0,0,0,1"
       radius="0"
       unit="px"
       method="auto"
       mode="F"
       chamfer_steps="1"
       flexible="false"
       use_knot_distance="true"
       apply_no_radius="true"
       apply_with_radius="true"
       only_selected="false"
       hide_knots="false" />
    <inkscape:path-effect
       effect="fillet_chamfer"
       id="path-effect29"
       is_visible="true"
       lpeversion="1"
       nodesatellites_param="F,0,0,1,0,0,0,1 @ F,0,0,1,0,0,0,1 @ F,0,0,1,0,0,0,1 @ F,0,0,1,0,0,0,1"
       radius="0"
       unit="px"
       method="auto"
       mode="F"
       chamfer_steps="1"
       flexible="false"
       use_knot_distance="true"
       apply_no_radius="true"
       apply_with_radius="true"
       only_selected="false"
       hide_knots="false" />
    <inkscape:path-effect
       effect="fillet_chamfer"
       id="path-effect21"
       is_visible="true"
       lpeversion="1"
       nodesatellites_param="F,0,1,1,0,9.2310722,0,1 @ F,0,1,1,0,9.2310722,0,1 @ F,0,0,1,0,0,0,1 @ F,0,0,1,0,0,0,1 @ F,0,0,1,0,0,0,1 @ F,0,0,1,0,0,0,1 @ F,0,0,1,0,0,0,1 @ F,0,0,1,0,0,0,1 @ F,0,0,1,0,9.2310722,0,1"
       radius="0"
       unit="px"
       method="auto"
       mode="F"
       chamfer_steps="1"
       flexible="false"
       use_knot_distance="true"
       apply_no_radius="true"
       apply_with_radius="true"
       only_selected="false"
       hide_knots="false" />
    <inkscape:path-effect
       effect="fillet_chamfer"
       id="path-effect19"
       is_visible="true"
       lpeversion="1"
       nodesatellites_param="F,0,1,1,0,9.2310722,0,1 @ F,0,1,1,0,9.2310722,0,1 @ F,0,0,1,0,0,0,1 @ F,0,0,1,0,0,0,1 @ F,0,0,1,0,0,0,1 @ F,0,0,1,0,0,0,1 @ F,0,0,1,0,0,0,1 @ F,0,0,1,0,0,0,1 @ F,0,0,1,0,9.2310722,0,1"
       radius="0"
       unit="px"
       method="auto"
       mode="F"
       chamfer_steps="1"
       flexible="false"
       use_knot_distance="true"
       apply_no_radius="true"
       apply_with_radius="true"
       only_selected="false"
       hide_knots="false" />
    <inkscape:path-effect
       effect="fillet_chamfer"
       id="path-effect18"
       is_visible="true"
       lpeversion="1"
       nodesatellites_param="F,0,0,1,0,0,0,1 @ F,0,0,1,0,0,0,1 @ F,0,0,1,0,0,0,1 @ F,0,0,1,0,0,0,1 @ F,0,0,1,0,0,0,1 @ F,0,0,1,0,0,0,1 @ F,0,0,1,0,0,0,1 @ F,0,0,1,0,0,0,1 @ F,0,0,1,0,0,0,1 @ F,0,0,1,0,0,0,1 @ F,0,0,1,0,0,0,1 @ F,0,0,1,0,0,0,1"
       radius="0"
       unit="px"
       method="auto"
       mode="F"
       chamfer_steps="1"
       flexible="false"
       use_knot_distance="true"
       apply_no_radius="true"
       apply_with_radius="true"
       only_selected="false"
       hide_knots="false" />
  </defs>
  <g
     inkscape:label="Layer 1"
     inkscape:groupmode="layer"
     id="layer1"
     transform="translate(-25.84292,-110.20716)">
    <path
       id="path31"
       style="fill:#fff6d5;stroke-width:1.7;stroke-linecap:round;stroke-linejoin:round;paint-order:fill markers stroke"
       d="m 130.74878,122.76962 h 30.52566 a 4.9270409,4.9270409 45 0 1 4.92704,4.92704 v 8.19852 a 4.9270409,4.9270409 135 0 1 -4.92704,4.92704 h -30.52566 z"
       sodipodi:nodetypes="ccccc"
       inkscape:path-effect="#path-effect33"
       inkscape:original-d="m 130.74878,122.76962 h 35.4527 v 18.0526 h -35.4527 z"
       transform="matrix(-1,0,0,1,192.0444,0)" />
    <path
       d="m 118.78448,117.83622 c -1.41519,-1.41685 -3.14592,-2.90556 -5.03587,-4.18786 v 14.61151 c 7.93659,-0.33458 13.60378,0.8444 17,3.53674 v -9.02684 c -0.001,-10e-6 -0.003,0 -0.004,0 -1.76982,-0.006 -3.43536,-0.24118 -4.99762,-0.70384 -0.13787,-0.0408 -0.26838,-0.0977 -0.40463,-0.14211 -0.89439,-0.29134 -1.76061,-0.64481 -2.58537,-1.08934 -0.16427,-0.0885 -0.3196,-0.19684 -0.48111,-0.29145 -0.30361,-0.17786 -0.60996,-0.34998 -0.90382,-0.54932 -0.22225,-0.15075 -0.43342,-0.32583 -0.65009,-0.48886 -0.22349,-0.16818 -0.45218,-0.32466 -0.66973,-0.50591 -0.2141,-0.17837 -0.41693,-0.38155 -0.62528,-0.57258 -0.20413,-0.18717 -0.41427,-0.36137 -0.61288,-0.56069 -0.01,-0.01 -0.0196,-0.0196 -0.0295,-0.0294 z"
       style="fill:#fff6d5;stroke-width:1.7;stroke-linecap:round;stroke-linejoin:round;paint-order:fill markers stroke"
       id="path29" />
    <path
       d="m 87.462362,110.20723 c -3.055948,0.0203 -6.294598,1.49271 -9.166366,3.44113 v 14.61151 H 113.7481 c 0,0 5.1e-4,0 5.1e-4,0 v -14.61151 c -2.89187,-1.9621 -6.1562,-3.44113 -9.23096,-3.44113 a 6.5273538,6.5273538 0 0 1 -5.2e-4,0 H 87.52644 c -0.02133,0 -0.04273,-1.5e-4 -0.06408,0 z"
       style="fill:#fff6d5;stroke-width:1.7;stroke-linecap:round;stroke-linejoin:round;paint-order:fill markers stroke"
       id="path28" />
    <path
       d="m 78.295996,128.25987 v -14.61151 c -1.903137,1.29123 -3.645203,2.7916 -5.065841,4.21731 -0.184097,0.18476 -0.379081,0.34555 -0.567924,0.51987 -0.220882,0.20387 -0.437184,0.41812 -0.664558,0.60771 -0.190787,0.1591 -0.391688,0.2959 -0.587045,0.44494 -0.243752,0.18594 -0.482938,0.38162 -0.733805,0.5519 -0.231496,0.15716 -0.474029,0.28974 -0.711585,0.43357 -0.224767,0.13607 -0.444185,0.28411 -0.674377,0.40824 -0.29409,0.15861 -0.60036,0.29031 -0.903304,0.42943 -0.185849,0.0853 -0.365307,0.18451 -0.554488,0.26252 -0.326127,0.13449 -0.664942,0.24127 -1.000973,0.35398 -0.177838,0.0596 -0.349588,0.13301 -0.5302,0.18655 -0.323147,0.0958 -0.65861,0.16455 -0.990637,0.24082 -0.204413,0.0469 -0.402521,0.10772 -0.610299,0.14727 -1.088968,0.20729 -2.224049,0.31338 -3.405477,0.3173 v 9.02684 c 3.396376,-2.69237 9.062976,-3.87146 16.999996,-3.53674 z"
       style="fill:#fff6d5;stroke-width:1.7;stroke-linecap:round;stroke-linejoin:round;paint-order:fill markers stroke"
       id="path27" />
    <path
       d="m 113.74861,135.33334 v 14.61151 c 1.90302,-1.29118 3.64476,-2.79167 5.06533,-4.21731 0.57523,-0.57729 1.18196,-1.08528 1.8035,-1.56063 0.1803,-0.13788 0.35893,-0.27946 0.54312,-0.40876 0.14721,-0.10334 0.29576,-0.20393 0.44545,-0.30179 0.28591,-0.18691 0.57731,-0.36172 0.8723,-0.52865 0.13956,-0.079 0.27699,-0.16269 0.41858,-0.23719 0.43284,-0.22775 0.87264,-0.43985 1.32447,-0.62581 0.021,-0.009 0.043,-0.0152 0.0641,-0.0238 0.41263,-0.16772 0.83611,-0.31193 1.26452,-0.44493 0.72425,-0.22482 1.47391,-0.39376 2.24327,-0.51935 0.16514,-0.027 0.33301,-0.0479 0.50023,-0.0703 0.79622,-0.1066 1.60766,-0.17998 2.45101,-0.18293 10e-4,0 0.003,1e-5 0.004,0 v -9.02633 c -1.27365,1.00959 -2.86689,1.80612 -4.77904,2.39004 -3.187,0.97331 -7.26064,1.35528 -12.22096,1.14618 z"
       style="fill:#fff6d5;stroke-width:1.7;stroke-linecap:round;stroke-linejoin:round;paint-order:fill markers stroke"
       id="path26" />
    <path
       d="m 78.295996,135.33334 v 14.61151 c 2.83703,1.92486 6.031987,3.38494 9.055261,3.43959 h 17.341573 c 3.02339,-0.0547 6.21868,-1.51463 9.05578,-3.43959 v -14.61151 c 0,0 -5.1e-4,0 -5.1e-4,0 z"
       style="fill:#fff6d5;stroke-width:1.7;stroke-linecap:round;stroke-linejoin:round;paint-order:fill markers stroke"
       id="path25" />
    <path
       d="m 61.295483,131.79661 v 9.02684 c 1.181969,0.004 2.317603,0.10982 3.407028,0.31729 0.190682,0.0363 0.372324,0.0928 0.560172,0.13539 0.347847,0.0788 0.698503,0.15149 1.036629,0.25167 0.214907,0.0637 0.419472,0.1499 0.630453,0.2222 0.301487,0.10333 0.607251,0.19736 0.90072,0.31833 0.196136,0.0808 0.382604,0.1831 0.575159,0.27182 0.296535,0.13664 0.596659,0.26532 0.8847,0.42065 0.195799,0.10557 0.381734,0.23305 0.573609,0.34726 0.273785,0.16298 0.551209,0.3176 0.817004,0.49816 0.220076,0.14949 0.42929,0.32267 0.643888,0.48421 0.224432,0.16896 0.45387,0.32687 0.672311,0.50901 0.224853,0.18748 0.438819,0.39956 0.657324,0.601 0.191509,0.17657 0.389042,0.3398 0.575675,0.5271 1.420637,1.42571 3.162707,2.92608 5.065841,4.21731 v -14.61151 h -5.17e-4 c -7.93702,0.33473 -13.60362,-0.84436 -16.999996,-3.53673 z"
       style="fill:#fff6d5;stroke-width:1.7;stroke-linecap:round;stroke-linejoin:round;paint-order:fill markers stroke"
       id="path24" />
    <text
       xml:space="preserve"
       style="font-size:5.46806px;line-height:1;font-family:Montserrat;-inkscape-font-specification:Montserrat;text-align:end;letter-spacing:0px;writing-mode:lr-tb;direction:ltr;text-anchor:end;fill:none;stroke:#1a1a1a;stroke-width:1.7;stroke-linecap:round;stroke-linejoin:round;paint-order:fill markers stroke"
       x="52.710808"
       y="130.57297"
       id="text1"><tspan
         sodipodi:role="line"
         id="tspan1"
         style="stroke-width:1.7"
         x="52.710808"
         y="130.57297" /></text>
    <text
       xml:space="preserve"
       style="font-size:5.46806px;line-height:1;font-family:Montserrat;-inkscape-font-specification:Montserrat;text-align:end;letter-spacing:0px;writing-mode:lr-tb;direction:ltr;text-anchor:end;fill:none;stroke:#1a1a1a;stroke-width:1.7;stroke-linecap:round;stroke-linejoin:round;paint-order:fill markers stroke"
       x="56.456757"
       y="133.8109"
       id="text2"><tspan
         sodipodi:role="line"
         id="tspan2"
         style="fill:#000000;stroke:none;stroke-width:1.7"
         x="56.456757"
         y="133.8109">Avsender</tspan></text>
    <text
       xml:space="preserve"
       style="font-size:5.46806px;line-height:1;font-family:Montserrat;-inkscape-font-specification:Montserrat;text-align:end;letter-spacing:0px;writing-mode:lr-tb;direction:ltr;text-anchor:end;fill:none;stroke:#1a1a1a;stroke-width:1.7;stroke-linecap:round;stroke-linejoin:round;paint-order:fill markers stroke"
       x="107.99725"
       y="120.73199"
       id="text3"><tspan
         sodipodi:role="line"
         id="tspan3"
         style="fill:#000000;stroke:none;stroke-width:1.7"
         x="107.99725"
         y="120.73199">Budskap</tspan></text>
    <text
       xml:space="preserve"
       style="font-size:5.46806px;line-height:1;font-family:Montserrat;-inkscape-font-specification:Montserrat;text-align:end;letter-spacing:0px;writing-mode:lr-tb;direction:ltr;text-anchor:end;fill:#000000;stroke:none;stroke-width:1.7;stroke-linecap:round;stroke-linejoin:round;paint-order:fill markers stroke"
       x="107.55708"
       y="146.37308"
       id="text4"><tspan
         sodipodi:role="line"
         id="tspan4"
         style="stroke-width:1.7"
         x="107.55708"
         y="146.37308">Medium</tspan></text>
    <path
       id="rect6-2"
       style="fill:#fff6d5;stroke-width:1.7;stroke-linecap:round;stroke-linejoin:round;paint-order:fill markers stroke"
       d="m 130.74878,122.76962 h 30.52566 a 4.9270409,4.9270409 45 0 1 4.92704,4.92704 v 8.19852 a 4.9270409,4.9270409 135 0 1 -4.92704,4.92704 h -30.52566 z"
       sodipodi:nodetypes="ccccc"
       inkscape:path-effect="#path-effect30"
       inkscape:original-d="m 130.74878,122.76962 h 35.4527 v 18.0526 h -35.4527 z" />
    <text
       xml:space="preserve"
       style="font-size:5.46806px;line-height:1;font-family:Montserrat;-inkscape-font-specification:Montserrat;text-align:end;letter-spacing:0px;writing-mode:lr-tb;direction:ltr;text-anchor:end;fill:#000000;stroke:none;stroke-width:1.7;stroke-linecap:round;stroke-linejoin:round;paint-order:fill markers stroke"
       x="160.65796"
       y="133.81091"
       id="text5"><tspan
         sodipodi:role="line"
         id="tspan5"
         style="stroke-width:1.7"
         x="160.65796"
         y="133.81091">Mottaker</tspan></text>
    <text
       xml:space="preserve"
       style="font-size:5.46806px;line-height:1;font-family:Montserrat;-inkscape-font-specification:Montserrat;text-align:end;letter-spacing:0px;writing-mode:lr-tb;direction:ltr;text-anchor:end;fill:#000000;stroke:none;stroke-width:1.7;stroke-linecap:round;stroke-linejoin:round;paint-order:fill markers stroke"
       x="138.81725"
       y="154.7706"
       id="text6"><tspan
         sodipodi:role="line"
         id="tspan6"
         style="stroke-width:1.7"
         x="138.81725"
         y="154.7706">Støy</tspan></text>
    <g
       id="path33"
       style="opacity:1;fill:#1a1a1a">
      <g
         id="g42"
         style="fill:#1a1a1a">
        <path
           d="m 73.571586,139.52747 5.269845,2.26328 -5.492717,1.65038 c 1.043327,-1.08413 1.136097,-2.71319 0.222872,-3.91366 z"
           style="baseline-shift:baseline;display:inline;overflow:visible;vector-effect:none;fill:#1a1a1a;fill-rule:evenodd;enable-background:accumulate;stop-color:#000000;stop-opacity:1"
           id="path42" />
      </g>
      <path
         style="baseline-shift:baseline;display:inline;overflow:visible;vector-effect:none;fill:#1a1a1a;stroke-linecap:round;stroke-linejoin:round;paint-order:fill markers stroke;enable-background:accumulate;stop-color:#000000;stop-opacity:1"
         d="m 61.119141,136.61133 a 0.34999999,0.34999999 0 0 0 -0.369141,0.33008 0.34999999,0.34999999 0 0 0 0.332031,0.36914 c 2.078765,0.11167 3.19515,0.41103 3.873047,0.77343 0.677897,0.36241 0.954247,0.7943 1.392578,1.31641 0.438332,0.52211 1.031944,1.09443 2.216797,1.53906 1.184853,0.44463 2.959764,0.78443 5.853516,0.94922 a 0.34999999,0.34999999 0 0 0 0.36914,-0.32812 0.34999999,0.34999999 0 0 0 -0.328125,-0.36914 c -2.854908,-0.16258 -4.570163,-0.50162 -5.648437,-0.90625 -1.078274,-0.40464 -1.521177,-0.85168 -1.927735,-1.33594 -0.406557,-0.48426 -0.781606,-1.04616 -1.597656,-1.48242 -0.81605,-0.43627 -2.034479,-0.74096 -4.166015,-0.85547 z"
         id="path43" />
    </g>
    <g
       id="path35"
       style="opacity:1;fill:#1a1a1a">
      <g
         id="g40"
         style="fill:#1a1a1a">
        <path
           d="m 73.348714,120.15071 5.492717,1.65038 -5.269845,2.26328 c 0.913503,-1.19557 0.820733,-2.82463 -0.222872,-3.91366 z"
           style="baseline-shift:baseline;display:inline;overflow:visible;vector-effect:none;fill:#1a1a1a;fill-rule:evenodd;enable-background:accumulate;stop-color:#000000;stop-opacity:1"
           id="path40" />
      </g>
      <path
         style="baseline-shift:baseline;display:inline;overflow:visible;vector-effect:none;fill:#1a1a1a;stroke-linecap:round;stroke-linejoin:round;paint-order:fill markers stroke;enable-background:accumulate;stop-color:#000000;stop-opacity:1"
         d="m 74.417969,121.70313 c -2.893752,0.16479 -4.668663,0.50458 -5.853516,0.94921 -1.184853,0.44463 -1.778465,1.01696 -2.216797,1.53907 -0.438331,0.5221 -0.714681,0.95399 -1.392578,1.3164 -0.677897,0.36241 -1.794282,0.66176 -3.873047,0.77344 a 0.34999999,0.34999999 0 0 0 -0.332031,0.36914 0.34999999,0.34999999 0 0 0 0.369141,0.33008 c 2.131536,-0.11451 3.349965,-0.4192 4.166015,-0.85547 0.81605,-0.43627 1.191099,-0.99816 1.597656,-1.48242 0.406558,-0.48426 0.849461,-0.9313 1.927735,-1.33594 1.078274,-0.40463 2.793529,-0.74367 5.648437,-0.90625 a 0.34999999,0.34999999 0 0 0 0.328125,-0.36914 0.34999999,0.34999999 0 0 0 -0.36914,-0.32812 z"
         id="path41" />
    </g>
    <g
       id="path38"
       style="opacity:1;fill:#1a1a1a">
      <g
         id="g46"
         style="fill:#1a1a1a">
        <path
           d="m 126.02446,123.06718 5.26985,2.26328 -5.49272,1.65038 c 1.04333,-1.08413 1.1361,-2.71319 0.22287,-3.91366 z"
           style="baseline-shift:baseline;display:inline;overflow:visible;vector-effect:none;fill:#1a1a1a;fill-rule:evenodd;enable-background:accumulate;stop-color:#000000;stop-opacity:1"
           id="path46" />
      </g>
      <path
         style="baseline-shift:baseline;display:inline;overflow:visible;vector-effect:none;fill:#1a1a1a;stroke-linecap:round;stroke-linejoin:round;paint-order:fill markers stroke;enable-background:accumulate;stop-color:#000000;stop-opacity:1"
         d="m 113.57227,120.15039 a 0.34999999,0.34999999 0 0 0 -0.36914,0.33203 0.34999999,0.34999999 0 0 0 0.33007,0.36719 c 2.07877,0.11167 3.19711,0.41103 3.875,0.77344 0.6779,0.3624 0.95425,0.7943 1.39258,1.3164 0.43833,0.52211 1.03194,1.09444 2.2168,1.53907 1.18485,0.44463 2.95976,0.78638 5.85351,0.95117 a 0.34999999,0.34999999 0 0 0 0.36914,-0.33008 0.34999999,0.34999999 0 0 0 -0.32812,-0.36914 c -2.85491,-0.16258 -4.57016,-0.50162 -5.64844,-0.90625 -1.07827,-0.40464 -1.52117,-0.84973 -1.92773,-1.33399 -0.40656,-0.48426 -0.78161,-1.04811 -1.59766,-1.48437 -0.81605,-0.43627 -2.03448,-0.74096 -4.16601,-0.85547 z"
         id="path47" />
    </g>
    <g
       id="path39"
       style="opacity:1;fill:#1a1a1a">
      <g
         id="g44"
         style="fill:#1a1a1a">
        <path
           d="m 125.80159,136.611 5.49272,1.65038 -5.26985,2.26328 c 0.9135,-1.19557 0.82073,-2.82463 -0.22287,-3.91366 z"
           style="baseline-shift:baseline;display:inline;overflow:visible;vector-effect:none;fill:#1a1a1a;fill-rule:evenodd;enable-background:accumulate;stop-color:#000000;stop-opacity:1"
           id="path44" />
      </g>
      <path
         style="baseline-shift:baseline;display:inline;overflow:visible;vector-effect:none;fill:#1a1a1a;stroke-linecap:round;stroke-linejoin:round;paint-order:fill markers stroke;enable-background:accumulate;stop-color:#000000;stop-opacity:1"
         d="m 126.87109,138.16211 c -2.89375,0.16479 -4.66866,0.50654 -5.85351,0.95117 -1.18486,0.44463 -1.77847,1.01696 -2.2168,1.53906 -0.43833,0.52211 -0.71468,0.954 -1.39258,1.31641 -0.67789,0.36241 -1.79623,0.66176 -3.875,0.77344 a 0.34999999,0.34999999 0 0 0 -0.33007,0.36718 0.34999999,0.34999999 0 0 0 0.36914,0.33204 c 2.13153,-0.11451 3.34996,-0.41921 4.16601,-0.85547 0.81605,-0.43627 1.1911,-0.99816 1.59766,-1.48242 0.40656,-0.48426 0.84946,-0.93131 1.92773,-1.33594 1.07828,-0.40464 2.79353,-0.74367 5.64844,-0.90625 a 0.34999999,0.34999999 0 0 0 0.32812,-0.36914 0.34999999,0.34999999 0 0 0 -0.36914,-0.33008 z"
         id="path45" />
    </g>
    <path
       d="m 172.75121,130.27577 a 65.088776,32.699841 0 0 0 -44.2035,-8.69766 65.088776,32.699841 0 0 0 -64.767624,29.45763 65.088776,32.699841 0 0 0 44.202984,8.69766 65.088776,32.699841 0 0 0 64.76814,-29.45763 z"
       style="fill:none;stroke:#ff0000;stroke-width:0.7;stroke-linecap:round;stroke-linejoin:round;stroke-dasharray:1, 1;paint-order:fill markers stroke"
       id="path49" />
  </g>
</svg>
