<?xml version="1.0" encoding="UTF-8" standalone="no"?>
<!-- Created with Inkscape (http://www.inkscape.org/) -->

<svg
   width="135.71172mm"
   height="171.52884mm"
   viewBox="0 0 135.71172 171.52883"
   version="1.1"
   id="svg1"
   xml:space="preserve"
   inkscape:version="1.4.2 (f4327f4, 2025-05-13)"
   sodipodi:docname="designprosessen.svg"
   xmlns:inkscape="http://www.inkscape.org/namespaces/inkscape"
   xmlns:sodipodi="http://sodipodi.sourceforge.net/DTD/sodipodi-0.dtd"
   xmlns="http://www.w3.org/2000/svg"
   xmlns:svg="http://www.w3.org/2000/svg"><sodipodi:namedview
     id="namedview1"
     pagecolor="#ffffff"
     bordercolor="#000000"
     borderopacity="0.25"
     inkscape:showpageshadow="2"
     inkscape:pageopacity="0.0"
     inkscape:pagecheckerboard="0"
     inkscape:deskcolor="#d1d1d1"
     inkscape:document-units="mm"
     showguides="true"
     inkscape:zoom="0.96924802"
     inkscape:cx="215.63108"
     inkscape:cy="248.64637"
     inkscape:window-width="1920"
     inkscape:window-height="1171"
     inkscape:window-x="-9"
     inkscape:window-y="-9"
     inkscape:window-maximized="1"
     inkscape:current-layer="layer1"><sodipodi:guide
       position="169.33981,23.919567"
       orientation="1,0"
       id="guide2"
       inkscape:locked="false" /><sodipodi:guide
       position="169.33982,24.907423"
       orientation="0,-1"
       id="guide3"
       inkscape:locked="false" /><inkscape:page
       x="0"
       y="0"
       width="135.71173"
       height="171.52882"
       id="page1"
       margin="0"
       bleed="0" /></sodipodi:namedview><defs
     id="defs1"><inkscape:path-effect
       effect="roughen"
       id="path-effect22"
       is_visible="true"
       lpeversion="1.2"
       global_randomize="1;1"
       displace_x="0.0559771;1"
       displace_y="0.9;1"
       method="size"
       max_segment_size="1"
       segments="2"
       handles="along"
       shift_nodes="true"
       fixed_displacement="false"
       spray_tool_friendly="false" /><inkscape:path-effect
       effect="roughen"
       id="path-effect21"
       is_visible="true"
       lpeversion="1.2"
       global_randomize="1;1"
       displace_x="0.0823585;1"
       displace_y="0.106805;1"
       method="size"
       max_segment_size="0.247075"
       segments="2"
       handles="along"
       shift_nodes="true"
       fixed_displacement="false"
       spray_tool_friendly="false" /><inkscape:path-effect
       effect="roughen"
       id="path-effect22-1"
       is_visible="true"
       lpeversion="1.2"
       global_randomize="1;1"
       displace_x="0.0559771;1"
       displace_y="0.9;1977933676"
       method="size"
       max_segment_size="1"
       segments="3"
       handles="along"
       shift_nodes="true"
       fixed_displacement="false"
       spray_tool_friendly="false" /><inkscape:path-effect
       effect="roughen"
       id="path-effect22-1-7"
       is_visible="true"
       lpeversion="1.2"
       global_randomize="1;1"
       displace_x="0.0559771;1"
       displace_y="0.9;1589339349"
       method="size"
       max_segment_size="1"
       segments="3"
       handles="along"
       shift_nodes="true"
       fixed_displacement="false"
       spray_tool_friendly="false" /><inkscape:path-effect
       effect="roughen"
       id="path-effect22-1-7-8"
       is_visible="true"
       lpeversion="1.2"
       global_randomize="1;1"
       displace_x="0.0559771;1"
       displace_y="0.9;81908378"
       method="size"
       max_segment_size="1"
       segments="3"
       handles="along"
       shift_nodes="true"
       fixed_displacement="false"
       spray_tool_friendly="false" /><inkscape:path-effect
       effect="roughen"
       id="path-effect22-1-7-8-6"
       is_visible="true"
       lpeversion="1.2"
       global_randomize="1;1"
       displace_x="0.0559771;1"
       displace_y="0.9;455591877"
       method="size"
       max_segment_size="1"
       segments="3"
       handles="along"
       shift_nodes="true"
       fixed_displacement="false"
       spray_tool_friendly="false" /></defs><g
     inkscape:label="Layer 1"
     inkscape:groupmode="layer"
     id="layer1"
     transform="translate(-26.112317,9.9261478)"><path
       d="m 126.20657,73.321681 -0.66146,0.171049 -3.77548,0.976167 a 1.1661166,1.1661166 0 0 1 -1.10949,-0.296622 l -4.02921,-3.956865 a 1.1661166,1.1661166 0 0 1 -0.29301,-1.191658 c 0.38519,-1.189977 0.80893,-2.360144 1.26969,-3.50883 A 53.162453,53.162453 0 0 0 89.261023,55.459205 l 2.300118,4.619873 a 1.1661166,1.1661166 0 0 1 -0.06046,1.146183 l -3.995621,6.269385 -0.377238,0.592212 a 40.359131,40.359131 0 0 1 36.964148,25.75554 l 1.48156,0.38292 3.58686,0.92707 3.77497,0.97617 4.02974,-3.956862 A 53.162453,53.162453 0 0 0 126.20657,73.321681 Z"
       style="opacity:0.5;fill:#a5bde5;stroke-width:0.132292;stroke-linecap:round;stroke-linejoin:round;stroke-dasharray:1, 3;paint-order:markers stroke fill"
       id="path4" /><path
       d="m 161.82403,45.760055 -2.00091,-12.530501 c -19.81325,3.094401 -36.19936,17.074584 -42.37519,36.153349 l 4.02973,3.956864 3.77496,-0.976167 3.58686,-0.927076 1.48157,-0.382922 c 5.22166,-13.458546 17.2341,-23.10326 31.50298,-25.293547 z"
       style="opacity:0.5;fill:#a5bde5;stroke-width:0.132292;stroke-linecap:round;stroke-linejoin:round;stroke-dasharray:1, 3;paint-order:markers stroke fill"
       id="path5"
       sodipodi:nodetypes="cccccccc" /><path
       d="m 82.635244,55.423907 c -1.087403,3.811902 -2.604009,7.54442 -4.557344,11.126969 a 1.2661266,1.2661266 0 0 1 -2.167827,0.08992 l -3.046842,-4.629175 -7.373193,0.302824 -0.29869,0.01344 a 1.2661266,1.2661266 0 0 1 -1.142566,-1.907894 c 0.03595,-0.06103 0.0719,-0.12229 0.107487,-0.183451 A 53.162453,53.162453 0 0 0 36.481472,90.642429 l 5.536613,-0.824239 a 1.1661166,1.1661166 0 0 1 0.149345,-0.0124 1.1661166,1.1661166 0 0 1 0.921908,0.424263 l 4.728393,5.737634 0.19017,0.230994 a 40.359131,40.359131 0 0 1 38.458117,-28.117147 40.359131,40.359131 0 0 0 -1.238684,0.01912 40.359131,40.359131 0 0 0 -0.895552,0.03721 l 0.762744,-1.197343 1.990576,-3.124874 2.094446,-3.288688 -2.614311,-5.248776 a 53.162453,53.162453 0 0 0 -0.09922,0 53.162453,53.162453 0 0 0 -3.830774,0.145728 z"
       style="opacity:0.5;fill:#a5bde5;stroke-width:0.132292;stroke-linecap:round;stroke-linejoin:round;stroke-dasharray:1, 3;paint-order:markers stroke fill"
       id="path6" /><path
       d="M 54.372353,-9.8522375 C 91.70084,7.288959 87.815222,45.453301 77.064001,65.171766 L 73.985219,60.49679 c -0.02753,-0.04174 -0.05772,-0.08167 -0.09038,-0.119534 -0.232434,-0.269675 -0.575327,-0.418396 -0.931048,-0.403818 l -7.428682,0.304627 -0.298943,0.01241 C 74.898446,44.565529 75.887913,11.988578 46.59867,-1.0510322 l 1.000233,-3.567459 1.052988,-3.7541165 5.65427,-1.5535401 0.06619,0.07392 z"
       style="opacity:0.5;fill:#a5bde5;fill-opacity:1;stroke-width:0.132292;stroke-linecap:round;stroke-linejoin:round;stroke-dasharray:1, 3;paint-order:markers stroke fill"
       id="path35-8"
       sodipodi:nodetypes="ccccccccccccc" /><path
       d="m 53.588287,150.16567 0.924491,-5.5056 a 1.1661166,1.1661166 0 0 1 0.722953,-0.89194 l 6.917924,-2.72386 0.341065,-0.13436 a 40.359131,40.359131 0 0 1 -16.388147,-32.46934 40.359131,40.359131 0 0 1 1.894458,-12.217342 40.359131,40.359131 0 0 0 -0.590662,2.04122 40.359131,40.359131 0 0 0 -0.168465,0.66921 l -0.696598,-0.84491 -2.356963,-2.85874 -2.480468,-3.008602 -6.154663,0.917252 a 53.162453,53.162453 0 0 0 -2.249992,15.301912 53.162453,53.162453 0 0 0 20.285067,41.7251 z"
       style="opacity:0.5;fill:#a5bde5;fill-opacity:1;stroke-width:0.132292;stroke-linecap:round;stroke-linejoin:round;stroke-dasharray:1, 3;paint-order:markers stroke fill"
       id="path34" /><path
       d="m 115.57417,152.92571 -4.64003,-2.41897 a 1.1661166,1.1661166 0 0 1 -0.62529,-0.96273 l -0.45268,-7.42126 -0.046,-0.75964 a 40.359131,40.359131 0 0 1 -23.344314,7.43676 40.359131,40.359131 0 0 1 -23.971146,-7.88996 40.359131,40.359131 0 0 0 1.730643,1.20871 40.359131,40.359131 0 0 0 0.589628,0.38292 l -1.037146,0.40825 -3.446818,1.35857 -3.628202,1.42937 -1.004073,5.98568 a 53.162453,53.162453 0 0 0 30.767114,9.91929 53.162453,53.162453 0 0 0 29.108304,-8.67699 z"
       style="opacity:0.5;fill:#a5bde5;fill-opacity:1;stroke-width:0.132292;stroke-linecap:round;stroke-linejoin:round;stroke-dasharray:1, 3;paint-order:markers stroke fill"
       id="path33" /><path
       d="m 137.79606,94.624358 -3.69899,3.63079 a 1.1661166,1.1661166 0 0 1 -1.10846,0.29714 l -7.19801,-1.86294 -0.77618,-0.2005 a 40.359131,40.359131 0 0 1 1.81022,11.951722 40.359131,40.359131 0 0 1 -14.78308,31.22083 l 0.0915,1.49345 0.22634,3.69797 0.23823,3.89227 5.14698,2.682 a 53.162453,53.162453 0 0 0 21.88341,-42.98652 53.162453,53.162453 0 0 0 -1.83193,-13.816212 z"
       style="opacity:0.5;fill:#a5bde5;fill-opacity:1;stroke-width:0.132292;stroke-linecap:round;stroke-linejoin:round;stroke-dasharray:1, 3;paint-order:markers stroke fill"
       id="path32" /><path
       id="circle37"
       style="opacity:0.5;fill:none;stroke-width:2.332;stroke-linecap:round;stroke-linejoin:round;paint-order:markers stroke fill"
       d="M 95.797783,153.32373 A 45.843334,45.843334 0 0 1 41.582193,117.77247 45.843334,45.843334 0 0 1 77.133456,63.556879 45.843334,45.843334 0 0 1 131.34905,99.108148 45.843334,45.843334 0 0 1 95.797783,153.32373 Z" /><path
       style="font-weight:bold;font-size:3.52777px;line-height:1;font-family:'Open Sans';-inkscape-font-specification:'Open Sans Bold';letter-spacing:0px;fill:#333333;stroke-width:2.332;stroke-linecap:round;stroke-linejoin:round;paint-order:markers stroke fill"
       d="m 95.937432,155.87334 -0.77122,0.13965 q -0.49493,0.0896 -0.77434,-0.003 -0.27942,-0.0929 -0.34265,-0.44211 -0.0255,-0.14068 -2.8e-4,-0.26253 0.0235,-0.12155 0.0951,-0.20978 0.0715,-0.0882 0.1896,-0.13236 l -0.003,-0.017 q -0.12834,-0.003 -0.2397,-0.0476 -0.11105,-0.0429 -0.19186,-0.15081 -0.0822,-0.1059 -0.1175,-0.30083 -0.0408,-0.22543 0.0402,-0.4064 0.081,-0.18098 0.27045,-0.30456 0.18805,-0.12158 0.46942,-0.17253 l 0.92715,-0.1679 z m -0.70316,-0.88624 -0.3051,0.0552 q -0.22882,0.0414 -0.30407,0.12858 -0.0749,0.0888 -0.0495,0.22953 0.0258,0.14238 0.14192,0.18437 0.11475,0.044 0.34018,0.003 l 0.27628,-0.05 z m -0.0755,-0.41697 -0.11694,-0.64578 -0.34239,0.062 q -0.2373,0.043 -0.31394,0.15138 -0.0767,0.10841 -0.0487,0.26265 0.0166,0.0915 0.0698,0.15366 0.0533,0.0621 0.15693,0.0836 0.10198,0.0218 0.26978,-0.009 z m -3.443781,-0.58135 1.437811,-0.19052 0.33082,2.49653 -1.43782,0.19053 -0.0575,-0.43374 0.90845,-0.12038 -0.0726,-0.54814 -0.84527,0.112 -0.0575,-0.43373 0.84527,-0.11201 -0.0853,-0.64377 -0.908455,0.12038 z m -1.941306,0.88395 q -0.0199,-0.22304 0.07349,-0.3974 0.09339,-0.17435 0.293035,-0.28209 0.197926,-0.10759 0.493031,-0.13393 0.130395,-0.0116 0.257174,-0.006 0.125063,0.006 0.242926,0.0285 0.1163,0.0242 0.223683,0.0648 l 0.04409,0.49413 q -0.185479,-0.063 -0.383305,-0.10933 -0.197826,-0.0463 -0.386556,-0.0295 -0.130395,0.0116 -0.206256,0.053 -0.07758,0.0415 -0.108249,0.10477 -0.03067,0.0633 -0.02378,0.14048 0.0084,0.0944 0.07787,0.15561 0.06945,0.0613 0.18618,0.10963 0.115012,0.0485 0.259957,0.10305 0.09118,0.0334 0.199326,0.0825 0.108302,0.0509 0.208606,0.12838 0.100304,0.0775 0.171225,0.19398 0.06936,0.11832 0.08467,0.2899 0.02006,0.22476 -0.06865,0.39351 -0.08871,0.16874 -0.271649,0.26981 -0.184506,0.10293 -0.445297,0.1262 -0.195592,0.0175 -0.376446,-0.0131 -0.182416,-0.0287 -0.383948,-0.0972 l 0.134675,-0.4288 q 0.179565,0.0549 0.320192,0.0804 0.140779,0.0272 0.283185,0.0145 0.09951,-0.009 0.166948,-0.0478 0.06759,-0.0372 0.09841,-0.0987 0.03098,-0.0598 0.02424,-0.13533 -0.008,-0.0892 -0.06494,-0.14639 -0.05855,-0.0553 -0.168258,-0.10258 -0.111427,-0.0471 -0.27601,-0.10853 -0.200276,-0.0738 -0.344698,-0.16121 -0.145985,-0.0856 -0.231703,-0.21279 -0.08557,-0.12553 -0.103172,-0.32284 z m -0.51815,-0.66902 0.11597,2.51569 -0.533422,0.0246 -0.09566,-2.07519 -1.020385,0.047 -0.02031,-0.4405 z m -4.053473,2.59283 0.0078,-1.6295 q 0.0012,-0.2601 0.117646,-0.4697 0.114678,-0.20789 0.347801,-0.32908 0.2314,-0.1212 0.582795,-0.11953 0.499532,0.002 0.760143,0.25855 0.260611,0.25618 0.258611,0.67648 l -0.0077,1.62262 -0.53226,-0.003 0.0073,-1.54166 q 0.0015,-0.31178 -0.125385,-0.43813 -0.126869,-0.12635 -0.376635,-0.12754 -0.175697,-8.4e-4 -0.284503,0.0589 -0.110529,0.0598 -0.162803,0.18526 -0.05227,0.1255 -0.0532,0.32014 l -0.0073,1.53822 z m -1.574614,-2.60005 0.533148,0.03 -0.116339,2.07068 0.682773,0.0384 -0.02493,0.44372 -1.898694,-0.10668 0.02493,-0.44371 0.682773,0.0384 z m -3.290718,-0.31065 0.674603,0.0743 0.880396,2.01361 0.01541,0.002 q 0.0062,-0.1189 0.01422,-0.23932 0.0081,-0.12041 0.01613,-0.24083 0.0079,-0.11871 0.01594,-0.23913 l 0.129736,-1.17799 0.474277,0.0522 -0.275689,2.50322 -0.669467,-0.0737 -0.880757,-1.99459 -0.01199,-0.001 q -0.0094,0.1168 -0.0169,0.23209 -0.0075,0.11528 -0.01499,0.23056 -0.0092,0.1151 -0.01842,0.23019 l -0.130491,1.18484 -0.477701,-0.0526 z m -0.626264,-0.10183 -0.385582,2.48866 -0.527693,-0.0818 0.385582,-2.48866 z m -3.346011,-0.61311 0.665458,0.13332 0.699929,2.08323 0.0152,0.003 q 0.01659,-0.1179 0.03521,-0.23714 0.01862,-0.11924 0.03724,-0.23849 0.01828,-0.11755 0.0369,-0.23679 l 0.232813,-1.16202 0.467847,0.0937 -0.494729,2.46929 -0.66039,-0.13231 -0.701962,-2.06431 -0.01182,-0.002 q -0.01963,0.11553 -0.03724,0.2297 -0.01761,0.11418 -0.03521,0.22836 -0.01929,0.11383 -0.03859,0.22767 l -0.234167,1.16878 -0.471225,-0.0944 z m -1.90118,0.97738 -0.966293,-0.25383 0.331731,-1.26284 q 0.208223,-0.013 0.424875,0.003 0.216215,0.0176 0.477781,0.0863 0.363192,0.0954 0.578791,0.30521 0.215598,0.20979 0.27369,0.52426 0.05809,0.31447 -0.04913,0.72264 -0.100657,0.38319 -0.32079,0.62457 -0.2218,0.24094 -0.545286,0.31981 -0.325153,0.0784 -0.734994,-0.0292 -0.193259,-0.0508 -0.370578,-0.14187 -0.17732,-0.0911 -0.313088,-0.19801 l 0.280135,-0.36809 q 0.09674,0.086 0.229955,0.16192 0.133213,0.076 0.289819,0.11709 0.224913,0.0591 0.418649,-4.5e-4 0.192069,-0.06 0.332716,-0.22249 0.138543,-0.16129 0.204627,-0.41286 0.06258,-0.23824 0.04618,-0.44024 -0.01683,-0.20033 -0.129209,-0.34205 -0.112812,-0.14006 -0.337725,-0.19914 -0.109957,-0.0289 -0.187554,-0.0386 -0.0797,-0.008 -0.149405,-0.0143 l -0.13348,0.50813 0.461488,0.12123 z"
       id="text37"
       aria-label="BESLUTNING" /><path
       d="m 131.29957,118.02885 0.62357,-0.0619 0.17943,-0.90042 -0.55221,-0.29622 0.11244,-0.56423 2.30623,1.36588 -0.12759,0.64026 -2.65431,0.38088 z m 1.0877,-0.0994 0.61006,-0.0646 c 0.0405,-0.003 0.0926,-0.009 0.15606,-0.0163 0.0644,-0.006 0.12948,-0.0124 0.19525,-0.0191 0.0667,-0.005 0.1242,-0.009 0.17261,-0.0113 -0.0439,-0.0205 -0.0982,-0.0477 -0.16288,-0.0816 -0.0637,-0.0326 -0.12423,-0.064 -0.18148,-0.0941 -0.0572,-0.0301 -0.098,-0.0517 -0.12233,-0.0648 l -0.53903,-0.29184 z m -1.83656,3.13484 0.17088,-0.65681 2.1196,-0.58055 0.004,-0.015 c -0.0778,-0.0155 -0.15609,-0.0317 -0.23475,-0.0486 -0.0787,-0.0169 -0.15733,-0.0338 -0.23599,-0.0507 -0.0776,-0.0166 -0.15566,-0.0334 -0.23432,-0.0503 l -1.14693,-0.2984 0.12014,-0.46177 2.43722,0.6341 -0.16958,0.65182 -2.10083,0.58365 -0.003,0.0117 c 0.0762,0.0175 0.15189,0.0342 0.22722,0.0502 0.0753,0.0161 0.15066,0.0321 0.22599,0.0481 l 0.22512,0.0514 1.1536,0.30014 -0.12101,0.4651 z m -0.65727,2.07456 0.62655,0.0105 0.28214,-0.87369 -0.51433,-0.35797 0.17681,-0.54749 2.13318,1.62291 -0.20062,0.62125 -2.68053,0.072 z m 1.09191,0.0268 0.61344,0.006 c 0.0407,0.001 0.093,0.002 0.1569,0.002 0.0647,0.001 0.13005,0.003 0.19614,0.004 0.0668,0.002 0.12443,0.005 0.17276,0.009 -0.0413,-0.0254 -0.0921,-0.0587 -0.15237,-0.0999 -0.0596,-0.0397 -0.11607,-0.0779 -0.1694,-0.11444 -0.0533,-0.0365 -0.0914,-0.0627 -0.11405,-0.0785 l -0.50174,-0.35209 z m -1.38578,0.81605 2.35635,0.88868 -0.18843,0.49964 -1.94375,-0.73307 -0.36046,0.95575 -0.4126,-0.15561 z m 0.3362,3.16623 0.74483,0.8925 -0.22743,0.52847 -1.0827,-1.37545 -0.90029,-0.38745 0.20972,-0.48733 0.88448,0.38063 1.75901,-0.15251 -0.22879,0.53164 z m -1.95653,2.35261 c -0.13432,-0.0651 -0.23529,-0.15431 -0.30291,-0.26753 -0.0676,-0.11321 -0.098,-0.24535 -0.0911,-0.39643 0.007,-0.15005 0.053,-0.31393 0.13891,-0.49165 0.0381,-0.0785 0.0806,-0.153 0.12751,-0.22341 0.0464,-0.0694 0.0962,-0.13392 0.14944,-0.19363 0.0537,-0.0582 0.11062,-0.11102 0.17066,-0.15845 l 0.44636,0.2165 c -0.0996,0.0844 -0.19666,0.1752 -0.29102,0.27238 -0.0944,0.0972 -0.1691,0.2026 -0.22423,0.31625 -0.0381,0.0785 -0.0583,0.14657 -0.0607,0.20412 -0.003,0.0586 0.009,0.10751 0.0341,0.14674 0.0257,0.0393 0.0617,0.0702 0.10821,0.0927 0.0568,0.0276 0.11463,0.032 0.1735,0.0133 0.0589,-0.0187 0.12214,-0.0531 0.18981,-0.10321 0.0672,-0.0491 0.14125,-0.10568 0.22214,-0.16985 0.0503,-0.0407 0.10811,-0.0835 0.17334,-0.12844 0.0662,-0.0445 0.13868,-0.0821 0.21743,-0.11278 0.0787,-0.0307 0.16354,-0.0464 0.25444,-0.047 0.0914,6.7e-4 0.18881,0.0262 0.29213,0.0766 0.13536,0.0657 0.23605,0.15279 0.30207,0.26138 0.066,0.10861 0.0965,0.23253 0.0915,0.37178 -0.005,0.14078 -0.045,0.28969 -0.12096,0.44674 -0.0571,0.11779 -0.12546,0.22314 -0.20498,0.31603 -0.079,0.0944 -0.17262,0.18749 -0.28091,0.27918 l -0.29834,-0.33615 c 0.093,-0.0838 0.17088,-0.16153 0.2337,-0.23316 0.0639,-0.0711 0.11659,-0.14958 0.15818,-0.23534 0.0291,-0.0599 0.0441,-0.11584 0.045,-0.16772 0.002,-0.0514 -0.009,-0.0965 -0.034,-0.13518 -0.0236,-0.0383 -0.0581,-0.0684 -0.10355,-0.0904 -0.0537,-0.0261 -0.10671,-0.0326 -0.15894,-0.0197 -0.0517,0.0145 -0.10992,0.045 -0.17455,0.0915 -0.0651,0.0475 -0.1435,0.1078 -0.23511,0.18079 -0.11089,0.0892 -0.21609,0.16003 -0.31561,0.21258 -0.099,0.0541 -0.19955,0.0838 -0.3017,0.0891 -0.10111,0.006 -0.21107,-0.0199 -0.32989,-0.0777 z m -1.52854,1.37662 0.68814,-1.27674 2.21686,1.19486 -0.68814,1.27674 -0.38515,-0.20759 0.43479,-0.80668 -0.48674,-0.26235 -0.40455,0.75058 -0.38514,-0.20759 0.40455,-0.75057 -0.57165,-0.30812 -0.43479,0.80668 z"
       id="text38"
       style="font-weight:bold;font-size:3.52777px;line-height:1;font-family:'Open Sans';-inkscape-font-specification:'Open Sans Bold';letter-spacing:0px;fill:#333333;stroke-width:2.332;stroke-linecap:round;stroke-linejoin:round;paint-order:markers stroke fill"
       aria-label="ANALYSE"
       sodipodi:nodetypes="cccccccccccccccscccccccccccccccccccccccccccccccccccccscccccccccccccccccccccsccccccsscccccccsccsccccccsccccccccccccccccccccccc" /><path
       d="m 97.559302,61.368198 c 0.31635,0.07446 0.53113,0.196976 0.64434,0.367553 0.11348,0.169459 0.14221,0.373237 0.0862,0.611332 -0.0253,0.10731 -0.0657,0.206334 -0.12124,0.297072 -0.0553,0.08962 -0.12882,0.163753 -0.22046,0.2224 -0.0905,0.05891 -0.202,0.09638 -0.33437,0.112416 -0.13211,0.01491 -0.28758,0.0013 -0.46643,-0.04077 l -0.22301,-0.05249 -0.20522,0.871896 -0.51978,-0.122343 0.57698,-2.451371 z m -0.12707,0.419573 -0.23641,-0.05565 -0.17129,0.727698 0.17103,0.04025 c 0.0973,0.02289 0.18467,0.0299 0.26226,0.02103 0.0776,-0.0089 0.1424,-0.03609 0.19441,-0.08165 0.052,-0.04557 0.0881,-0.111385 0.10842,-0.197454 0.0284,-0.120724 0.0159,-0.218042 -0.0375,-0.291955 -0.0531,-0.07503 -0.15012,-0.129122 -0.29096,-0.162273 z m 2.32312,0.152546 c 0.21958,0.06331 0.392898,0.141974 0.519968,0.235981 0.12817,0.09433 0.21159,0.205024 0.25024,0.332099 0.0387,0.127075 0.0344,0.272264 -0.0127,0.435569 -0.0318,0.110341 -0.0806,0.200844 -0.14641,0.271509 -0.0658,0.07067 -0.14117,0.124824 -0.22612,0.162475 -0.0849,0.03765 -0.172398,0.06323 -0.262348,0.07673 l 0.407688,1.259521 -0.569348,-0.164172 -0.3099,-1.095075 -0.2731,-0.07875 -0.26773,0.928518 -0.51309,-0.147945 0.69773,-2.419774 z m -0.15763,0.409899 -0.15558,-0.04486 -0.18851,0.653769 0.16551,0.04772 c 0.16993,0.049 0.29941,0.05586 0.38846,0.02058 0.0905,-0.03606 0.15162,-0.10926 0.18344,-0.219601 0.0331,-0.114755 0.0169,-0.207861 -0.0485,-0.279319 -0.0643,-0.07114 -0.17926,-0.130571 -0.34478,-0.178295 z m 3.564618,2.026179 c -0.0641,0.183173 -0.14533,0.342119 -0.24359,0.476838 -0.0979,0.133636 -0.21241,0.238331 -0.34356,0.314084 -0.13007,0.07613 -0.27635,0.118608 -0.43883,0.127429 -0.16209,0.0077 -0.34015,-0.02236 -0.53416,-0.09028 -0.19401,-0.06792 -0.35196,-0.155459 -0.47383,-0.262612 -0.12149,-0.108237 -0.20987,-0.232864 -0.26514,-0.373883 -0.0542,-0.14064 -0.0777,-0.294257 -0.0704,-0.46085 0.007,-0.166593 0.0431,-0.342018 0.10759,-0.526275 0.0861,-0.246036 0.20118,-0.446059 0.34513,-0.600068 0.14542,-0.154713 0.31977,-0.253062 0.52306,-0.295045 0.20329,-0.04199 0.43445,-0.01763 0.6935,0.07306 0.25795,0.09031 0.4522,0.214893 0.58275,0.373748 0.13162,0.159235 0.20547,0.344478 0.22155,0.555729 0.0171,0.211631 -0.0175,0.441007 -0.10403,0.688127 z m -1.73472,-0.607313 c -0.0581,0.165831 -0.0876,0.31611 -0.0885,0.450837 5.3e-4,0.134023 0.0339,0.249108 0.1,0.345255 0.0665,0.09506 0.17016,0.167259 0.31109,0.216588 0.14307,0.05009 0.27023,0.05871 0.3815,0.02588 0.11164,-0.03391 0.20838,-0.103464 0.29023,-0.208652 0.0833,-0.105889 0.15399,-0.241749 0.21204,-0.40758 0.0873,-0.249287 0.10934,-0.461782 0.0662,-0.637485 -0.0431,-0.175703 -0.17145,-0.30093 -0.38496,-0.375682 -0.14199,-0.04971 -0.26934,-0.05779 -0.38207,-0.02426 -0.11127,0.03283 -0.20909,0.102005 -0.29348,0.207514 -0.0829,0.104805 -0.15361,0.240665 -0.21205,0.40758 z m 2.76733,-0.33186 0.72394,0.300321 c 0.30973,0.128489 0.5261,0.269224 0.64913,0.422207 0.12302,0.152983 0.13922,0.338727 0.0486,0.557234 -0.0365,0.08804 -0.0838,0.161652 -0.14196,0.220839 -0.0571,0.05963 -0.12158,0.101245 -0.19353,0.124855 -0.072,0.02361 -0.14898,0.02647 -0.23107,0.0086 l -0.007,0.01591 c 0.0708,0.04803 0.1294,0.104654 0.1757,0.169861 0.0467,0.06415 0.0733,0.141046 0.0796,0.230698 0.008,0.08903 -0.0136,0.194536 -0.0642,0.316518 -0.0585,0.141075 -0.14317,0.247695 -0.25391,0.319861 -0.11075,0.07216 -0.24151,0.108674 -0.3923,0.109527 -0.14929,2.32e-4 -0.31197,-0.03617 -0.48805,-0.109219 l -0.87031,-0.361044 z m 0.11107,1.125843 0.28639,0.118808 c 0.14319,0.05941 0.25161,0.07827 0.32525,0.0566 0.0741,-0.02273 0.12938,-0.07811 0.1659,-0.166152 0.0369,-0.0891 0.0305,-0.166384 -0.0194,-0.231851 -0.0484,-0.06609 -0.14315,-0.128393 -0.28425,-0.186918 l -0.25934,-0.107587 z m -0.16238,0.391403 -0.25147,0.606197 0.32139,0.133329 c 0.1485,0.06161 0.2638,0.07587 0.3459,0.04279 0.0821,-0.03308 0.14318,-0.09788 0.18322,-0.194403 0.0237,-0.05728 0.0319,-0.112944 0.0245,-0.166992 -0.007,-0.05405 -0.0363,-0.105811 -0.0866,-0.155292 -0.0493,-0.04904 -0.12641,-0.09534 -0.23143,-0.138902 z m 1.26823,1.735238 1.07455,-2.2776 0.48294,0.227847 -0.8864,1.878787 0.92382,0.435849 -0.18816,0.398814 z m 3.08036,1.53808 -1.28371,-0.675048 1.17211,-2.228965 1.28371,0.675048 -0.20363,0.387248 -0.81109,-0.426514 -0.25735,0.489396 0.75468,0.396851 -0.20364,0.387248 -0.75468,-0.39685 -0.30225,0.574774 0.81109,0.426514 z m 1.37987,0.793916 0.49966,-2.005394 -0.0133,-0.008 c -0.0223,0.04152 -0.0561,0.104293 -0.10132,0.188319 -0.0437,0.08363 -0.0911,0.172383 -0.14221,0.266246 -0.0511,0.09386 -0.0989,0.177689 -0.14337,0.251474 l -0.60417,1.003484 -0.40878,-0.246114 1.29899,-2.157491 0.62275,0.374946 -0.48275,1.957267 0.009,0.0053 1.53493,-1.323767 0.62275,0.374947 -1.29899,2.157491 -0.42648,-0.256776 0.61484,-1.021193 c 0.0409,-0.06788 0.0889,-0.145503 0.14422,-0.232861 0.0563,-0.08677 0.11036,-0.168808 0.16227,-0.246127 0.0525,-0.0783 0.0919,-0.137031 0.11814,-0.176182 l -0.0133,-0.008 -1.57368,1.354727 z m 2.3501,1.494665 -0.4338,-0.296367 1.42062,-2.079418 1.19189,0.81428 -0.24681,0.361267 -0.75809,-0.517914 -0.36633,0.536212 0.70547,0.48196 -0.24584,0.359845 -0.70547,-0.481961 z m 3.74585,1.18139 c -0.11761,0.154371 -0.24397,0.280424 -0.37908,0.37816 -0.13441,0.09682 -0.27569,0.16098 -0.42384,0.19247 -0.14724,0.03219 -0.29948,0.02736 -0.45672,-0.01449 -0.15655,-0.04276 -0.31657,-0.12643 -0.48008,-0.251009 -0.16351,-0.124579 -0.28665,-0.25666 -0.36942,-0.396244 -0.0821,-0.140498 -0.12759,-0.286345 -0.13655,-0.437542 -0.008,-0.150501 0.0171,-0.30385 0.0755,-0.460048 0.0584,-0.156198 0.14674,-0.311939 0.26503,-0.467223 0.15799,-0.207349 0.32924,-0.362002 0.51376,-0.463957 0.18613,-0.102172 0.38234,-0.141795 0.58865,-0.118869 0.20631,0.02293 0.41862,0.117558 0.63693,0.283895 0.21739,0.165641 0.36361,0.344178 0.43864,0.535611 0.0759,0.192129 0.0889,0.39113 0.0389,0.597002 -0.0491,0.206568 -0.15303,0.413983 -0.31169,0.622246 z m -1.46195,-1.113902 c -0.10648,0.139755 -0.18099,0.273552 -0.22354,0.40139 -0.0409,0.127621 -0.0448,0.247369 -0.0117,0.359245 0.0339,0.110962 0.11016,0.211681 0.22888,0.302157 0.12057,0.09187 0.23884,0.139391 0.3548,0.142568 0.11666,0.0023 0.23017,-0.03397 0.34052,-0.108694 0.11197,-0.07494 0.22119,-0.182295 0.32768,-0.32205 0.16007,-0.210089 0.24676,-0.405347 0.26007,-0.585774 0.0133,-0.180427 -0.07,-0.339194 -0.24995,-0.4763 -0.11966,-0.09117 -0.23828,-0.138238 -0.35585,-0.141198 -0.11596,-0.0032 -0.23038,0.03234 -0.34326,0.106607 -0.11127,0.07403 -0.22049,0.18138 -0.32767,0.322049 z m 3.2911,1.016278 c 0.17373,0.14846 0.299,0.291762 0.37581,0.429905 0.0777,0.138889 0.10785,0.274175 0.0905,0.405859 -0.0173,0.131683 -0.0812,0.262129 -0.19166,0.391337 -0.0746,0.0873 -0.15647,0.149518 -0.2456,0.186646 -0.0891,0.03713 -0.18015,0.05526 -0.27307,0.05441 -0.0929,-8.67e-4 -0.18312,-0.01375 -0.2706,-0.03864 l -0.14973,1.315366 -0.45048,-0.384951 0.17076,-1.125199 -0.21608,-0.184642 -0.62778,0.734652 -0.40596,-0.346904 1.63604,-1.914548 z m -0.31305,0.308004 -0.1231,-0.10519 -0.44202,0.517269 0.13095,0.111904 c 0.13445,0.114889 0.2495,0.17469 0.34517,0.179403 0.0973,0.0046 0.18323,-0.03676 0.25784,-0.124074 0.0776,-0.09079 0.10135,-0.182256 0.0713,-0.274383 -0.0291,-0.09138 -0.10919,-0.193024 -0.24017,-0.304929 z m 0.65401,3.387945 0.93789,-1.841634 -0.0111,-0.01078 c -0.0311,0.03544 -0.0781,0.08901 -0.14108,0.160706 -0.0613,0.07167 -0.12748,0.147487 -0.19844,0.22744 -0.071,0.07995 -0.13637,0.150883 -0.19626,0.212786 l -0.81439,0.841886 -0.34295,-0.331746 1.75096,-1.810055 0.52246,0.505404 -0.91059,1.798544 0.007,0.0072 1.79333,-0.944625 0.52246,0.505405 -1.75095,1.810055 -0.3578,-0.346119 0.82877,-0.856743 c 0.0551,-0.05695 0.11937,-0.121772 0.1929,-0.194457 0.0743,-0.07189 0.14549,-0.139664 0.21346,-0.203326 l 0.15474,-0.145097 -0.0111,-0.01078 -1.83805,0.966076 z m 4.84512,1.420695 -1.20706,1.094707 c -0.12845,0.116491 -0.2704,0.193299 -0.42586,0.230425 -0.15385,0.03721 -0.31304,0.02578 -0.47758,-0.03428 -0.16377,-0.05921 -0.32435,-0.175584 -0.48173,-0.349112 -0.22372,-0.246685 -0.33127,-0.491763 -0.32264,-0.735236 0.009,-0.243473 0.11676,-0.459329 0.32428,-0.647566 l 1.20195,-1.090077 0.35758,0.39427 -1.14198,1.035689 c -0.15397,0.139635 -0.23345,0.269084 -0.23846,0.388348 -0.005,0.119264 0.0481,0.240567 0.16028,0.363909 0.0787,0.08676 0.15722,0.143442 0.23559,0.170031 0.0791,0.02744 0.16134,0.02577 0.24658,-0.005 0.0852,-0.0308 0.17592,-0.08979 0.27205,-0.176959 l 1.13942,-1.033375 z m -1.46943,2.165218 1.94899,-1.594868 0.33817,0.413259 -1.60771,1.315602 0.64689,0.790524 -0.34127,0.279266 z m 2.12057,2.712481 -0.86909,-1.161163 2.01618,-1.50903 0.86908,1.161163 -0.35027,0.262171 -0.54912,-0.733657 -0.44267,0.331326 0.51092,0.682632 -0.35028,0.26217 -0.51092,-0.682631 -0.51991,0.389128 0.54912,0.733656 z m 2.80281,-0.377987 c 0.1282,0.189179 0.21103,0.360547 0.2485,0.514103 0.0381,0.154507 0.0314,0.292949 -0.0203,0.415328 -0.0516,0.122379 -0.14776,0.231239 -0.28848,0.326581 -0.0951,0.06442 -0.19049,0.102725 -0.28627,0.114916 -0.0958,0.01219 -0.18836,0.0056 -0.27773,-0.01988 -0.0894,-0.02544 -0.17294,-0.06176 -0.25069,-0.108945 l -0.49284,1.228706 -0.33241,-0.490536 0.46274,-1.039763 -0.15945,-0.235287 -0.79997,0.542097 -0.29955,-0.442053 2.08478,-1.412737 z m -0.38345,0.214069 -0.0908,-0.134042 -0.56326,0.381691 0.0966,0.142597 c 0.0992,0.146401 0.19431,0.234545 0.28531,0.264434 0.0926,0.03019 0.18643,0.01308 0.28149,-0.05134 0.0989,-0.067 0.14603,-0.148891 0.14148,-0.245683 -0.004,-0.09584 -0.0543,-0.215061 -0.15081,-0.357659 z m -0.82576,2.532024 2.13713,-1.332213 0.28248,0.453154 -2.13713,1.332213 z m 1.71942,2.935184 -0.33333,-0.59118 1.12146,-1.889995 -0.008,-0.0135 c -0.0668,0.04292 -0.13432,0.08562 -0.20265,0.128099 l -0.20499,0.127445 c -0.0673,0.04191 -0.13516,0.08411 -0.20349,0.126591 l -1.03232,0.58206 -0.23435,-0.41563 2.19369,-1.236868 0.33079,0.586685 -1.10579,1.879183 0.006,0.0105 c 0.0669,-0.0403 0.133,-0.0809 0.19833,-0.12171 0.0653,-0.0408 0.13066,-0.0816 0.19599,-0.12237 0.0659,-0.0398 0.13176,-0.0796 0.19768,-0.11937 l 1.03832,-0.58544 0.23604,0.41863 z m 1.98138,0.80244 0.43839,0.89776 -1.17328,0.57292 c -0.0972,-0.0995 -0.18885,-0.20746 -0.27507,-0.32383 -0.0852,-0.11687 -0.16733,-0.25631 -0.24644,-0.41832 -0.10985,-0.22495 -0.15869,-0.43752 -0.14654,-0.63771 0.0121,-0.20018 0.085,-0.38336 0.21855,-0.54954 0.13355,-0.16617 0.32674,-0.31099 0.57956,-0.43444 0.23734,-0.11589 0.46486,-0.17076 0.68256,-0.16461 0.21821,0.007 0.41761,0.0753 0.5982,0.20438 0.18111,0.13009 0.33364,0.32207 0.45759,0.57592 0.0585,0.1197 0.10326,0.24415 0.13439,0.37335 0.0311,0.12921 0.0492,0.25135 0.0543,0.36644 l -0.46172,0.028 c 0.001,-0.0863 -0.008,-0.17957 -0.0274,-0.2799 -0.0196,-0.10033 -0.0531,-0.199 -0.10045,-0.296 -0.068,-0.13931 -0.15922,-0.24494 -0.27359,-0.31689 -0.11386,-0.0709 -0.24243,-0.10653 -0.38572,-0.10685 -0.14175,2.1e-4 -0.29054,0.0384 -0.44636,0.11444 -0.14756,0.0721 -0.26878,0.15618 -0.36367,0.25235 -0.0939,0.0957 -0.15213,0.20272 -0.17482,0.32115 -0.0217,0.11792 0.002,0.24653 0.0696,0.38584 0.0333,0.0681 0.0643,0.12387 0.0932,0.16728 0.0304,0.0439 0.0593,0.0848 0.0867,0.12253 l 0.4721,-0.23053 -0.20937,-0.42875 z"
       id="text39"
       style="font-weight:bold;font-size:3.52777px;line-height:1;font-family:'Open Sans';-inkscape-font-specification:'Open Sans Bold';letter-spacing:0px;fill:#333333;stroke-width:2.332;stroke-linecap:round;stroke-linejoin:round;paint-order:markers stroke fill"
       aria-label="PROBLEMFORMULERING"
       sodipodi:nodetypes="scccccsccccscccsssccccscscssccccccccscccscccscccccscccccssccccsccsccsssccsscssccsccccsscscccscccsccccsscscscccccccccccccccccccccccccscccccccccccccccccccccccccccccccccsccsccsscccccccsccscsccccscssssccccccccscccscscccccccscccccccccccccccccccsccsccccscccccccccccccccccccccccccccsccsssccccccccscccccscsccccccccccsccccccccscccccccccssssccssccssccsccsccccc" /><path
       d="m 55.366915,74.737892 -0.434964,0.422433 -1.212527,-0.301549 -0.04907,0.273367 0.62645,0.64503 -0.383065,0.37203 -1.754538,-1.80658 0.383065,-0.372029 0.802863,0.826677 q -0.0133,-0.09034 -0.02783,-0.179475 -0.01453,-0.08914 -0.02783,-0.179475 l -0.107114,-1.089376 0.425078,-0.412833 0.146259,1.41154 z m 1.134789,-2.664762 q 0.190771,0.21989 0.293029,0.448157 0.10113,0.226966 0.102115,0.454157 0.0023,0.226062 -0.107204,0.444198 -0.11062,0.216835 -0.343522,0.418893 -0.232901,0.202059 -0.463176,0.280974 -0.231403,0.07761 -0.456182,0.04458 -0.223477,-0.03416 -0.43503,-0.167609 -0.211554,-0.133446 -0.403453,-0.354637 -0.256242,-0.295355 -0.3496,-0.597477 -0.09319,-0.304551 0.0035,-0.600523 0.09669,-0.295971 0.407663,-0.565759 0.309668,-0.268659 0.61372,-0.320364 0.305353,-0.05283 0.592407,0.08352 0.288355,0.135229 0.545725,0.431885 z m -1.3883,1.20445 q 0.17271,0.199072 0.347451,0.300602 0.174914,0.0991 0.349336,0.0846 0.173292,-0.0158 0.342438,-0.162543 0.171749,-0.149004 0.211841,-0.318334 0.03896,-0.17063 -0.03707,-0.35552 -0.07586,-0.18732 -0.248565,-0.386393 -0.259629,-0.299258 -0.520529,-0.373928 -0.260901,-0.07467 -0.517223,0.147707 -0.170447,0.147875 -0.210711,0.319635 -0.04009,0.169329 0.03446,0.357778 0.07473,0.186019 0.248565,0.386392 z m 4.397532,-1.935839 -0.539177,0.412186 -2.027398,-0.848173 -0.01232,0.0094 q 0.07766,0.09024 0.154995,0.182894 0.07734,0.09266 0.154673,0.185309 0.07629,0.09129 0.153627,0.183941 l 0.719756,0.941508 -0.379067,0.289785 -1.529482,-2.000704 0.535073,-0.409048 2.014521,0.834166 0.0096,-0.0073 q -0.07388,-0.09096 -0.148073,-0.179513 -0.0742,-0.08855 -0.148396,-0.177098 -0.07283,-0.0896 -0.145659,-0.179191 l -0.723941,-0.946981 0.381803,-0.291878 z m 1.322939,-0.910576 -0.440982,0.30113 -1.169551,-1.712714 -0.56474,0.385641 -0.250618,-0.367011 1.570462,-1.072412 0.250618,0.36701 -0.56474,0.385641 z m 0.197261,-3.124212 q 0.291974,-0.179592 0.524563,-0.225586 0.234056,-0.0469 0.41403,0.03857 0.179974,0.08546 0.31354,0.302609 0.09025,0.146721 0.10218,0.291055 0.01193,0.144335 -0.03211,0.276583 -0.04404,0.132249 -0.119895,0.245645 l 1.205776,0.546546 -0.504719,0.310451 -1.018344,-0.508139 -0.242089,0.148909 0.506289,0.823103 -0.454835,0.279767 -1.319419,-2.145056 z m 0.19695,0.392525 -0.137917,0.08483 0.356478,0.579547 0.146721,-0.09025 q 0.225949,-0.138981 0.276759,-0.273372 0.05137,-0.136761 -0.03887,-0.283481 -0.09386,-0.15259 -0.239205,-0.152169 -0.143881,-4.81e-4 -0.363962,0.13489 z m 3.898102,-1.271512 q 0.138394,0.25611 0.188572,0.50115 0.04936,0.243525 9.21e-4,0.465494 -0.04692,0.221151 -0.201225,0.41026 -0.155121,0.187594 -0.426385,0.334177 -0.271264,0.146583 -0.513189,0.17354 -0.242743,0.02544 -0.454961,-0.05568 -0.210702,-0.08194 -0.388178,-0.25819 -0.177475,-0.176253 -0.316688,-0.433878 -0.18589,-0.344005 -0.211322,-0.659198 -0.02474,-0.317527 0.134,-0.585392 0.158736,-0.267866 0.520927,-0.463582 0.360675,-0.194898 0.668695,-0.179254 0.309536,0.01483 0.560072,0.210337 0.252052,0.194693 0.438761,0.540213 z m -1.616976,0.873765 q 0.125291,0.231862 0.273776,0.368958 0.149181,0.134762 0.322581,0.158539 0.172581,0.02226 0.369588,-0.0842 0.200039,-0.108094 0.27599,-0.264655 0.07513,-0.158076 0.04113,-0.355074 -0.03331,-0.199332 -0.158603,-0.431195 -0.188346,-0.348551 -0.426769,-0.478164 -0.238422,-0.129613 -0.536964,0.03171 -0.198523,0.107275 -0.275171,0.26617 -0.07595,0.156561 -0.04416,0.356712 0.03249,0.197817 0.158603,0.431195 z m 2.689381,0.01292 -1.079625,-2.275202 0.48243,-0.228921 0.89058,1.876808 0.922841,-0.437906 0.189046,0.398394 z m 1.806599,-0.84201 -0.979717,-2.319975 0.491924,-0.207738 0.808166,1.913742 0.941002,-0.397382 0.171551,0.406234 z"
       id="text40"
       style="font-weight:bold;font-size:3.52777px;line-height:1;font-family:'Open Sans';-inkscape-font-specification:'Open Sans Bold';letter-spacing:0px;fill:#333333;stroke-width:2.332;stroke-linecap:round;stroke-linejoin:round;paint-order:markers stroke fill"
       aria-label="KONTROLL" /><path
       d="m 46.464002,133.6027 -0.531884,-0.84573 1.105277,-0.69511 q 0.160869,0.13284 0.308119,0.29256 0.145792,0.16063 0.289768,0.38956 0.199914,0.31788 0.213904,0.61838 0.01399,0.3005 -0.158534,0.56976 -0.172522,0.26926 -0.529769,0.49393 -0.335374,0.21092 -0.661042,0.23667 -0.326585,0.0243 -0.616632,-0.13923 -0.290963,-0.16498 -0.516555,-0.52368 -0.106377,-0.16915 -0.173549,-0.35684 -0.06717,-0.1877 -0.09321,-0.35853 l 0.456076,-0.0772 q 0.01186,0.12888 0.05719,0.27537 0.04533,0.14649 0.13153,0.28356 0.1238,0.19685 0.30591,0.28581 0.181192,0.0875 0.394942,0.065 0.211374,-0.0231 0.431554,-0.16153 0.208516,-0.13114 0.334606,-0.28979 0.124631,-0.15775 0.139463,-0.338 0.01337,-0.17935 -0.110426,-0.3762 -0.06052,-0.0962 -0.110541,-0.15635 -0.05239,-0.0606 -0.09928,-0.11256 l -0.444735,0.2797 0.25402,0.4039 z m 1.142648,-2.2602 q 0.05143,0.0897 0.07954,0.16289 0.03046,0.0739 0.04444,0.1294 l -0.385496,0.22113 q -0.01697,-0.0538 -0.03972,-0.11424 -0.0204,-0.0598 -0.05554,-0.12105 -0.04628,-0.0807 -0.114516,-0.12694 -0.06674,-0.0471 -0.173334,-0.0356 -0.106595,0.0115 -0.266471,0.10321 l -2.047013,1.17423 -0.2657,-0.4632 2.044025,-1.1725 q 0.280903,-0.16114 0.503302,-0.17155 0.223035,-0.0128 0.390727,0.0996 0.168329,0.10997 0.285751,0.31467 z m -2.029538,-2.15733 0.67812,1.28209 -2.226151,1.17745 -0.67812,-1.28209 0.38676,-0.20456 0.428456,0.81006 0.488778,-0.25852 -0.398657,-0.75373 0.386759,-0.20456 0.398658,0.75372 0.574048,-0.30362 -0.428456,-0.81007 z m -1.180332,-2.4946 0.28519,0.61585 -1.268409,1.79468 0.0065,0.0141 q 0.104957,-0.0562 0.212202,-0.11155 0.107244,-0.0554 0.214488,-0.11072 0.105681,-0.0546 0.212925,-0.10999 l 1.0754,-0.498 0.200502,0.43297 -2.285225,1.05825 -0.283019,-0.61117 1.25194,-1.78515 -0.0051,-0.0109 q -0.104842,0.0523 -0.207397,0.10553 -0.102555,0.0532 -0.20511,0.10637 -0.103278,0.0516 -0.206557,0.10325 l -1.081652,0.50089 -0.20195,-0.4361 z m -1.058789,-2.66608 0.246126,0.63248 -1.378141,1.71187 0.0056,0.0144 q 0.108265,-0.0495 0.218761,-0.0981 0.110495,-0.0485 0.220991,-0.0971 0.10889,-0.0479 0.219386,-0.0965 l 1.104433,-0.42978 0.173038,0.44466 -2.34692,0.91329 -0.244252,-0.62766 1.361107,-1.70339 -0.0044,-0.0112 q -0.10791,0.0457 -0.21359,0.0924 -0.105679,0.0467 -0.211359,0.0933 -0.106304,0.0451 -0.212609,0.0901 l -1.110854,0.43228 -0.174287,-0.44788 z m -2.109203,-2.39184 q 0.277304,-0.0886 0.527398,-0.0925 0.248453,-0.003 0.457617,0.0853 0.20864,0.0871 0.365913,0.2737 0.155632,0.18717 0.249458,0.48089 0.09383,0.29371 0.07553,0.53644 -0.01994,0.24326 -0.138946,0.43679 -0.119531,0.19189 -0.325594,0.33367 -0.206064,0.14177 -0.485009,0.23088 -0.372474,0.11899 -0.686926,0.0856 -0.316617,-0.0345 -0.550463,-0.24007 -0.233846,-0.20558 -0.359123,-0.59775 -0.124753,-0.39052 -0.05235,-0.69032 0.07188,-0.30144 0.310393,-0.51145 0.237991,-0.21165 0.612106,-0.33116 z m 0.559291,1.75079 q 0.251051,-0.0802 0.413267,-0.20073 0.160051,-0.12165 0.21552,-0.28765 0.05383,-0.16548 -0.01431,-0.37879 -0.06919,-0.21659 -0.208983,-0.32022 -0.141433,-0.10309 -0.341321,-0.10615 -0.202054,-0.004 -0.453104,0.076 -0.377397,0.12056 -0.548911,0.33086 -0.171514,0.21031 -0.06825,0.53356 0.06867,0.21495 0.210624,0.31969 0.139793,0.10362 0.34237,0.10943 0.200413,0.005 0.453104,-0.076 z m 0.240487,-3.67201 -1.772564,1.06268 0.0037,0.0151 q 0.06773,-0.0203 0.204876,-0.0613 0.135057,-0.0423 0.28892,-0.0874 0.153864,-0.0451 0.279281,-0.0761 l 1.137115,-0.28104 0.114483,0.46321 -2.444796,0.60424 -0.174411,-0.70568 1.726549,-1.04066 -0.0025,-0.01 -2.02123,-0.15164 -0.174411,-0.70568 2.444796,-0.60424 0.119443,0.48327 -1.157182,0.286 q -0.115383,0.0285 -0.26671,0.0624 -0.151741,0.0322 -0.288844,0.059 -0.138776,0.0272 -0.208164,0.0408 l 0.0037,0.0151 2.070513,0.15721 z m -0.601759,-2.71936 0.09659,0.51642 -2.475434,0.46299 -0.265381,-1.41888 0.430068,-0.0804 0.168793,0.90246 0.63833,-0.11939 -0.157076,-0.83981 0.428376,-0.0801 0.157075,0.83982 z m -1.809332,-3.48617 q 0.288533,-0.0387 0.535452,0.001 0.245212,0.0402 0.435609,0.16411 0.190168,0.12225 0.31232,0.33356 0.120445,0.21153 0.16138,0.51714 0.02241,0.16731 0.01283,0.31632 -0.0081,0.14707 -0.04696,0.27219 l 0.251067,0.12279 -0.147341,0.30128 -0.252774,-0.12256 q -0.147632,0.19531 -0.387399,0.31258 -0.241703,0.1158 -0.55926,0.15834 -0.387556,0.0519 -0.691305,-0.036 -0.305684,-0.0894 -0.499909,-0.33276 -0.194226,-0.24337 -0.248882,-0.65141 -0.0231,-0.17244 -0.01203,-0.32338 0.01084,-0.15265 0.05288,-0.27994 l -0.232622,-0.11483 0.140969,-0.29695 0.24378,0.12029 q 0.144904,-0.18973 0.383192,-0.30507 0.238288,-0.11534 0.549016,-0.15696 z m 0.07432,0.55487 q -0.15195,0.0204 -0.277024,0.0597 -0.125303,0.0376 -0.21838,0.0953 l 1.396523,0.6819 q 0.02398,-0.0675 0.03099,-0.14492 0.0068,-0.0791 -0.0056,-0.17131 -0.03019,-0.22537 -0.14967,-0.35187 -0.12119,-0.12628 -0.317454,-0.16429 -0.1982,-0.0395 -0.459416,-0.005 z m 0.169686,1.26682 q 0.157071,-0.021 0.287268,-0.0611 0.12826,-0.0415 0.224066,-0.10474 l -1.406432,-0.691 q -0.02693,0.0714 -0.03667,0.15437 -0.0097,0.083 0.0031,0.1786 0.02996,0.22365 0.151377,0.35164 0.119483,0.1265 0.317912,0.1677 0.196493,0.0397 0.459416,0.005 z m -1.605033,-3.04762 q -0.02641,-0.34177 0.0389,-0.56968 0.06518,-0.22964 0.223411,-0.35071 0.158229,-0.12107 0.412407,-0.14072 0.171743,-0.0133 0.305593,0.042 0.13385,0.0553 0.231385,0.15489 0.09754,0.0996 0.163766,0.21885 l 1.036927,-0.82304 0.04566,0.5908 -0.917154,0.67383 0.0219,0.28338 0.963474,-0.0745 0.04114,0.5324 -2.510872,0.19404 z m 0.439146,0.004 0.01248,0.16144 0.678382,-0.0524 -0.01327,-0.17175 q -0.02044,-0.26448 -0.116788,-0.37106 -0.0982,-0.10817 -0.269941,-0.0949 -0.178612,0.0138 -0.244622,0.14329 -0.06614,0.12778 -0.04623,0.38539 z m 1.971924,-1.79013 -2.516446,0.0982 -0.02081,-0.53358 2.516446,-0.0982 z m -0.03903,-3.4015 -0.0034,0.67868 -1.910625,1.08593 -7.9e-5,0.0155 q 0.118889,-0.006 0.239492,-0.0108 0.120602,-0.005 0.241205,-0.009 0.11888,-0.005 0.239483,-0.009 l 1.185095,0.006 -0.0024,0.47714 -2.518327,-0.0127 0.0034,-0.6735 1.89167,-1.08431 6e-5,-0.012 q -0.117148,0.003 -0.232583,0.007 -0.115435,0.005 -0.23087,0.009 -0.115427,0.003 -0.230853,0.006 l -1.191985,-0.006 0.0024,-0.48059 z m -1.32339,-1.6788 0.06408,-0.99702 1.303,0.0837 q 0.05262,0.20188 0.07845,0.41758 0.02412,0.21559 0.0068,0.48547 -0.02408,0.37474 -0.188712,0.62653 -0.164626,0.25178 -0.462146,0.36902 -0.297519,0.11724 -0.718674,0.0902 -0.395369,-0.0254 -0.674438,-0.19525 -0.278959,-0.17155 -0.418325,-0.47394 -0.139256,-0.30411 -0.112078,-0.72699 0.01282,-0.1994 0.06828,-0.39089 0.05546,-0.19148 0.134384,-0.34521 l 0.414931,0.20446 q -0.06585,0.11141 -0.114886,0.25671 -0.04904,0.14529 -0.05942,0.30687 -0.01492,0.23207 0.08061,0.41082 0.09564,0.17703 0.282091,0.28395 0.184843,0.10509 0.444411,0.12177 0.245817,0.0158 0.440934,-0.039 0.193399,-0.0549 0.310976,-0.19232 0.115858,-0.13755 0.130773,-0.36961 0.0073,-0.11346 0.002,-0.19148 -0.007,-0.0798 -0.01457,-0.14938 l -0.524294,-0.0337 -0.0306,0.47616 z"
       id="text41"
       style="font-weight:bold;font-size:3.52777px;line-height:1;font-family:'Open Sans';-inkscape-font-specification:'Open Sans Bold';letter-spacing:0px;fill:#333333;stroke-width:2.332;stroke-linecap:round;stroke-linejoin:round;paint-order:markers stroke fill"
       aria-label="GJENNOMFØRING" /><path
       id="circle41"
       style="opacity:0.5;fill:none;stroke-width:2.332;stroke-linecap:round;stroke-linejoin:round;paint-order:markers stroke fill"
       d="M 131.64696,116.20296 A 45.843334,45.843334 0 0 1 78.702959,153.62162 45.843334,45.843334 0 0 1 41.284299,100.67763 45.843334,45.843334 0 0 1 94.228288,63.258964 45.843334,45.843334 0 0 1 131.64696,116.20296 Z" /><path
       id="circle42"
       style="opacity:0.5;fill:none;stroke-width:2.332;stroke-linecap:round;stroke-linejoin:round;paint-order:markers stroke fill"
       d="M 95.887735,63.575675 A 45.843334,45.843334 0 0 1 131.33024,117.86242 45.843334,45.843334 0 0 1 77.043501,153.30494 45.843334,45.843334 0 0 1 41.600988,99.018188 45.843334,45.843334 0 0 1 95.887735,63.575675 Z" /><path
       id="circle43"
       style="opacity:0.5;fill:none;stroke-width:2.332;stroke-linecap:round;stroke-linejoin:round;paint-order:markers stroke fill"
       d="m 53.696833,76.380729 a 45.843334,45.843334 0 0 1 64.828387,-0.709236 45.843334,45.843334 0 0 1 0.70923,64.828387 45.843334,45.843334 0 0 1 -64.828387,0.70923 45.843334,45.843334 0 0 1 -0.70923,-64.828381 z" /><path
       id="circle44"
       style="opacity:0.5;fill:none;stroke-width:2.332;stroke-linecap:round;stroke-linejoin:round;paint-order:markers stroke fill"
       d="M 48.353856,133.91785 A 45.843334,45.843334 0 0 1 60.988077,70.328547 45.843334,45.843334 0 0 1 124.57737,82.962763 45.843334,45.843334 0 0 1 111.94315,146.55206 45.843334,45.843334 0 0 1 48.353856,133.91785 Z" /><path
       style="font-size:3.51027px;line-height:1;font-family:Montserrat;-inkscape-font-specification:Montserrat;font-variation-settings:'wght' 600;stroke-width:2.332;stroke-linecap:round;stroke-linejoin:round;paint-order:fill markers stroke"
       d="m 132.74747,57.244892 -1.89694,-1.561849 0.68275,-0.829237 c 0.16957,-0.205954 0.35807,-0.353891 0.56548,-0.443811 0.20741,-0.08992 0.41728,-0.120227 0.62959,-0.09092 0.21231,0.02931 0.41422,0.122796 0.60572,0.280467 0.1897,0.156185 0.32021,0.336392 0.39153,0.54062 0.0695,0.202741 0.08,0.41452 0.0316,0.635337 -0.0485,0.220818 -0.15747,0.434204 -0.32701,0.640159 z m -0.008,-0.597723 0.37931,-0.460687 c 0.11602,-0.140916 0.19007,-0.286078 0.22214,-0.435486 0.0321,-0.149408 0.0224,-0.292276 -0.029,-0.428605 -0.0499,-0.138135 -0.13995,-0.260752 -0.27005,-0.367851 -0.13189,-0.108585 -0.2695,-0.17339 -0.41285,-0.194415 -0.14367,-0.02432 -0.28575,-0.0064 -0.42622,0.05376 -0.14047,0.06016 -0.26871,0.160698 -0.38474,0.301613 l -0.3793,0.460687 z m 1.8711,-1.624318 -1.80748,-1.664567 1.21513,-1.319462 0.28145,0.259196 -0.906,0.983788 1.24458,1.146173 0.93929,-1.019937 0.28146,0.259197 z m -0.49444,-1.027996 -0.27629,-0.254441 0.82753,-0.898577 0.27628,0.254441 z m 2.66778,-1.200057 c -0.13664,0.134736 -0.28634,0.244559 -0.4491,0.329469 -0.16442,0.08324 -0.31368,0.130187 -0.44779,0.140831 l -0.13646,-0.363356 c 0.12421,-0.01403 0.25604,-0.05365 0.3955,-0.118858 0.13946,-0.06521 0.26335,-0.151223 0.37166,-0.258028 0.0916,-0.09037 0.15594,-0.173489 0.19288,-0.249351 0.0369,-0.07586 0.0523,-0.143601 0.0461,-0.203217 -0.008,-0.06128 -0.0332,-0.113583 -0.0759,-0.15691 -0.0526,-0.05332 -0.11366,-0.07691 -0.18318,-0.07078 -0.0712,0.0045 -0.14665,0.02793 -0.22639,0.0704 -0.0797,0.03916 -0.16526,0.08738 -0.25668,0.144652 -0.0898,0.05563 -0.18279,0.10959 -0.27914,0.16187 -0.0963,0.04897 -0.19256,0.08635 -0.28872,0.112159 -0.0961,0.02249 -0.19294,0.02264 -0.29042,4.49e-4 -0.0975,-0.02219 -0.19222,-0.07995 -0.28424,-0.173263 -0.0936,-0.09498 -0.1541,-0.206274 -0.18134,-0.333884 -0.0272,-0.130919 -0.0122,-0.270644 0.0451,-0.419175 0.0573,-0.15184 0.16598,-0.30663 0.32594,-0.46437 0.10498,-0.103517 0.22227,-0.192883 0.35187,-0.268096 0.1296,-0.07521 0.25737,-0.125616 0.38332,-0.151211 l 0.14645,0.353497 c -0.12432,0.03057 -0.23882,0.07611 -0.3435,0.136598 -0.10632,0.05883 -0.1978,0.126033 -0.27445,0.201618 -0.09,0.08873 -0.15262,0.171857 -0.18791,0.249386 -0.0336,0.07588 -0.0465,0.144468 -0.0387,0.205751 0.01,0.05964 0.0365,0.111955 0.0808,0.156944 0.0526,0.05332 0.11365,0.07857 0.18315,0.07575 0.0695,-0.0061 0.14334,-0.02961 0.22141,-0.07043 0.0797,-0.04247 0.16612,-0.09151 0.25918,-0.147117 0.0914,-0.05728 0.18446,-0.111237 0.27914,-0.16187 0.0963,-0.05228 0.19177,-0.0905 0.28626,-0.114658 0.0962,-0.02581 0.19215,-0.02677 0.28796,-0.0029 0.0975,0.02219 0.1914,0.07911 0.28177,0.170763 0.092,0.09331 0.15163,0.205429 0.17885,0.336349 0.0273,0.12761 0.0122,0.267335 -0.0451,0.419175 -0.0589,0.150173 -0.1684,0.30413 -0.3284,0.461871 z m 1.01993,-1.025325 -1.66277,-1.809143 0.33599,-0.308799 1.66276,1.809144 z m 1.72145,-1.475214 c -0.14642,0.124037 -0.3009,0.215028 -0.46343,0.272975 -0.16226,0.05465 -0.32523,0.07769 -0.4889,0.06913 -0.16519,-0.01035 -0.32269,-0.05327 -0.47252,-0.128767 -0.14983,-0.0755 -0.28374,-0.182882 -0.40173,-0.322159 -0.11799,-0.139276 -0.2019,-0.289016 -0.25173,-0.44922 -0.0499,-0.160203 -0.0656,-0.321732 -0.0471,-0.484585 0.0187,-0.166151 0.07,-0.324626 0.15391,-0.475424 0.0824,-0.152583 0.19676,-0.290893 0.34318,-0.41493 0.15891,-0.134625 0.32369,-0.229745 0.49434,-0.28536 0.17243,-0.05713 0.34474,-0.07275 0.51695,-0.04688 l -0.0381,0.400326 c -0.13523,-0.01119 -0.26007,0.0025 -0.37452,0.04123 -0.11417,0.03538 -0.22215,0.09618 -0.32393,0.182404 -0.0982,0.0832 -0.17566,0.176411 -0.23236,0.279646 -0.0567,0.103235 -0.0904,0.210029 -0.10123,0.320384 -0.0108,0.110355 8.7e-4,0.220078 0.035,0.32917 0.0359,0.107579 0.0947,0.20958 0.17642,0.306002 0.0802,0.09464 0.17036,0.168517 0.27057,0.221642 0.10199,0.05161 0.20906,0.08206 0.3212,0.09134 0.11063,0.0075 0.22062,-0.0075 0.32999,-0.04492 0.10937,-0.03744 0.21405,-0.09851 0.31404,-0.183223 0.0928,-0.07866 0.17003,-0.168574 0.23154,-0.26975 0.0618,-0.104475 0.10247,-0.224809 0.12202,-0.361004 l 0.4183,0.0919 c -0.0317,0.161762 -0.0953,0.318389 -0.19082,0.46988 -0.0953,0.148193 -0.209,0.278258 -0.34113,0.390193 z m 0.53195,-0.860073 -0.36802,0.23355 -0.59447,-0.70174 0.32945,-0.279082 z m 0.64887,-0.163417 -1.47569,-1.964723 0.30033,-0.225569 2.36843,0.587372 -0.14875,0.11173 -1.13628,-1.512836 0.36207,-0.271948 1.47568,1.964723 -0.30032,0.225569 -2.36844,-0.587372 0.14876,-0.11173 1.13628,1.512836 z m 2.28678,-1.690405 -1.35886,-2.047263 0.95929,-0.636722 c 0.24567,-0.163063 0.46521,-0.238557 0.6586,-0.226482 0.19209,0.01013 0.34185,0.09611 0.44927,0.257935 0.0725,0.109187 0.10924,0.2196 0.11031,0.331239 -2.2e-4,0.109689 -0.029,0.214453 -0.0863,0.31429 -0.0567,0.09659 -0.13472,0.177892 -0.23415,0.243893 l -0.0172,-0.14023 c 0.11503,-0.07635 0.23261,-0.123497 0.35272,-0.141427 0.11881,-0.01988 0.23107,-0.0073 0.33678,0.03768 0.10765,0.04371 0.20095,0.125027 0.27989,0.243961 0.11647,0.17548 0.13981,0.356612 0.07,0.543397 -0.0698,0.186785 -0.23732,0.36818 -0.50249,0.544185 z m 0.1822,-0.550675 0.61418,-0.407657 c 0.14233,-0.09447 0.23599,-0.190342 0.28097,-0.287609 0.045,-0.09727 0.0332,-0.197569 -0.0354,-0.300907 -0.0673,-0.101388 -0.1545,-0.150243 -0.2616,-0.146566 -0.10839,0.0017 -0.23376,0.04983 -0.37609,0.1443 l -0.64342,0.42707 -0.19607,-0.295391 0.56739,-0.376597 c 0.13258,-0.088 0.21844,-0.178696 0.25757,-0.27208 0.0411,-0.09468 0.0305,-0.188812 -0.0316,-0.282401 -0.0634,-0.09554 -0.14671,-0.142764 -0.24993,-0.141675 -0.10125,-2.05e-4 -0.21816,0.04369 -0.35075,0.131696 l -0.53814,0.357185 z m 2.05461,-0.910335 -1.24364,-2.119233 0.86888,-0.50989 c 0.28257,-0.165819 0.54266,-0.228908 0.78028,-0.189267 0.23963,0.03845 0.42874,0.175753 0.56732,0.411898 0.0912,0.15541 0.13363,0.310947 0.1273,0.466612 -0.008,0.153647 -0.0611,0.300423 -0.16082,0.440328 -0.0989,0.136703 -0.24214,0.260129 -0.42984,0.37028 l -0.65394,0.38375 0.0708,-0.281665 0.46725,0.796226 z m 1.38658,-0.813693 -0.98713,-0.454517 0.42082,-0.24695 0.99016,0.45274 z m -1.43539,-0.171109 -0.28575,-0.08466 0.63577,-0.37309 c 0.17358,-0.10186 0.28185,-0.215594 0.32481,-0.341201 0.045,-0.126792 0.0284,-0.256793 -0.0498,-0.390002 -0.0794,-0.135227 -0.18475,-0.213113 -0.3162,-0.233658 -0.12943,-0.02173 -0.28093,0.01833 -0.4545,0.120195 l -0.63577,0.373091 0.0619,-0.296803 z m 2.27538,-0.290617 -1.16025,-2.166011 0.40226,-0.215475 1.16025,2.166011 z m 0.98772,-0.52817 -1.0801,-2.207073 1.61117,-0.78847 0.16818,0.343673 -1.20127,0.587881 0.74372,1.519727 1.24542,-0.609483 0.16818,0.343673 z m -0.0876,-1.137354 -0.1651,-0.337366 1.09723,-0.536962 0.1651,0.337367 z m 2.20792,0.119091 -0.97196,-2.256782 1.64745,-0.709533 0.15135,0.351413 -1.22834,0.529026 0.82062,1.905369 z m 0.0115,-1.029259 -0.15274,-0.354637 1.12517,-0.484593 0.15274,0.354637 z"
       id="text5"
       aria-label="DESIGNBRIEF"
       sodipodi:nodetypes="ccsssscscccsscscssccccccccccccccccccccssscscccccssccsscccscccccccccsccccccccccccsscccsccccscscsccssccccccccccccccccccccccccccscsccccccsscccsssccccscccsccccscsccscccccccccccscccscccccccccccccccccccccccccccccccccc" /><path
       style="font-size:3.51028px;line-height:1;font-family:Montserrat;-inkscape-font-specification:'Montserrat, @wght=700';font-variation-settings:'wght' 700;stroke-width:2.532;stroke-linecap:round;stroke-linejoin:round;paint-order:fill markers stroke"
       d="m 55.904193,-1.6061615 0.303834,-0.5827293 1.64042,-0.4767669 0.545576,0.3187179 -1.490819,0.450331 -0.442771,0.1316152 z m -0.722797,0.228212 1.239459,-2.1216867 0.487988,0.2850755 -1.239459,2.1216866 z m 1.45184,0.84814373 -0.214664,-1.36534233 0.524909,-0.1608733 0.262611,1.86086944 z m 0.420209,0.24027366 2.26835,-1.44633389 0.468593,0.3096212 L 59.35248,1.2295469 58.8546,0.90057435 59.300763,-1.4047608 59.4882,-1.2809123 57.539611,0.03169988 Z m 0.747148,-0.13742545 0.363956,-0.27702032 1.054335,0.69664768 -0.109158,0.44537684 z m 1.757866,1.81059376 1.472927,-1.96679842 0.376502,0.28196044 0.0999,2.28512218 L 61.32516,1.8471485 62.385667,0.4310537 62.835221,0.76772288 61.362294,2.7345213 60.988602,2.454665 60.885889,0.16743866 61.06852,0.30421051 60.008013,1.7203053 Z m 2.012333,1.5074522 2.422617,-1.1697082 0.428956,0.3625494 -0.74701,2.5859173 -0.455765,-0.3852088 0.714018,-2.2369194 0.171583,0.1450198 -2.089357,1.0744951 z m 0.758122,-0.04866 0.393992,-0.2323242 0.965149,0.8157363 -0.160747,0.4294606 z m 1.526538,2.0113263 1.675202,-1.7976401 0.416026,0.3876896 -1.359307,1.4586566 0.901388,0.8399941 -0.315895,0.3389836 z M 65.565029,6.4892623 66.985673,5.0902761 66.433961,4.5300219 66.76411,4.2049054 68.266543,5.7305978 67.936393,6.0557143 67.38468,5.49546 65.964035,6.8944462 Z m 1.151189,1.1965567 1.81072,-1.6610558 0.384415,0.4190522 -1.810719,1.6610558 z m 0.777222,0.8497915 1.867539,-1.5969063 0.36957,0.4322019 -1.515375,1.2957754 0.800735,0.9364374 -0.352165,0.3011309 z m 1.37009,1.6185455 1.942478,-1.5048544 0.651387,0.8408158 q 0.202081,0.2608471 0.262243,0.5161886 0.06294,0.253192 -0.01569,0.478404 -0.07863,0.225212 -0.297854,0.395045 -0.216448,0.167684 -0.454163,0.187549 -0.237716,0.01986 -0.469926,-0.10219 -0.229435,-0.124205 -0.431515,-0.385052 l -0.457906,-0.5910684 0.357358,0.042863 -0.738142,0.571844 z m 1.036458,-0.0836 0.05889,-0.365332 0.438558,0.566094 q 0.161234,0.208123 0.329575,0.242003 0.168342,0.03388 0.326515,-0.08866 0.160948,-0.124688 0.170205,-0.296155 0.0093,-0.171467 -0.151978,-0.3795897 l -0.438557,-0.5660939 0.368457,0.034264 z m 0.247569,1.732115 2.644084,-0.4961 0.319328,0.462032 -1.396705,2.300915 -0.339287,-0.49091 1.273675,-1.972659 0.127731,0.184813 -2.297522,0.491268 z m 0.744501,0.151111 0.441008,-0.121313 0.718489,1.039573 -0.267372,0.372543 z m 1.338204,3.048208 q -0.154678,-0.251037 -0.230718,-0.521664 -0.07305,-0.272469 -0.05201,-0.47922 l 0.465877,-0.06028 q -0.01277,0.193408 0.0368,0.414378 0.0544,0.222117 0.170404,0.410394 0.08839,0.14345 0.168685,0.213544 0.08513,0.07124 0.161712,0.08178 0.07658,0.01054 0.142332,-0.02998 0.08368,-0.05156 0.09098,-0.14677 0.01029,-0.09705 -0.02611,-0.223052 -0.03342,-0.127843 -0.08754,-0.27591 -0.0493,-0.146921 -0.08848,-0.304196 -0.03734,-0.154286 -0.03788,-0.302384 -5.42e-4,-0.148098 0.06469,-0.283125 0.06708,-0.132038 0.234434,-0.235156 0.179312,-0.110484 0.384675,-0.10508 0.210193,0.0066 0.416551,0.147405 0.211188,0.142001 0.393487,0.437866 0.121532,0.197242 0.191566,0.417971 0.07302,0.218887 0.07061,0.422408 l -0.459659,0.07707 q -0.0065,-0.197997 -0.05793,-0.368373 -0.04839,-0.172218 -0.134935,-0.312679 -0.08655,-0.140461 -0.174662,-0.209861 -0.08812,-0.0694 -0.165848,-0.07511 -0.07474,-0.0075 -0.143479,0.03481 -0.08069,0.04972 -0.09098,0.146769 -0.0073,0.09521 0.0291,0.221211 0.03641,0.126001 0.0857,0.272922 0.05114,0.149909 0.09147,0.302354 0.04217,0.155434 0.04271,0.303532 5.43e-4,0.148098 -0.06653,0.280136 -0.06523,0.135026 -0.229604,0.236303 -0.176323,0.108643 -0.383528,0.10025 -0.207204,-0.0084 -0.418392,-0.150394 -0.209347,-0.139012 -0.393487,-0.437865 z m 1.12879,1.93189 q -0.142519,-0.258133 -0.205555,-0.532082 -0.05996,-0.275645 -0.02908,-0.481157 l 0.468224,-0.03797 q -0.02199,0.192578 0.01698,0.415662 0.04373,0.22446 0.150621,0.41806 0.08144,0.147505 0.158299,0.221352 0.08163,0.07522 0.157625,0.0894 0.07599,0.01418 0.143601,-0.02315 0.08604,-0.04751 0.09789,-0.142259 0.01492,-0.09645 -0.01543,-0.224044 -0.02728,-0.129292 -0.07427,-0.279775 -0.04223,-0.149106 -0.07386,-0.308072 -0.02993,-0.155893 -0.02341,-0.303848 0.0065,-0.147955 0.07813,-0.279714 0.0733,-0.128686 0.245391,-0.223698 0.184381,-0.101799 0.389252,-0.0866 0.209641,0.01658 0.409041,0.16712 0.204169,0.15192 0.372138,0.456148 0.111979,0.202819 0.171397,0.426639 0.06249,0.222123 0.05036,0.425297 l -0.462814,0.05504 q 0.0029,-0.198084 -0.04028,-0.370718 -0.04011,-0.174331 -0.119857,-0.318763 -0.07974,-0.144432 -0.164445,-0.217959 -0.0847,-0.07353 -0.162074,-0.08294 -0.0743,-0.01111 -0.144977,0.02792 -0.08297,0.04581 -0.09789,0.142259 -0.01184,0.09475 0.01851,0.222348 0.03035,0.127595 0.07258,0.276702 0.04392,0.152179 0.07693,0.306375 0.0347,0.157269 0.02818,0.305224 -0.0065,0.147955 -0.07983,0.276641 -0.07161,0.131759 -0.240621,0.225075 -0.181308,0.100103 -0.387875,0.08183 -0.206568,-0.01827 -0.410737,-0.170193 -0.202473,-0.148846 -0.372139,-0.456148 z m 0.722641,1.237667 2.212198,-1.069576 0.204747,0.423478 -0.961732,2.075291 -0.09932,-0.205418 1.592783,-0.770095 0.244474,0.505646 -2.212198,1.069576 -0.203219,-0.420318 0.960204,-2.078452 0.09932,0.205419 -1.592782,0.770094 z m 1.207237,2.56651 2.255654,-0.974595 0.225549,0.522023 -2.255654,0.974595 z m 0.46194,1.055255 2.295035,-0.877854 0.168046,0.439335 -1.134491,1.986125 -0.08151,-0.21311 1.652425,-0.632055 0.200652,0.524579 -2.295034,0.877854 -0.166793,-0.436056 1.133238,-1.989404 0.08151,0.21311 -1.652425,0.632055 z m 1.313091,3.800338 q -0.08784,-0.277797 -0.0749,-0.539599 0.01735,-0.259514 0.126318,-0.485411 0.110029,-0.22255 0.300239,-0.389458 0.191267,-0.16356 0.455677,-0.247164 0.26441,-0.0836 0.514941,-0.05973 0.251589,0.02721 0.47062,0.149402 0.219031,0.122186 0.380131,0.328958 0.164446,0.205714 0.253341,0.486859 0.09842,0.311267 0.07298,0.591748 -0.02439,0.283828 -0.167884,0.516961 L 78.964057,25.69972 q 0.09366,-0.169516 0.109634,-0.340236 0.01932,-0.171778 -0.03677,-0.349167 -0.05397,-0.170695 -0.15197,-0.294335 -0.098,-0.12364 -0.231214,-0.195647 -0.132157,-0.06866 -0.287373,-0.08217 -0.154158,-0.01016 -0.321505,0.04275 -0.164001,0.05186 -0.284294,0.148796 -0.119235,0.100287 -0.191243,0.233503 -0.0676,0.135503 -0.07776,0.289661 -0.0091,0.157505 0.04381,0.324852 0.0508,0.160654 0.148623,0.295393 0.102232,0.137028 0.271575,0.241791 L 77.661331,26.44665 Q 77.45709,26.301379 77.299682,26.071351 77.143331,25.844669 77.063961,25.593647 Z m 0.59737,0.853003 -0.08634,-0.517573 0.88025,-0.278326 0.156624,0.49535 z m 0.368911,2.721414 q -0.0649,-0.284034 -0.02801,-0.548113 0.03767,-0.260658 0.16469,-0.476919 0.127806,-0.212839 0.33099,-0.363684 0.203965,-0.147423 0.470888,-0.20841 0.266923,-0.06099 0.514674,-0.01677 0.248533,0.04764 0.456874,0.187273 0.20834,0.139636 0.355469,0.358072 0.147128,0.218436 0.211243,0.499047 0.0649,0.284034 0.02645,0.541269 -0.03767,0.260658 -0.165471,0.473497 -0.127025,0.216261 -0.330208,0.367106 -0.199762,0.150063 -0.470107,0.211832 -0.266923,0.06099 -0.518878,0.01413 -0.248533,-0.04764 -0.456874,-0.187273 -0.204136,-0.136996 -0.351265,-0.355432 -0.146346,-0.215014 -0.210461,-0.495625 z m 0.471467,-0.111322 q 0.03675,0.160838 0.121996,0.28179 0.08603,0.124373 0.212148,0.203579 0.126119,0.07921 0.278935,0.101903 0.153598,0.02612 0.324703,-0.01298 0.171104,-0.03909 0.298118,-0.129327 0.127796,-0.08681 0.207002,-0.21293 0.07999,-0.122698 0.103466,-0.272091 0.02348,-0.149394 -0.01327,-0.310233 -0.03675,-0.160838 -0.122778,-0.285212 -0.08525,-0.120951 -0.211366,-0.200157 -0.126119,-0.07921 -0.279717,-0.105325 -0.152816,-0.0227 -0.323921,0.0164 -0.167682,0.03831 -0.2989,0.125905 -0.127014,0.09023 -0.207002,0.21293 -0.07921,0.12612 -0.102684,0.275513 -0.02348,0.149394 0.01327,0.310233 z m 0.09518,3.00926 q -0.04762,-0.287435 0.0023,-0.544768 0.05391,-0.254444 0.193768,-0.462638 0.140428,-0.204731 0.352352,-0.343028 0.212497,-0.134835 0.486079,-0.180162 0.273583,-0.04533 0.518211,0.01377 0.245202,0.06256 0.444728,0.214526 0.199526,0.151965 0.32973,0.379462 0.133666,0.226923 0.181863,0.517821 0.05336,0.322066 -0.01154,0.59612 -0.06432,0.277517 -0.239381,0.487986 l -0.392127,-0.305078 q 0.11672,-0.154547 0.156699,-0.321287 0.04344,-0.167314 0.01303,-0.350856 -0.02926,-0.176617 -0.108769,-0.312886 -0.07951,-0.136268 -0.201186,-0.226411 -0.121105,-0.08668 -0.272845,-0.122026 -0.151167,-0.03189 -0.32432,-0.0032 -0.169691,0.02811 -0.302496,0.107048 -0.132232,0.0824 -0.222374,0.204076 -0.08611,0.124568 -0.11799,0.275734 -0.03131,0.154629 -0.0026,0.327783 0.02754,0.166227 0.105306,0.313459 0.0818,0.150121 0.234608,0.277803 l -0.352393,0.385734 Q 78.88586,32.822262 78.762603,32.572266 78.63992,32.325732 78.596887,32.066002 Z m 0.470589,0.928984 -0.01219,-0.524584 0.910787,-0.1509 0.08492,0.512534 z m 0.01499,2.54271 2.451832,-0.162263 0.07024,1.061293 q 0.02179,0.329246 -0.07103,0.57461 -0.08932,0.245132 -0.280388,0.387942 -0.191073,0.14281 -0.46778,0.161122 -0.273204,0.01808 -0.48143,-0.0983 -0.208226,-0.116384 -0.33257,-0.347376 -0.120841,-0.231224 -0.14263,-0.56047 l -0.04937,-0.746058 0.272381,0.235267 -0.931696,0.06166 z m 0.906201,0.509937 0.253012,-0.270038 0.04729,0.714534 q 0.01739,0.262697 0.138046,0.384876 0.12066,0.122179 0.320309,0.108966 0.203152,-0.01344 0.306659,-0.150459 0.103507,-0.137015 0.08612,-0.399711 l -0.04729,-0.714534 0.286391,0.234339 z m -0.784099,3.100589 q -0.0051,-0.523007 0.283404,-0.820684 0.288478,-0.297677 0.829036,-0.302922 l 1.375965,-0.01335 0.0055,0.568638 -1.354905,0.01315 q -0.351011,0.0034 -0.50406,0.148819 -0.153048,0.145414 -0.150528,0.405162 0.0025,0.259749 0.158362,0.402165 0.155842,0.142416 0.506853,0.13901 l 1.354905,-0.01315 0.0054,0.561619 -1.375965,0.01335 q -0.540557,0.0052 -0.834758,-0.286777 -0.294201,-0.292022 -0.299276,-0.815029 z m 0.04025,1.674517 2.454317,0.118912 -0.0581,1.199109 q -0.02242,0.462814 -0.208944,0.685728 -0.18669,0.226419 -0.474195,0.212489 -0.19284,-0.0093 -0.332006,-0.110974 -0.13566,-0.101462 -0.204811,-0.269989 -0.06915,-0.168527 -0.05879,-0.382403 l 0.140526,0.07358 q -0.01121,0.231407 -0.09701,0.406484 -0.08229,0.175247 -0.234309,0.266285 -0.152186,0.09454 -0.366062,0.08418 -0.315555,-0.01529 -0.482308,-0.27289 -0.163247,-0.257432 -0.139805,-0.741283 z m 0.400403,0.585217 -0.03211,0.662666 q -0.0107,0.220888 0.05399,0.336483 0.06802,0.119271 0.225802,0.126916 0.154271,0.0075 0.233506,-0.104662 0.08257,-0.10846 0.09327,-0.329349 l 0.03414,-0.704739 0.413728,0.02004 -0.02939,0.606567 q -0.01002,0.206864 0.05483,0.318952 0.06819,0.115765 0.215452,0.1229 0.143753,0.007 0.219313,-0.101835 0.0789,-0.105124 0.08892,-0.311988 l 0.02735,-0.564493 z m -0.552516,2.096048 2.445007,0.244436 -0.05657,0.565845 -1.983949,-0.198343 -0.122568,1.225997 -0.461058,-0.04609 z m -0.229422,2.107791 2.434998,0.329545 -0.07627,0.563528 -2.434998,-0.329545 z m -0.333789,1.929637 q 0.05008,-0.290579 0.172091,-0.543828 0.12547,-0.252652 0.278025,-0.393775 l 0.389242,0.262995 q -0.137526,0.13659 -0.246538,0.335086 -0.10615,0.202552 -0.14371,0.420486 -0.02862,0.166046 -0.01477,0.271731 0.01671,0.10974 0.06717,0.168305 0.05046,0.05857 0.126566,0.07168 0.09686,0.01669 0.165324,-0.04987 0.07192,-0.06597 0.12798,-0.184541 0.05952,-0.117976 0.116881,-0.264819 0.06023,-0.142787 0.134891,-0.286649 0.07407,-0.140402 0.171633,-0.25182 0.09757,-0.111418 0.235814,-0.169519 0.13765,-0.05464 0.33137,-0.02125 0.207557,0.03577 0.357983,0.175681 0.15329,0.143966 0.214857,0.386109 0.06443,0.246198 0.0054,0.588667 -0.03935,0.228312 -0.132854,0.440167 -0.09005,0.212451 -0.226496,0.363474 L 80.264673,48.61345 q 0.126073,-0.152812 0.200257,-0.314566 0.07764,-0.161158 0.105664,-0.323744 0.02802,-0.162586 0.0079,-0.272923 -0.02017,-0.110336 -0.07468,-0.166038 -0.05106,-0.05511 -0.130621,-0.06882 -0.0934,-0.0161 -0.165324,0.04987 -0.06846,0.06656 -0.124521,0.185137 -0.05606,0.118573 -0.116284,0.26136 -0.06082,0.146246 -0.131432,0.287245 -0.0712,0.144458 -0.16877,0.255876 -0.09757,0.111418 -0.235218,0.166059 -0.138246,0.0581 -0.328507,0.02531 -0.204097,-0.03517 -0.353928,-0.178545 -0.14983,-0.143369 -0.21426,-0.389568 -0.06503,-0.242739 -0.0054,-0.588667 z m -0.214461,1.41665 2.398157,0.535402 -0.404611,1.812321 -0.445372,-0.09943 0.281468,-1.260746 -1.507413,-0.336538 -0.291411,1.305282 -0.445372,-0.09943 z m 0.88641,0.733804 0.431668,0.09637 -0.257758,1.154541 -0.431668,-0.09637 z m -1.411805,1.562703 2.366681,0.660782 -0.282248,1.010911 q -0.13782,0.493622 -0.444188,0.70329 -0.302987,0.210613 -0.705323,0.09828 -0.263716,-0.07363 -0.421505,-0.252532 -0.154407,-0.177959 -0.191646,-0.436184 -0.03724,-0.258226 0.05149,-0.576037 l 0.201066,-0.720147 0.172083,0.310452 -0.899339,-0.251097 z m -0.420068,1.504533 1.023962,-0.351901 -0.163307,0.584909 -1.025851,0.358663 z m 1.105625,-0.72271 0.32492,-0.171688 -0.19257,0.689719 q -0.0708,0.253573 0.0025,0.408876 0.07664,0.156247 0.26936,0.210054 0.196097,0.05475 0.339215,-0.04014 0.143118,-0.09489 0.213916,-0.348462 l 0.192571,-0.689718 0.192369,0.316116 z m -1.40419,1.696124 2.338531,0.754379 -0.174585,0.541203 -2.338531,-0.754379 z m -0.348411,1.09798 2.304358,0.85308 -0.163304,0.44112 -2.162455,0.745354 0.07921,-0.213976 1.659138,0.614218 -0.194989,0.52671 -2.304359,-0.85308 0.162086,-0.437828 2.163673,-0.748646 -0.07921,0.213976 -1.659138,-0.614217 z m -1.518282,3.723115 q 0.11711,-0.266781 0.299447,-0.455092 0.184141,-0.183686 0.415008,-0.281688 0.229456,-0.09479 0.482513,-0.09488 0.251646,0.0031 0.505569,0.114592 0.253924,0.111466 0.426556,0.294587 0.171221,0.186336 0.255348,0.422613 0.08413,0.236277 0.06893,0.497958 -0.01198,0.263092 -0.130504,0.533087 -0.13122,0.298923 -0.335272,0.493036 -0.205463,0.197327 -0.467061,0.278006 L 76.563021,59.88612 q 0.182186,-0.0657 0.306749,-0.183534 0.127778,-0.116421 0.202559,-0.286775 0.07196,-0.163926 0.07979,-0.321498 0.0078,-0.157573 -0.04485,-0.299543 -0.0541,-0.138756 -0.161895,-0.251247 -0.109208,-0.109277 -0.269919,-0.179825 -0.157497,-0.06914 -0.311856,-0.07556 -0.15577,-0.0032 -0.29774,0.04948 -0.140166,0.05731 -0.249443,0.16652 -0.110688,0.112422 -0.181236,0.273133 -0.06773,0.154283 -0.08301,0.320088 -0.01348,0.17043 0.04478,0.360847 l -0.505873,0.130626 q -0.05779,-0.243882 -0.02448,-0.520615 0.03189,-0.273519 0.137717,-0.514586 z m -0.113236,1.035201 0.276321,-0.446075 0.845341,0.371083 -0.208822,0.475706 z"
       id="text6"
       transform="translate(-3.474442,-1.9302456)"
       aria-label="KANALTILPASSNING OG  PUBLISERING" /><path
       style="font-size:10.6741px;line-height:1;font-family:Montserrat;-inkscape-font-specification:'Montserrat, @wght=700';font-variation-settings:'wght' 700;stroke-width:2.532;stroke-linecap:round;stroke-linejoin:round;paint-order:fill markers stroke"
       d="m 150.8836,55.865997 q -0.91798,0 -1.64382,-0.448313 -0.72583,-0.458986 -1.14212,-1.323588 -0.41629,-0.864602 -0.41629,-2.092124 0,-1.227521 0.41629,-2.092123 0.41629,-0.864602 1.14212,-1.312914 0.72584,-0.458987 1.64382,-0.458987 0.92864,0 1.64381,0.458987 0.72584,0.448312 1.14213,1.312914 0.41629,0.864602 0.41629,2.092123 0,1.227522 -0.41629,2.092124 -0.41629,0.864602 -1.14213,1.323588 -0.71517,0.448313 -1.64381,0.448313 z m 0,-1.462352 q 0.43763,0 0.75786,-0.245504 0.33089,-0.245505 0.51235,-0.77921 0.19214,-0.533705 0.19214,-1.376959 0,-0.843253 -0.19214,-1.376958 -0.18146,-0.533705 -0.51235,-0.77921 -0.32023,-0.245504 -0.75786,-0.245504 -0.42697,0 -0.75787,0.245504 -0.32022,0.245505 -0.51235,0.77921 -0.18146,0.533705 -0.18146,1.376958 0,0.843254 0.18146,1.376959 0.19213,0.533705 0.51235,0.77921 0.3309,0.245504 0.75787,0.245504 z m 4.8867,1.419655 q -0.42696,0 -0.73651,-0.2882 -0.29888,-0.298875 -0.29888,-0.757862 0,-0.458986 0.29888,-0.736512 0.30955,-0.288201 0.73651,-0.288201 0.43764,0 0.73651,0.288201 0.29888,0.277526 0.29888,0.736512 0,0.458987 -0.29888,0.757862 -0.29887,0.2882 -0.73651,0.2882 z"
       id="text7"
       aria-label="0." /><path
       style="font-size:10.6741px;line-height:1;font-family:Montserrat;-inkscape-font-specification:'Montserrat, @wght=700';font-variation-settings:'wght' 700;stroke-width:2.532;stroke-linecap:round;stroke-linejoin:round;paint-order:fill markers stroke"
       d="m 108.04781,79.860008 v -6.831424 l 0.74719,0.747187 h -2.24156 v -1.387633 h 3.22358 v 7.47187 z m 4.01347,0.08539 q -0.42697,0 -0.73651,-0.288201 -0.29888,-0.298874 -0.29888,-0.757861 0,-0.458986 0.29888,-0.736513 0.30954,-0.2882 0.73651,-0.2882 0.43764,0 0.73651,0.2882 0.29888,0.277527 0.29888,0.736513 0,0.458987 -0.29888,0.757861 -0.29887,0.288201 -0.73651,0.288201 z"
       id="text7-1"
       aria-label="1." /><path
       style="font-size:10.6741px;line-height:1;font-family:Montserrat;-inkscape-font-specification:'Montserrat, @wght=700';font-variation-settings:'wght' 700;stroke-width:2.532;stroke-linecap:round;stroke-linejoin:round;paint-order:fill markers stroke"
       d="m 137.41351,129.83672 v -1.12078 l 2.88201,-2.7219 q 0.34157,-0.30955 0.50168,-0.55505 0.16011,-0.24551 0.21348,-0.44832 0.064,-0.2028 0.064,-0.37359 0,-0.44831 -0.30955,-0.68314 -0.29888,-0.24551 -0.88595,-0.24551 -0.46966,0 -0.87528,0.18146 -0.39494,0.18146 -0.67247,0.56573 l -1.25954,-0.81123 q 0.42696,-0.64045 1.1955,-1.01404 0.76853,-0.37359 1.7719,-0.37359 0.83258,0 1.45168,0.27752 0.62977,0.26686 0.97134,0.75786 0.35224,0.49101 0.35224,1.17416 0,0.36291 -0.0961,0.72583 -0.0854,0.35225 -0.36292,0.74719 -0.26685,0.39494 -0.78989,0.88595 l -2.39099,2.25224 -0.3309,-0.62978 h 4.21627 v 1.40899 z m 7.45053,0.0854 q -0.42697,0 -0.73652,-0.2882 -0.29887,-0.29888 -0.29887,-0.75786 0,-0.45899 0.29887,-0.73652 0.30955,-0.2882 0.73652,-0.2882 0.43763,0 0.73651,0.2882 0.29887,0.27753 0.29887,0.73652 0,0.45898 -0.29887,0.75786 -0.29888,0.2882 -0.73651,0.2882 z"
       id="text7-7"
       aria-label="2." /><path
       style="font-size:10.6741px;line-height:1;font-family:Montserrat;-inkscape-font-specification:'Montserrat, @wght=700';font-variation-settings:'wght' 700;stroke-width:2.532;stroke-linecap:round;stroke-linejoin:round;paint-order:fill markers stroke"
       d="m 84.60048,149.01046 q -0.779209,0 -1.547744,-0.20281 -0.768536,-0.21348 -1.302241,-0.59775 l 0.672469,-1.32359 q 0.426964,0.30955 0.992691,0.49101 0.565727,0.18146 1.142129,0.18146 0.65112,0 1.024713,-0.25618 0.373594,-0.25618 0.373594,-0.70449 0,-0.42696 -0.330897,-0.67247 -0.330897,-0.2455 -1.06741,-0.2455 H 83.7679 v -1.14213 l 2.08145,-2.35897 0.192134,0.61909 h -3.917395 v -1.38763 h 5.230309 v 1.12078 l -2.070776,2.35898 -0.875276,-0.50169 h 0.501683 q 1.376959,0 2.081449,0.6191 0.704491,0.6191 0.704491,1.59044 0,0.62977 -0.330897,1.18483 -0.330897,0.54438 -1.01404,0.88595 -0.683142,0.34157 -1.750552,0.34157 z m 4.878074,-0.0427 q -0.426964,0 -0.736513,-0.2882 -0.298875,-0.29887 -0.298875,-0.75786 0,-0.45899 0.298875,-0.73651 0.309549,-0.2882 0.736513,-0.2882 0.437638,0 0.736513,0.2882 0.298875,0.27752 0.298875,0.73651 0,0.45899 -0.298875,0.75786 -0.298875,0.2882 -0.736513,0.2882 z"
       id="text7-2"
       aria-label="3." /><path
       style="font-size:10.6741px;line-height:1;font-family:Montserrat;-inkscape-font-specification:'Montserrat, @wght=700';font-variation-settings:'wght' 700;stroke-width:2.532;stroke-linecap:round;stroke-linejoin:round;paint-order:fill markers stroke"
       d="m 26.112319,120.2838 v -1.16347 l 3.522453,-4.7393 h 1.814597 l -3.447735,4.7393 -0.843253,-0.24551 h 5.881429 v 1.40898 z m 4.024135,1.5691 v -1.5691 l 0.05337,-1.40898 v -1.3983 h 1.633137 v 4.37638 z m 4.611208,0.0854 q -0.426964,0 -0.736513,-0.2882 -0.298875,-0.29888 -0.298875,-0.75786 0,-0.45899 0.298875,-0.73651 0.309549,-0.2882 0.736513,-0.2882 0.437638,0 0.736513,0.2882 0.298875,0.27752 0.298875,0.73651 0,0.45898 -0.298875,0.75786 -0.298875,0.2882 -0.736513,0.2882 z"
       id="text7-76"
       aria-label="4." /><path
       style="font-size:10.6741px;line-height:1;font-family:Montserrat;-inkscape-font-specification:'Montserrat, @wght=700';font-variation-settings:'wght' 700;stroke-width:2.532;stroke-linecap:round;stroke-linejoin:round;paint-order:fill markers stroke"
       d="m 43.796081,74.514228 q -0.779209,0 -1.547744,-0.202808 -0.757861,-0.213482 -1.302241,-0.597749 l 0.683143,-1.323589 q 0.426964,0.309549 0.982017,0.491009 0.565727,0.18146 1.142129,0.18146 0.65112,0 1.024713,-0.256179 0.373594,-0.256178 0.373594,-0.715165 0,-0.2882 -0.149438,-0.512356 -0.149437,-0.224156 -0.533705,-0.341572 -0.373593,-0.117415 -1.056735,-0.117415 H 41.50115 l 0.384267,-4.205595 h 4.557841 v 1.387633 h -3.938743 l 0.896624,-0.789883 -0.266852,2.999422 -0.896624,-0.789884 h 1.579766 q 1.110107,0 1.782575,0.309549 0.683142,0.298875 0.992691,0.821906 0.309549,0.523031 0.309549,1.184825 0,0.661794 -0.330897,1.227521 -0.330897,0.555054 -1.024713,0.907299 -0.683143,0.341571 -1.750553,0.341571 z m 4.792664,-0.0427 q -0.426964,0 -0.736513,-0.288201 -0.298875,-0.298875 -0.298875,-0.757861 0,-0.458986 0.298875,-0.736513 0.309549,-0.288201 0.736513,-0.288201 0.437638,0 0.736513,0.288201 0.298875,0.277527 0.298875,0.736513 0,0.458986 -0.298875,0.757861 -0.298875,0.288201 -0.736513,0.288201 z"
       id="text7-9"
       aria-label="5." /><path
       style="font-size:10.6741px;line-height:1;font-family:Montserrat;-inkscape-font-specification:'Montserrat, @wght=700';font-variation-settings:'wght' 700;stroke-width:2.532;stroke-linecap:round;stroke-linejoin:round;paint-order:fill markers stroke"
       d="m 59.477982,21.794378 q -1.024713,0 -1.782574,-0.426964 -0.747187,-0.426964 -1.152803,-1.24887 -0.405616,-0.821906 -0.405616,-2.028079 0,-1.291566 0.480335,-2.188191 0.491008,-0.896624 1.344936,-1.366284 0.864602,-0.469661 1.985383,-0.469661 0.597749,0 1.142129,0.128089 0.544379,0.12809 0.93932,0.384268 l -0.640446,1.270218 q -0.309549,-0.213482 -0.661794,-0.288201 -0.352245,-0.08539 -0.736513,-0.08539 -0.971343,0 -1.53707,0.587076 -0.565727,0.587075 -0.565727,1.739878 0,0.192134 0,0.426964 0.01067,0.23483 0.06404,0.469661 l -0.480334,-0.448313 q 0.202808,-0.416289 0.523031,-0.693816 0.320223,-0.288201 0.757861,-0.426964 0.448312,-0.149437 0.982017,-0.149437 0.725839,0 1.30224,0.2882 0.576401,0.288201 0.917973,0.811232 0.352245,0.523031 0.352245,1.227521 0,0.757861 -0.384268,1.323589 -0.373593,0.555053 -1.014039,0.864602 -0.629772,0.298875 -1.43033,0.298875 z m -0.09607,-1.291567 q 0.362919,0 0.640446,-0.128089 0.2882,-0.138763 0.448312,-0.394941 0.160111,-0.256179 0.160111,-0.587076 0,-0.512357 -0.352245,-0.811232 -0.341571,-0.309548 -0.917973,-0.309548 -0.384267,0 -0.672468,0.149437 -0.288201,0.138763 -0.458986,0.394942 -0.160112,0.245504 -0.160112,0.576401 0,0.320223 0.160112,0.576401 0.160111,0.245505 0.448312,0.394942 0.288201,0.138763 0.704491,0.138763 z m 4.643226,1.24887 q -0.426964,0 -0.736512,-0.288201 -0.298875,-0.298874 -0.298875,-0.757861 0,-0.458986 0.298875,-0.736513 0.309548,-0.2882 0.736512,-0.2882 0.437639,0 0.736513,0.2882 0.298875,0.277527 0.298875,0.736513 0,0.458987 -0.298875,0.757861 -0.298874,0.288201 -0.736513,0.288201 z"
       id="text7-3"
       aria-label="6." /></g></svg>
