<?xml version="1.0" encoding="UTF-8" standalone="no"?>
<!-- Created with Inkscape (http://www.inkscape.org/) -->

<svg
   width="147.89355mm"
   height="146.41151mm"
   viewBox="0 0 147.89355 146.41151"
   version="1.1"
   id="svg1"
   inkscape:version="1.4.2 (f4327f4, 2025-05-13)"
   sodipodi:docname="skjermbegrep.svg"
   xmlns:inkscape="http://www.inkscape.org/namespaces/inkscape"
   xmlns:sodipodi="http://sodipodi.sourceforge.net/DTD/sodipodi-0.dtd"
   xmlns="http://www.w3.org/2000/svg"
   xmlns:svg="http://www.w3.org/2000/svg">
  <sodipodi:namedview
     id="namedview1"
     pagecolor="#ffffff"
     bordercolor="#000000"
     borderopacity="0.25"
     inkscape:showpageshadow="2"
     inkscape:pageopacity="0.0"
     inkscape:pagecheckerboard="0"
     inkscape:deskcolor="#d1d1d1"
     inkscape:document-units="mm"
     showguides="true"
     inkscape:zoom="1"
     inkscape:cx="262"
     inkscape:cy="162"
     inkscape:window-width="1718"
     inkscape:window-height="1401"
     inkscape:window-x="1920"
     inkscape:window-y="0"
     inkscape:window-maximized="0"
     inkscape:current-layer="layer1" />
  <defs
     id="defs1">
    <inkscape:path-effect
       effect="roughen"
       id="path-effect44"
       is_visible="true"
       lpeversion="1.2"
       global_randomize="0.6;1"
       displace_x="0.749596;1"
       displace_y="0.77;1"
       method="size"
       max_segment_size="2.24879"
       segments="2"
       handles="along"
       shift_nodes="true"
       fixed_displacement="false"
       spray_tool_friendly="false" />
  </defs>
  <g
     inkscape:label="Layer 1"
     inkscape:groupmode="layer"
     id="layer1"
     transform="translate(-35.46634,-63.682464)">
    <path
       style="baseline-shift:baseline;display:inline;overflow:visible;vector-effect:none;fill:#f9f9f9;stroke:#000000;stroke-width:1;stroke-linecap:round;stroke-linejoin:round;stroke-dasharray:none;paint-order:fill markers stroke;enable-background:accumulate;stop-color:#000000"
       d="M 58.603859,68.712333 H 151.0432 V 180.0162 H 58.603859 Z"
       id="path75" />
    <path
       id="rect69"
       style="fill:#eef4d7;stroke-width:0.264999;stroke-linecap:round;stroke-linejoin:round;paint-order:fill markers stroke"
       d="M 71.305748,82.502922 H 138.34131 V 165.70358 H 71.305748 Z" />
    <path
       style="baseline-shift:baseline;display:inline;overflow:visible;opacity:1;vector-effect:none;fill:#ff5555;stroke-width:0.999998;stroke-linecap:round;stroke-linejoin:round;paint-order:markers stroke fill;enable-background:accumulate;stop-color:#000000;stop-opacity:1"
       d="m 63.603516,74.653575 a 0.13230472,0.11408258 0 0 0 -0.132813,0.114521 V 174.0994 a 0.13230472,0.11408258 0 0 0 0.132813,0.11453 h 82.439454 a 0.13230472,0.11408258 0 0 0 0.13281,-0.11453 V 74.768096 a 0.13230472,0.11408258 0 0 0 -0.13281,-0.114521 z m 0.132812,0.22904 H 145.91016 V 173.98489 H 63.736328 Z"
       id="rect1" />
    <path
       id="rect2-1"
       style="fill:#e3dedb;stroke-width:0.264583;stroke-linecap:round;stroke-linejoin:round;paint-order:markers stroke fill"
       d="m 71.305748,153.18285 h 15.113624 v 12.52077 H 71.305748 Z" />
    <path
       id="rect2-1-8"
       style="fill:#e3dedb;stroke-width:0.264583;stroke-linecap:round;stroke-linejoin:round;paint-order:markers stroke fill"
       d="M 88.480743,153.18285 H 103.72668 V 165.7036 H 88.480743 Z" />
    <path
       id="rect2-1-8-9"
       style="fill:#e3dedb;stroke-width:0.264583;stroke-linecap:round;stroke-linejoin:round;paint-order:markers stroke fill"
       d="M 105.78806,153.18285 H 121.034 v 12.52075 h -15.24594 z" />
    <path
       id="rect2-1-8-9-3"
       style="fill:#e3dedb;stroke-width:0.264583;stroke-linecap:round;stroke-linejoin:round;paint-order:markers stroke fill"
       d="M 123.09537,153.18285 H 138.3413 V 165.7036 H 123.09537 Z" />
    <path
       id="rect9"
       style="fill:#e3dedb;stroke-width:0.264583;stroke-linecap:round;stroke-linejoin:round;paint-order:markers stroke fill"
       d="m 71.305748,138.98915 h 15.113624 v 12.1384 H 71.305748 Z" />
    <path
       id="rect10"
       style="fill:#e3dedb;stroke-width:0.264583;stroke-linecap:round;stroke-linejoin:round;paint-order:markers stroke fill"
       d="m 88.480743,138.98915 h 15.245937 v 12.52076 H 88.480743 Z" />
    <path
       id="rect11"
       style="fill:#e3dedb;stroke-width:0.264583;stroke-linecap:round;stroke-linejoin:round;paint-order:markers stroke fill"
       d="m 105.78806,138.98915 h 15.24593 v 12.52076 h -15.24593 z" />
    <path
       id="rect12"
       style="fill:#e3dedb;stroke-width:0.264583;stroke-linecap:round;stroke-linejoin:round;paint-order:markers stroke fill"
       d="m 123.09537,138.98915 h 15.24593 v 12.52076 h -15.24593 z" />
    <path
       id="rect14"
       style="fill:#e3dedb;stroke-width:0.264583;stroke-linecap:round;stroke-linejoin:round;paint-order:markers stroke fill"
       d="m 71.305748,124.79546 h 15.113624 v 12.13841 H 71.305748 Z" />
    <path
       id="rect15"
       style="fill:#e3dedb;stroke-width:0.264583;stroke-linecap:round;stroke-linejoin:round;paint-order:markers stroke fill"
       d="m 88.480743,124.79546 h 15.245937 v 12.52076 H 88.480743 Z" />
    <path
       id="rect16"
       style="fill:#e3dedb;stroke-width:0.264583;stroke-linecap:round;stroke-linejoin:round;paint-order:markers stroke fill"
       d="m 105.78806,124.79546 h 15.24593 v 12.52076 h -15.24593 z" />
    <path
       id="rect17"
       style="fill:#e3dedb;stroke-width:0.264583;stroke-linecap:round;stroke-linejoin:round;paint-order:markers stroke fill"
       d="m 123.09537,124.79546 h 15.24593 v 12.52076 h -15.24593 z" />
    <path
       id="rect19"
       style="fill:#e3dedb;stroke-width:0.264583;stroke-linecap:round;stroke-linejoin:round;paint-order:markers stroke fill"
       d="m 71.305748,110.60179 h 15.113624 v 12.1384 H 71.305748 Z" />
    <path
       id="rect20"
       style="fill:#e3dedb;stroke-width:0.264583;stroke-linecap:round;stroke-linejoin:round;paint-order:markers stroke fill"
       d="m 88.480743,110.60179 h 15.245937 v 12.52076 H 88.480743 Z" />
    <path
       id="rect21"
       style="fill:#e3dedb;stroke-width:0.264583;stroke-linecap:round;stroke-linejoin:round;paint-order:markers stroke fill"
       d="m 105.78806,110.60179 h 15.24593 v 12.52076 h -15.24593 z" />
    <path
       id="rect22"
       style="fill:#e3dedb;stroke-width:0.264583;stroke-linecap:round;stroke-linejoin:round;paint-order:markers stroke fill"
       d="m 123.09537,110.60179 h 15.24593 v 12.52076 h -15.24593 z" />
    <path
       style="baseline-shift:baseline;display:inline;overflow:visible;opacity:1;vector-effect:none;fill:#0000ff;stroke-linecap:round;stroke-linejoin:round;paint-order:markers stroke fill;enable-background:accumulate;stop-color:#000000;stop-opacity:1"
       d="m 71.306641,110.46875 a 0.13230472,0.13230472 0 0 0 -0.132813,0.13281 v 12.13867 a 0.13230472,0.13230472 0 0 0 0.132813,0.13282 H 138.3418 a 0.13230472,0.13230472 0 0 0 0.13086,-0.13282 v -12.13867 a 0.13230472,0.13230472 0 0 0 -0.13086,-0.13281 z m 0.130859,0.26563 h 66.77148 v 11.87304 H 71.4375 Z"
       id="rect70" />
    <path
       id="rect24"
       style="fill:#e3dedb;stroke-width:0.264583;stroke-linecap:round;stroke-linejoin:round;paint-order:markers stroke fill"
       d="M 71.305748,96.408104 H 86.419372 V 108.54651 H 71.305748 Z" />
    <path
       id="rect25"
       style="fill:#e3dedb;stroke-width:0.264583;stroke-linecap:round;stroke-linejoin:round;paint-order:markers stroke fill"
       d="M 88.480743,96.408104 H 103.72668 V 108.92886 H 88.480743 Z" />
    <path
       id="rect26"
       style="fill:#e3dedb;stroke-width:0.264583;stroke-linecap:round;stroke-linejoin:round;paint-order:markers stroke fill"
       d="m 105.78806,96.408104 h 15.24593 v 12.520756 h -15.24593 z" />
    <path
       id="rect27"
       style="fill:#e3dedb;stroke-width:0.264583;stroke-linecap:round;stroke-linejoin:round;paint-order:markers stroke fill"
       d="M 123.09537,96.408104 H 138.3413 V 108.92886 H 123.09537 Z" />
    <path
       id="rect29"
       style="fill:#e3dedb;stroke-width:0.264583;stroke-linecap:round;stroke-linejoin:round;paint-order:markers stroke fill"
       d="M 71.305748,82.46981 H 86.419372 V 94.608212 H 71.305748 Z" />
    <path
       id="rect30"
       style="fill:#e3dedb;stroke-width:0.264583;stroke-linecap:round;stroke-linejoin:round;paint-order:markers stroke fill"
       d="M 88.480743,82.46981 H 103.72668 V 94.990568 H 88.480743 Z" />
    <path
       id="rect31"
       style="fill:#e3dedb;stroke-width:0.264583;stroke-linecap:round;stroke-linejoin:round;paint-order:markers stroke fill"
       d="m 105.78806,82.46981 h 15.24593 v 12.520758 h -15.24593 z" />
    <path
       id="rect32"
       style="fill:#e3dedb;stroke-width:0.264583;stroke-linecap:round;stroke-linejoin:round;paint-order:markers stroke fill"
       d="M 123.09537,82.46981 H 138.3413 V 94.990568 H 123.09537 Z" />
    <path
       style="font-size:4.23333px;line-height:1;font-family:Handlee;-inkscape-font-specification:Handlee;letter-spacing:0px;fill:#ff5555;stroke-width:0.265;stroke-linecap:round;stroke-linejoin:round;stroke-dasharray:1, 1;paint-order:fill markers stroke"
       d="m 172.79329,123.28121 q 0.16087,-0.10583 0.35137,-0.15663 0.19049,-0.0508 0.37676,-0.0508 0.18627,0 0.34713,0.0254 0.1651,0.0212 0.33444,0.0762 0.17356,0.055 0.28363,0.16933 0.11007,0.1143 0.12277,0.27093 0.004,0.0635 -0.0508,0.0974 -0.0508,0.0296 -0.11854,0.0296 -0.0635,0 -0.0974,-0.0296 -0.0296,-0.0339 -0.0593,-0.0974 -0.16087,-0.32596 -0.70273,-0.32596 -0.3683,0 -0.60537,0.15663 -0.23283,0.15663 -0.23283,0.4572 0,0.16933 0.10583,0.2921 0.10584,0.11853 0.27517,0.18627 0.17356,0.0677 0.37676,0.12276 0.20744,0.055 0.41064,0.12277 0.20743,0.0677 0.37676,0.16087 0.17357,0.0931 0.2794,0.26246 0.10584,0.1651 0.10584,0.39794 0,0.33866 -0.33444,0.57573 -0.3302,0.23706 -0.83396,0.23706 -0.38947,0 -0.762,-0.1651 -0.37253,-0.1651 -0.37253,-0.33866 0,-0.0466 0.055,-0.0847 0.055,-0.0423 0.10583,-0.0423 0.055,0 0.1016,0.0339 0.0466,0.0296 0.10584,0.0847 0.0593,0.055 0.10583,0.0847 0.32173,0.2032 0.71966,0.2032 0.2794,0 0.5461,-0.16934 0.2667,-0.17356 0.2667,-0.46143 0,-0.19473 -0.14393,-0.32173 -0.14393,-0.13123 -0.35983,-0.18627 -0.2159,-0.0593 -0.4699,-0.13123 -0.24977,-0.072 -0.46567,-0.14817 -0.2159,-0.0762 -0.35983,-0.24553 -0.14393,-0.16933 -0.14393,-0.40217 0,-0.23706 0.0974,-0.41063 0.1016,-0.1778 0.26247,-0.2794 z m 3.64913,1.62983 -0.0212,0.48684 q 0,0.3683 0.0847,0.49529 0.0508,0.0847 0.1397,0.0847 0.0254,0 0.072,-0.0127 0.0889,-0.0254 0.14817,0.0254 -0.0296,0.14817 -0.29634,0.14817 -0.18203,0 -0.2413,-0.1524 -0.0466,-0.1143 -0.0677,-0.28363 -0.0212,-0.17357 -0.0339,-0.23707 -0.27516,0.52493 -0.5334,0.63923 -0.13123,0.0593 -0.3048,0.0593 -0.17356,0 -0.27093,-0.1651 -0.0931,-0.16934 -0.0931,-0.49107 0,-0.32173 0.10583,-0.6731 0.10583,-0.3556 0.30903,-0.5969 0.2032,-0.24553 0.4445,-0.24553 0.34714,0 0.46144,0.28787 0.0974,0.24553 0.0974,0.63076 z m -1.03716,-0.13546 q -0.0593,0.2286 -0.0889,0.43603 -0.0296,0.2032 -0.0296,0.36407 0,0.15663 0.0635,0.27093 0.0677,0.1143 0.17357,0.1143 0.2286,0 0.44027,-0.4318 0.21166,-0.4318 0.21166,-0.80433 0,-0.2413 -0.127,-0.39794 -0.0847,-0.1016 -0.22436,-0.1016 -0.13547,0 -0.24977,0.16087 -0.11007,0.15663 -0.16933,0.38947 z m 1.91769,1.38429 q -0.0762,0 -0.0762,-1.28269 0,-0.54187 -0.004,-0.65617 h -0.0847 q -0.0593,0 -0.0931,0 -0.0339,-0.004 -0.0889,-0.004 -0.0508,-0.004 -0.0847,-0.0127 -0.0296,-0.008 -0.0635,-0.0212 -0.0635,-0.0254 -0.0635,-0.0889 0,-0.0804 0.26247,-0.0804 0.1143,0 0.20743,0.008 0.004,-0.0847 0.004,-0.2159 0.004,-0.13546 0.008,-0.20743 0.004,-0.0762 0.008,-0.18203 0.008,-0.10584 0.0212,-0.1651 0.0169,-0.0593 0.0423,-0.13124 0.0254,-0.0762 0.0677,-0.1143 0.0423,-0.0381 0.0974,-0.0762 0.0974,-0.072 0.32173,-0.072 0.2286,0 0.33444,0.1143 0.11006,0.11006 0.19473,0.37676 -0.0635,0.0762 -0.14817,0.0762 -0.0296,0 -0.0593,-0.008 -0.0762,-0.2032 -0.1397,-0.27517 -0.0593,-0.072 -0.1651,-0.072 -0.10584,0 -0.16087,0.0381 -0.0508,0.0381 -0.0804,0.0974 -0.0635,0.127 -0.0635,0.61383 0,0.0212 0,0.0762 0,0.055 0,0.1016 l 0.35983,-0.0339 q 0.21167,0 0.21167,0.0974 0,0.0635 -0.1016,0.0847 -0.1016,0.0212 -0.25824,0.0254 -0.1524,0.004 -0.21166,0.0254 -0.008,0.11853 -0.008,0.31327 0,0.1905 0.0212,0.6096 0.0212,0.41486 0.0212,0.635 0,0.22013 -0.0466,0.31326 -0.0423,0.0931 -0.18204,0.0931 z m 1.12606,-0.88899 q -0.008,0.0847 -0.008,0.1143 0,0.254 0.1524,0.3937 0.15663,0.13969 0.3683,0.13969 0.21166,0 0.3429,-0.0593 0.13546,-0.0593 0.19473,-0.127 0.1524,-0.1905 0.2794,-0.1905 0.0466,0 0.11007,0.0254 -0.0423,0.20743 -0.32174,0.381 -0.27516,0.16933 -0.69426,0.16933 -0.29634,0 -0.51224,-0.18627 -0.21166,-0.19049 -0.21166,-0.51646 0,-0.32597 0.127,-0.63077 0.13123,-0.30903 0.37253,-0.52493 0.24553,-0.22013 0.4953,-0.22013 0.254,0 0.4064,0.10583 0.15663,0.1016 0.15663,0.30057 0,0.3683 -0.3302,0.6096 -0.32596,0.23706 -0.69426,0.23706 -0.0974,0 -0.23284,-0.0212 z m 0.32174,-0.1397 q 0.19896,0 0.3556,-0.127 0.15663,-0.127 0.22013,-0.2667 0.0677,-0.1397 0.0677,-0.254 0,-0.1143 -0.0889,-0.19897 -0.0889,-0.0889 -0.20743,-0.0889 -0.21167,0 -0.3937,0.2921 -0.1778,0.2921 -0.254,0.60537 0.18627,0.0381 0.30057,0.0381 z m 1.46896,-0.7747 q -0.1905,0 -0.25823,-0.0931 0,-0.0677 0.055,-0.10583 0.0593,-0.0381 0.127,-0.0466 0.0677,-0.0127 0.22013,-0.0212 0.0127,-0.1143 0.0127,-0.2921 0.004,-0.18204 0.008,-0.30904 0.0127,-0.33443 0.1016,-0.41063 0.0381,-0.0339 0.0804,-0.0339 0.0466,0 0.0804,0.008 0.0127,0.3048 0.0127,0.3683 l -0.0254,0.635 q 0.008,0.004 0.0466,0.004 l 0.3048,-0.0127 q 0.3302,0 0.3302,0.1016 0,0.14394 -0.11853,0.16934 -0.055,0.0127 -0.13123,0.0127 -0.072,0 -0.1905,-0.0169 -0.1143,-0.0212 -0.1651,-0.0212 -0.0508,0 -0.0677,0.004 -0.0127,0.12277 -0.0127,0.24553 0,0.11854 0.004,0.30057 0.008,0.1778 0.0339,0.42757 0.0296,0.24976 0.12277,0.4318 0.0931,0.17779 0.23707,0.17779 0.072,0 0.16933,-0.055 0.0974,-0.0593 0.14817,-0.0593 0.055,0 0.0931,0.0254 0.0423,0.0212 0.0423,0.0508 0,0.0889 -0.18203,0.17357 -0.1778,0.0804 -0.3048,0.0804 -0.46567,0 -0.57997,-0.88053 -0.0339,-0.254 -0.0508,-0.87206 -0.0677,0.0127 -0.14393,0.0127 z m 2.52306,-0.004 q 0,-0.3048 0.19474,-0.3048 0.0381,0 0.0762,0.008 0,0.0508 0,0.27517 0,0.22436 0.0593,0.89746 0.0593,0.6731 0.0593,1.00753 0,0.5334 -0.18627,0.7366 -0.18626,0.2032 -0.635,0.2032 -0.4445,0 -0.83819,-0.28786 0.0762,-0.0931 0.19896,-0.0931 0.0466,0.004 0.14817,0.0635 0.30056,0.1778 0.49953,0.1778 0.29633,0 0.4191,-0.18626 0.12277,-0.18627 0.12277,-0.62654 0,-0.10583 -0.0212,-0.76199 -0.004,0.0127 -0.0296,0.11006 -0.0254,0.0931 -0.0381,0.12277 -0.0127,0.0296 -0.0466,0.11007 -0.0296,0.0804 -0.0635,0.11429 -0.0339,0.0339 -0.0889,0.0804 -0.0931,0.0847 -0.23707,0.0847 -0.1397,0 -0.22436,-0.0381 -0.0847,-0.0381 -0.14394,-0.11853 -0.055,-0.0804 -0.1016,-0.16933 -0.0423,-0.0889 -0.0677,-0.22437 -0.0254,-0.1397 -0.0423,-0.254 -0.0127,-0.1143 -0.0212,-0.2794 -0.004,-0.1651 -0.008,-0.27516 0,-0.11007 0,-0.2794 v -0.254 q 0.0423,-0.072 0.1524,-0.072 0.1524,0 0.1524,0.11007 l -0.0254,0.41063 q 0,0.53763 0.1143,0.9271 0.1143,0.38946 0.23707,0.38946 0.0931,0 0.1651,-0.1016 0.072,-0.10159 0.11007,-0.28363 0.0381,-0.18626 0.0635,-0.35136 0.0254,-0.1651 0.0339,-0.38524 0.0127,-0.33443 0.0127,-0.4826 z"
       id="text47"
       aria-label="Safety" />
    <path
       style="font-size:4.23333px;line-height:1;font-family:Handlee;-inkscape-font-specification:Handlee;letter-spacing:0px;fill:#0000ff;stroke-width:0.265;stroke-linecap:round;stroke-linejoin:round;stroke-dasharray:1, 1;paint-order:fill markers stroke"
       d="m 35.775377,117.51766 0.0127,0.63923 q 0,0.13124 -0.05927,0.1778 -0.05927,0.0466 -0.110067,0.0466 -0.0508,0 -0.09737,-0.0127 -0.05503,-0.45297 -0.05503,-0.88477 0,-0.4318 0.0254,-0.9779 0.02963,-0.5461 0.03387,-0.86359 0,-0.33867 0.905933,-0.33867 0.478366,0 0.901699,0.19897 0.220133,0.1016 0.359833,0.28786 0.1397,0.18203 0.1397,0.41063 0,0.22437 -0.1016,0.4064 -0.1016,0.18204 -0.258233,0.3048 -0.156633,0.11854 -0.359833,0.20744 -0.334433,0.1524 -0.745066,0.2032 0.2032,0.1143 0.660399,0.55033 0.135467,0.13123 0.3429,0.23707 0.207433,0.1016 0.427566,0.1016 0.02117,0 0.0889,-0.008 0.06773,-0.0127 0.1143,-0.0169 0.04657,-0.004 0.08467,0.0212 0.04233,0.0212 0.04233,0.0804 0,0.14393 -0.359833,0.14393 -0.4191,0 -0.833966,-0.32173 -0.182033,-0.13547 -0.3556,-0.2794 -0.427566,-0.35984 -0.800099,-0.45297 -0.0042,0.0381 -0.0042,0.1397 z m 1.739898,-1.26577 q 0,-0.3556 -0.321733,-0.53339 -0.3175,-0.18204 -0.808566,-0.18204 -0.309033,0 -0.575733,0.0677 0,0.33443 -0.02117,0.74506 -0.02117,0.4064 -0.02117,0.5588 0,0.1524 0.0042,0.22437 0.626533,-0.0466 0.969433,-0.14817 0.368299,-0.10583 0.550333,-0.26247 0.224366,-0.19473 0.224366,-0.4699 z m 2.146302,0.85937 -0.02117,0.48683 q 0,0.3683 0.08467,0.4953 0.0508,0.0847 0.1397,0.0847 0.0254,0 0.07197,-0.0127 0.0889,-0.0254 0.148166,0.0254 -0.02963,0.14817 -0.296333,0.14817 -0.182033,0 -0.241299,-0.1524 -0.04657,-0.1143 -0.06773,-0.28364 -0.02117,-0.17356 -0.03387,-0.23706 -0.275167,0.52493 -0.5334,0.63923 -0.131233,0.0593 -0.3048,0.0593 -0.173566,0 -0.270933,-0.1651 -0.09313,-0.16934 -0.09313,-0.49107 0,-0.32173 0.105833,-0.6731 0.105834,-0.3556 0.309033,-0.5969 0.2032,-0.24553 0.4445,-0.24553 0.347133,0 0.461433,0.28786 0.09737,0.24554 0.09737,0.63077 z m -1.037166,-0.13547 q -0.05927,0.2286 -0.0889,0.43604 -0.02963,0.2032 -0.02963,0.36406 0,0.15664 0.0635,0.27094 0.06773,0.1143 0.173567,0.1143 0.2286,0 0.440266,-0.4318 0.211667,-0.4318 0.211667,-0.80434 0,-0.2413 -0.127,-0.39793 -0.08467,-0.1016 -0.224367,-0.1016 -0.135466,0 -0.249766,0.16087 -0.110067,0.15663 -0.169333,0.38946 z m 3.191928,-2.03623 q -0.160867,1.45627 -0.160867,2.07857 0,0.61806 0.1143,1.23613 -0.08467,0.0847 -0.148167,0.0847 -0.0635,0 -0.105833,-0.0169 -0.0889,-0.31326 -0.105833,-0.68156 -0.1016,0.16086 -0.1524,0.2286 -0.04657,0.0677 -0.1651,0.19896 -0.2159,0.254 -0.512233,0.254 -0.224366,0 -0.325966,-0.20743 -0.09737,-0.21167 -0.09737,-0.53763 0,-0.3302 0.07197,-0.62654 0.0762,-0.30056 0.258233,-0.51646 0.182033,-0.22014 0.448733,-0.22014 0.160867,0 0.296333,0.0677 0.135467,0.0677 0.186267,0.18203 0.0085,-0.1143 0.01693,-0.35137 0.0085,-0.23706 0.01693,-0.41909 0.0127,-0.18627 0.0381,-0.37677 0.04657,-0.4064 0.207433,-0.4064 0.05503,0 0.118534,0.0296 z m -0.4953,1.6764 q -0.0508,-0.0931 -0.1397,-0.13547 -0.0889,-0.0466 -0.237066,-0.0466 -0.143934,0 -0.270933,0.1651 -0.249767,0.32596 -0.249767,0.94403 0,0.19897 0.0635,0.39793 0.0635,0.19474 0.186267,0.19474 0.177799,0 0.347133,-0.23284 0.169333,-0.23283 0.262466,-0.5334 0.09313,-0.3048 0.09313,-0.5461 0,-0.1143 -0.05503,-0.20743 z"
       id="text49"
       aria-label="Rad" />
    <path
       style="font-size:4.23333px;line-height:1;font-family:Handlee;-inkscape-font-specification:Handlee;letter-spacing:0px;fill:#800080;stroke-width:0.265;stroke-linecap:round;stroke-linejoin:round;stroke-dasharray:1, 1;paint-order:fill markers stroke"
       d="m 89.724088,207.03759 0.0127,0.99483 q 0,0.21167 -0.0127,0.41064 0.372533,-0.14817 0.660399,-0.35137 0.2921,-0.20743 0.448733,-0.38947 0.156633,-0.18626 0.270933,-0.34713 0.118533,-0.1651 0.2032,-0.26247 0.0889,-0.0974 0.1651,-0.0974 0.0762,0 0.148166,0.055 -0.173566,0.43603 -0.491066,0.75353 -0.313266,0.31327 -0.795866,0.63924 0.224367,0.1143 0.423333,0.32596 0.2032,0.20744 0.334433,0.41064 0.3683,0.56303 0.690033,0.80433 -0.07197,0.11006 -0.211667,0.11006 -0.135466,0 -0.330199,-0.2159 -0.194733,-0.22013 -0.359833,-0.48683 -0.1651,-0.2667 -0.376767,-0.51646 -0.211666,-0.254 -0.389466,-0.3048 -0.03387,0.0127 -0.173567,0.0804 -0.135466,0.0635 -0.215899,0.0889 0,0.71543 -0.02117,1.20226 -0.0762,0.0762 -0.275166,0.0762 -0.0085,-0.127 -0.0085,-0.57996 l 0.01693,-2.31563 q 0.0508,-0.0931 0.1905,-0.0931 0.04657,0 0.09737,0.008 z m 2.366425,1.2319 q 0.2159,-0.3302 0.6223,-0.3302 0.406399,0 0.647699,0.3302 0.245533,0.3302 0.245533,0.75353 0,0.4191 -0.266699,0.7112 -0.2667,0.2921 -0.677333,0.2921 -0.410633,0 -0.5969,-0.2286 -0.186266,-0.23283 -0.186266,-0.65193 0,-0.5461 0.211666,-0.8763 z m 0.186267,0.22437 q -0.05503,0.1651 -0.08467,0.3302 -0.0254,0.1651 -0.0254,0.30903 0,0.1397 0.02117,0.25823 0.02117,0.1143 0.07197,0.2286 0.0508,0.11007 0.1524,0.1778 0.1016,0.0635 0.2413,0.0635 0.283633,0 0.474133,-0.23283 0.194733,-0.23283 0.194733,-0.56303 0,-0.3302 -0.1778,-0.63924 -0.173566,-0.31326 -0.427566,-0.31326 -0.1524,0 -0.2667,0.10583 -0.1143,0.10583 -0.173566,0.27517 z m 1.88383,-0.99907 q 0,-0.4191 -0.1143,-0.56303 0.05503,-0.0804 0.1905,-0.0804 0.0254,0 0.05503,0.004 0.105834,0.10583 0.105834,0.61383 0,0.27517 -0.0254,0.63923 -0.0508,0.635 -0.0508,0.93134 0,0.80009 0.309033,0.80009 0,0 0.156633,-0.0296 0.0381,0 0.0635,0.0339 -0.0127,0.1524 -0.249766,0.1524 -0.232834,0 -0.359833,-0.1397 -0.127,-0.14393 -0.160867,-0.3556 -0.02963,-0.2159 -0.02963,-0.3556 0,-0.1397 0.0042,-0.3048 0.0042,-0.16933 0.0381,-0.4826 0.06773,-0.635 0.06773,-0.8636 z m 1.01177,0.7747 q 0.2159,-0.3302 0.622299,-0.3302 0.4064,0 0.6477,0.3302 0.245533,0.3302 0.245533,0.75353 0,0.4191 -0.2667,0.7112 -0.266699,0.2921 -0.677332,0.2921 -0.410633,0 -0.5969,-0.2286 -0.186266,-0.23283 -0.186266,-0.65193 0,-0.5461 0.211666,-0.8763 z m 0.186267,0.22437 q -0.05503,0.1651 -0.08467,0.3302 -0.0254,0.1651 -0.0254,0.30903 0,0.1397 0.02117,0.25823 0.02117,0.1143 0.07197,0.2286 0.0508,0.11007 0.1524,0.1778 0.1016,0.0635 0.2413,0.0635 0.283633,0 0.474133,-0.23283 0.194733,-0.23283 0.194733,-0.56303 0,-0.3302 -0.1778,-0.63924 -0.173566,-0.31326 -0.427566,-0.31326 -0.1524,0 -0.2667,0.10583 -0.1143,0.10583 -0.173566,0.27517 z m 3.484029,1.41393 q -0.0762,0.0804 -0.173566,0.0804 -0.182034,0 -0.270934,-0.19473 -0.0889,-0.19473 -0.105833,-0.47413 -0.0127,-0.2794 -0.01693,-0.5588 -0.0042,-0.2794 -0.04657,-0.47414 -0.0381,-0.19473 -0.148166,-0.19473 -0.148167,0 -0.254,0.2667 -0.1016,0.2667 -0.143933,0.59267 -0.118533,0.91016 -0.2286,1.02023 -0.0762,0.0381 -0.131233,0.0381 -0.05503,0 -0.09313,-0.0127 -0.0889,-0.38947 -0.114299,-1.34197 -0.0085,-0.47413 -0.01693,-0.61383 0.0889,-0.0593 0.1524,-0.0593 0.0635,0 0.1016,0.0127 0.02117,0.18204 0.02117,0.74507 0.0042,0.56303 0.0085,0.6477 0.02117,-0.0889 0.0508,-0.28787 0.03387,-0.19896 0.05927,-0.32596 0.0254,-0.13124 0.08043,-0.3048 0.05503,-0.17357 0.122767,-0.27517 0.06773,-0.10583 0.186266,-0.1778 0.118533,-0.0762 0.2667,-0.0762 0.198967,0 0.287866,0.18203 0.09313,0.1778 0.1016,0.4445 0.0085,0.2667 0.0085,0.54187 0.0042,0.27517 0.06773,0.50377 0.06773,0.22859 0.2286,0.29633 z m 2.015064,0 q -0.0762,0.0804 -0.17357,0.0804 -0.18203,0 -0.27093,-0.19473 -0.0889,-0.19473 -0.10583,-0.47413 -0.0127,-0.2794 -0.0169,-0.5588 -0.004,-0.2794 -0.0466,-0.47414 -0.0381,-0.19473 -0.14817,-0.19473 -0.148166,0 -0.253999,0.2667 -0.1016,0.2667 -0.143933,0.59267 -0.118533,0.91016 -0.2286,1.02023 -0.0762,0.0381 -0.131233,0.0381 -0.05503,0 -0.09313,-0.0127 -0.0889,-0.38947 -0.1143,-1.34197 -0.0085,-0.47413 -0.01693,-0.61383 0.0889,-0.0593 0.1524,-0.0593 0.0635,0 0.1016,0.0127 0.02117,0.18204 0.02117,0.74507 0.0042,0.56303 0.0085,0.6477 0.02117,-0.0889 0.0508,-0.28787 0.03387,-0.19896 0.05927,-0.32596 0.0254,-0.13124 0.08043,-0.3048 0.05503,-0.17357 0.122767,-0.27517 0.06773,-0.10583 0.186267,-0.1778 0.118531,-0.0762 0.266691,-0.0762 0.19897,0 0.28787,0.18203 0.0931,0.1778 0.1016,0.4445 0.008,0.2667 0.008,0.54187 0.004,0.27517 0.0677,0.50377 0.0677,0.22859 0.2286,0.29633 z m 0.49107,-0.74083 q -0.008,0.0847 -0.008,0.1143 0,0.254 0.1524,0.3937 0.15663,0.13969 0.3683,0.13969 0.21167,0 0.3429,-0.0593 0.13547,-0.0593 0.19473,-0.127 0.1524,-0.1905 0.2794,-0.1905 0.0466,0 0.11007,0.0254 -0.0423,0.20743 -0.32174,0.381 -0.27516,0.16933 -0.69426,0.16933 -0.29633,0 -0.51223,-0.18627 -0.21167,-0.19049 -0.21167,-0.51646 0,-0.32597 0.127,-0.63077 0.13123,-0.30903 0.37253,-0.52493 0.24554,-0.22013 0.4953,-0.22013 0.254,0 0.4064,0.10583 0.15663,0.1016 0.15663,0.30057 0,0.3683 -0.33019,0.6096 -0.32597,0.23706 -0.69427,0.23706 -0.0974,0 -0.23283,-0.0212 z m 0.32173,-0.1397 q 0.19897,0 0.3556,-0.127 0.15663,-0.127 0.22013,-0.2667 0.0677,-0.1397 0.0677,-0.254 0,-0.1143 -0.0889,-0.19897 -0.0889,-0.0889 -0.20744,-0.0889 -0.21166,0 -0.3937,0.2921 -0.1778,0.2921 -0.254,0.60537 0.18627,0.0381 0.30057,0.0381 z"
       id="text50"
       aria-label="Kolonne" />
    <g
       id="text52"
       style="font-size:4.23333px;line-height:1;font-family:Handlee;-inkscape-font-specification:Handlee;letter-spacing:0px;stroke-width:0.264999;stroke-linecap:round;stroke-linejoin:round;stroke-dasharray:1, 1;paint-order:fill markers stroke"
       aria-label="Cell&#10;/module">
      <path
         style="stroke-width:0.265"
         d="m 109.24967,142.05125 q -0.0635,0.0593 -0.11007,0.0847 -0.0466,0.0254 -0.0931,0.004 -0.0423,-0.0212 -0.0593,-0.0339 -0.0169,-0.0127 -0.0677,-0.0804 -0.0466,-0.072 -0.0593,-0.0889 -0.2159,-0.2667 -0.5588,-0.2667 -0.33866,0 -0.63923,0.22014 -0.29633,0.2159 -0.47836,0.5715 -0.18204,0.3556 -0.18204,0.74083 0,0.47413 0.31327,0.7747 0.3175,0.30056 0.8382,0.30056 0.52493,0 0.91863,-0.29209 0.0635,-0.0466 0.13547,-0.13547 0.0762,-0.0889 0.127,-0.127 0.055,-0.0381 0.1016,-0.0339 0.0508,0.004 0.1397,0.0296 -0.18204,0.3556 -0.6096,0.55456 -0.42334,0.19473 -0.96097,0.19473 -0.53763,0 -0.91016,-0.30056 -0.37254,-0.30057 -0.37254,-0.87207 0,-0.3556 0.11854,-0.6858 0.11853,-0.33443 0.32596,-0.58843 0.21167,-0.25823 0.52494,-0.41063 0.31749,-0.1524 0.68579,-0.1524 0.65617,0 0.87207,0.59266 z m 0.85937,1.53247 q -0.008,0.0847 -0.008,0.1143 0,0.254 0.1524,0.3937 0.15664,0.1397 0.3683,0.1397 0.21167,0 0.3429,-0.0593 0.13547,-0.0593 0.19474,-0.127 0.1524,-0.1905 0.2794,-0.1905 0.0466,0 0.11006,0.0254 -0.0423,0.20744 -0.32173,0.381 -0.27517,0.16933 -0.69427,0.16933 -0.29633,0 -0.51223,-0.18626 -0.21167,-0.1905 -0.21167,-0.51647 0,-0.32596 0.127,-0.63076 0.13124,-0.30904 0.37254,-0.52494 0.24553,-0.22013 0.4953,-0.22013 0.254,0 0.4064,0.10583 0.15663,0.1016 0.15663,0.30057 0,0.3683 -0.3302,0.6096 -0.32597,0.23707 -0.69427,0.23707 -0.0974,0 -0.23283,-0.0212 z m 0.32173,-0.1397 q 0.19897,0 0.3556,-0.127 0.15664,-0.127 0.22014,-0.2667 0.0677,-0.1397 0.0677,-0.254 0,-0.1143 -0.0889,-0.19897 -0.0889,-0.0889 -0.20743,-0.0889 -0.21167,0 -0.3937,0.2921 -0.1778,0.2921 -0.254,0.60537 0.18626,0.0381 0.30056,0.0381 z m 1.60443,-1.53247 q 0,-0.4191 -0.1143,-0.56303 0.055,-0.0804 0.1905,-0.0804 0.0254,0 0.055,0.004 0.10583,0.10583 0.10583,0.61383 0,0.27517 -0.0254,0.63924 -0.0508,0.635 -0.0508,0.93133 0,0.8001 0.30903,0.8001 0,0 0.15664,-0.0296 0.0381,0 0.0635,0.0339 -0.0127,0.1524 -0.24977,0.1524 -0.23283,0 -0.35983,-0.1397 -0.127,-0.14393 -0.16087,-0.3556 -0.0296,-0.2159 -0.0296,-0.3556 0,-0.1397 0.004,-0.3048 0.004,-0.16933 0.0381,-0.4826 0.0677,-0.635 0.0677,-0.8636 z m 1.00754,0 q 0,-0.4191 -0.1143,-0.56303 0.055,-0.0804 0.1905,-0.0804 0.0254,0 0.055,0.004 0.10584,0.10583 0.10584,0.61383 0,0.27517 -0.0254,0.63924 -0.0508,0.635 -0.0508,0.93133 0,0.8001 0.30903,0.8001 0,0 0.15663,-0.0296 0.0381,0 0.0635,0.0339 -0.0127,0.1524 -0.24976,0.1524 -0.23284,0 -0.35984,-0.1397 -0.127,-0.14393 -0.16086,-0.3556 -0.0296,-0.2159 -0.0296,-0.3556 0,-0.1397 0.004,-0.3048 0.004,-0.16933 0.0381,-0.4826 0.0677,-0.635 0.0677,-0.8636 z"
         id="path73" />
      <path
         style="stroke-width:0.265"
         d="m 108.1998,145.48025 q 0.0381,-0.0804 0.22437,-0.0804 0.0762,0 0.0677,0.0381 -0.28363,0.5842 -0.74083,1.79916 -0.4572,1.21497 -0.83396,1.9177 -0.0466,0.0762 -0.22437,0.0762 -0.0762,0 -0.0762,-0.0212 0,-0.004 0.008,-0.0127 0.37676,-0.70273 0.83396,-1.91769 0.4572,-1.21497 0.74083,-1.79917 z m 0.6985,1.3462 q 0.0466,0 0.0466,0.5588 0,0.0889 -0.004,0.28363 0,0.19474 0,0.2032 0.0423,-0.47836 0.0847,-0.65193 0.0466,-0.17357 0.0931,-0.29633 0.0466,-0.127 0.1016,-0.19474 0.13547,-0.17356 0.31327,-0.17356 0.22437,0 0.33443,0.22436 0.1143,0.22437 0.11854,0.5969 0.10583,-0.76623 0.5588,-0.76623 0.19473,0 0.27516,0.19897 0.0804,0.19896 0.0804,0.47413 l -0.0127,0.64347 q 0,0.63499 0.27516,0.63499 l 0.2413,-0.0381 q 0.0212,0 0.0423,0.004 -0.0423,0.0635 -0.15664,0.1016 -0.1143,0.0339 -0.22436,0.0339 -0.2159,0 -0.32597,-0.1905 -0.10583,-0.19473 -0.1143,-0.40639 -0.008,-0.2159 -0.008,-0.3683 l 0.008,-0.37677 q 0,-0.18627 -0.0254,-0.3556 -0.0212,-0.16933 -0.11853,-0.16933 -0.14394,0 -0.2794,0.60536 -0.13124,0.60114 -0.16087,1.143 -0.072,0.0762 -0.18203,0.0804 -0.0339,0 -0.0635,-0.0127 -0.0381,-0.22013 -0.0423,-0.73236 0,-0.51647 -0.0508,-0.82127 -0.0508,-0.3048 -0.2286,-0.3048 -0.11853,0 -0.19473,0.26247 -0.12277,0.41063 -0.22013,1.27846 -0.0254,0.2032 -0.0381,0.2921 -0.0889,0.0762 -0.18204,0.0762 l -0.0635,-0.008 q -0.0593,-0.70697 -0.0593,-1.7526 0.0466,-0.0762 0.18203,-0.0762 z m 2.77283,0.0931 q 0.2159,-0.3302 0.6223,-0.3302 0.4064,0 0.6477,0.3302 0.24553,0.3302 0.24553,0.75354 0,0.41909 -0.2667,0.71119 -0.2667,0.2921 -0.67733,0.2921 -0.41063,0 -0.5969,-0.2286 -0.18627,-0.23283 -0.18627,-0.65193 0,-0.5461 0.21167,-0.8763 z m 0.18627,0.22437 q -0.055,0.1651 -0.0847,0.3302 -0.0254,0.1651 -0.0254,0.30903 0,0.1397 0.0212,0.25824 0.0212,0.11429 0.072,0.22859 0.0508,0.11007 0.1524,0.1778 0.1016,0.0635 0.2413,0.0635 0.28364,0 0.47414,-0.23283 0.19473,-0.23283 0.19473,-0.56303 0,-0.3302 -0.1778,-0.63923 -0.17357,-0.31327 -0.42757,-0.31327 -0.1524,0 -0.2667,0.10583 -0.1143,0.10584 -0.17356,0.27517 z m 3.33586,-1.85843 q -0.16087,1.45626 -0.16087,2.07856 0,0.61807 0.1143,1.23613 -0.0847,0.0847 -0.14816,0.0847 -0.0635,0 -0.10584,-0.0169 -0.0889,-0.31327 -0.10583,-0.68157 -0.1016,0.16087 -0.1524,0.2286 -0.0466,0.0677 -0.1651,0.19897 -0.2159,0.254 -0.51223,0.254 -0.22437,0 -0.32597,-0.20744 -0.0974,-0.21166 -0.0974,-0.53763 0,-0.3302 0.072,-0.62653 0.0762,-0.30057 0.25823,-0.51647 0.18204,-0.22013 0.44874,-0.22013 0.16086,0 0.29633,0.0677 0.13547,0.0677 0.18627,0.18204 0.008,-0.1143 0.0169,-0.35137 0.008,-0.23707 0.0169,-0.4191 0.0127,-0.18627 0.0381,-0.37677 0.0466,-0.4064 0.20744,-0.4064 0.055,0 0.11853,0.0296 z m -0.4953,1.6764 q -0.0508,-0.0931 -0.1397,-0.13547 -0.0889,-0.0466 -0.23707,-0.0466 -0.14393,0 -0.27093,0.1651 -0.24977,0.32597 -0.24977,0.94404 0,0.19896 0.0635,0.39793 0.0635,0.19473 0.18627,0.19473 0.1778,0 0.34713,-0.23283 0.16934,-0.23283 0.26247,-0.5334 0.0931,-0.3048 0.0931,-0.5461 0,-0.1143 -0.055,-0.20743 z m 1.25306,-0.27094 q -0.11006,0.20744 -0.11006,0.61807 0,0.61807 0.23283,0.98636 0.13547,0.2159 0.32173,0.2159 0.1905,0 0.3048,-0.19896 0.13547,-0.24553 0.13547,-0.67733 0,-0.54187 -0.1524,-0.8001 -0.0677,-0.12277 -0.0804,-0.1778 -0.008,-0.055 0.0296,-0.0804 0.0381,-0.0254 0.127,-0.0254 0.25823,0 0.33866,0.5334 0.0254,0.14817 0.0254,0.29634 0,0.38523 -0.15239,0.77046 -0.2159,0.52917 -0.68157,0.52917 -0.24553,0 -0.4191,-0.18204 -0.32597,-0.34713 -0.32597,-1.04563 0,-0.3048 0.0423,-0.46566 0.0423,-0.16087 0.072,-0.20744 0.0296,-0.0508 0.072,-0.0931 0.0423,-0.0423 0.0931,-0.0339 0.055,0.008 0.127,0.0381 z m 1.73144,-0.5461 q 0,-0.4191 -0.1143,-0.56303 0.055,-0.0804 0.1905,-0.0804 0.0254,0 0.055,0.004 0.10583,0.10583 0.10583,0.61383 0,0.27517 -0.0254,0.63924 -0.0508,0.635 -0.0508,0.93133 0,0.8001 0.30903,0.8001 0,0 0.15664,-0.0296 0.0381,0 0.0635,0.0339 -0.0127,0.1524 -0.24977,0.1524 -0.23283,0 -0.35983,-0.1397 -0.127,-0.14393 -0.16087,-0.3556 -0.0296,-0.2159 -0.0296,-0.3556 0,-0.1397 0.004,-0.3048 0.004,-0.16933 0.0381,-0.4826 0.0677,-0.635 0.0677,-0.8636 z m 1.08373,1.67217 q -0.008,0.0847 -0.008,0.1143 0,0.254 0.1524,0.3937 0.15663,0.1397 0.36829,0.1397 0.21167,0 0.3429,-0.0593 0.13547,-0.0593 0.19474,-0.127 0.1524,-0.1905 0.2794,-0.1905 0.0466,0 0.11006,0.0254 -0.0423,0.20743 -0.32173,0.381 -0.27517,0.16933 -0.69427,0.16933 -0.29633,0 -0.51223,-0.18626 -0.21166,-0.1905 -0.21166,-0.51647 0,-0.32596 0.127,-0.63076 0.13123,-0.30904 0.37253,-0.52494 0.24553,-0.22013 0.4953,-0.22013 0.254,0 0.4064,0.10583 0.15663,0.1016 0.15663,0.30057 0,0.3683 -0.3302,0.6096 -0.32597,0.23707 -0.69426,0.23707 -0.0974,0 -0.23284,-0.0212 z m 0.32174,-0.1397 q 0.19896,0 0.35559,-0.127 0.15664,-0.127 0.22014,-0.2667 0.0677,-0.1397 0.0677,-0.254 0,-0.1143 -0.0889,-0.19897 -0.0889,-0.0889 -0.20743,-0.0889 -0.21167,0 -0.3937,0.2921 -0.1778,0.2921 -0.254,0.60537 0.18627,0.0381 0.30057,0.0381 z"
         id="path74" />
    </g>
    <path
       d="m 170.89086,123.95677 v 0.92811 h -24.21092 l 0.56792,-0.56844 a 0.1324995,0.1324995 0 0 0 0,-0.18758 0.1324995,0.1324995 0 0 0 -0.0935,-0.0388 0.1324995,0.1324995 0 0 0 -0.0935,0.0388 l -0.88883,0.88883 0.88883,0.88832 a 0.1324995,0.1324995 0 0 0 0.18707,0 0.1324995,0.1324995 0 0 0 0,-0.18707 l -0.56999,-0.57051 h 24.21299 v 0.9276 h 0.26355 v -1.05834 a 0.1324995,0.1324995 0 0 0 0,-5.1e-4 v -1.06041 z"
       style="baseline-shift:baseline;display:inline;overflow:visible;opacity:1;vector-effect:none;fill:#ff5555;stroke-linecap:round;enable-background:accumulate;stop-color:#000000;stop-opacity:1"
       id="path69" />
    <g
       id="path70"
       style="opacity:1">
      <path
         style="baseline-shift:baseline;display:inline;overflow:visible;vector-effect:none;fill:#0000ff;stroke-linecap:round;stroke-linejoin:round;paint-order:fill markers stroke;enable-background:accumulate;stop-color:#000000;stop-opacity:1"
         d="M 42.849677,116.86217 H 70.923218"
         id="path85" />
      <g
         id="g83">
        <path
           style="baseline-shift:baseline;display:inline;overflow:visible;opacity:1;vector-effect:none;fill:#0000ff;enable-background:accumulate;stop-color:#000000;stop-opacity:1"
           d="m 42.716797,115.80273 v 2.11915 h 0.265625 v -2.11915 z"
           id="path83" />
        <path
           style="baseline-shift:baseline;display:inline;overflow:visible;opacity:1;vector-effect:none;fill:#0000ff;stroke-linecap:round;enable-background:accumulate;stop-color:#000000;stop-opacity:1"
           d="m 70.101562,115.97266 a 0.1324995,0.1324995 0 0 0 0,0.1875 l 0.701172,0.70117 -0.701172,0.70312 a 0.1324995,0.1324995 0 0 0 0,0.18555 0.1324995,0.1324995 0 0 0 0.1875,0 l 0.888672,-0.88867 -0.888672,-0.88867 a 0.1324995,0.1324995 0 0 0 -0.1875,0 z"
           id="path84" />
      </g>
      <path
         style="baseline-shift:baseline;display:inline;overflow:visible;vector-effect:none;fill:#0000ff;stroke-linecap:round;stroke-linejoin:round;paint-order:fill markers stroke;enable-background:accumulate;stop-color:#000000;stop-opacity:1"
         d="m 42.849609,116.73047 a 0.1324995,0.1324995 0 0 0 -0.132812,0.13086 0.1324995,0.1324995 0 0 0 0.132812,0.13281 h 28.074219 a 0.1324995,0.1324995 0 0 0 0.132813,-0.13281 0.1324995,0.1324995 0 0 0 -0.132813,-0.13086 z"
         id="path86" />
    </g>
    <path
       style="baseline-shift:baseline;display:inline;overflow:visible;opacity:1;vector-effect:none;fill:#800080;stroke-linecap:round;stroke-linejoin:round;paint-order:markers stroke fill;enable-background:accumulate;stop-color:#000000;stop-opacity:1"
       d="m 88.480469,82.337891 a 0.13230472,0.13230472 0 0 0 -0.132813,0.132812 v 83.232417 a 0.13230472,0.13230472 0 0 0 0.132813,0.13282 h 15.246091 a 0.13230472,0.13230472 0 0 0 0.13282,-0.13282 V 82.470703 a 0.13230472,0.13230472 0 0 0 -0.13282,-0.132812 z m 0.132812,0.263671 H 103.59375 V 165.57227 H 88.613281 Z"
       id="rect71" />
    <path
       style="baseline-shift:baseline;display:inline;overflow:visible;opacity:1;vector-effect:none;stroke-linecap:round;stroke-linejoin:round;paint-order:markers stroke fill;enable-background:accumulate;stop-color:#000000;stop-opacity:1"
       d="m 71.306641,82.470703 a 0.03307621,0.03307621 0 0 0 -0.0332,0.03125 v 83.201167 a 0.03307621,0.03307621 0 0 0 0.0332,0.0332 H 138.3418 a 0.03307621,0.03307621 0 0 0 0.0332,-0.0332 V 82.501953 a 0.03307621,0.03307621 0 0 0 -0.0332,-0.03125 z m 0.03125,0.06445 H 138.30859 V 165.66992 H 71.337891 Z"
       id="rect8" />
    <g
       id="path71"
       style="opacity:1">
      <path
         style="baseline-shift:baseline;display:inline;overflow:visible;vector-effect:none;fill:#800080;stroke-linecap:round;stroke-linejoin:round;paint-order:fill markers stroke;enable-background:accumulate;stop-color:#000000;stop-opacity:1"
         d="M 93.00104,206.02023 V 166.08706"
         id="path81" />
      <g
         id="g79">
        <path
           style="baseline-shift:baseline;display:inline;overflow:visible;opacity:1;vector-effect:none;fill:#800080;enable-background:accumulate;stop-color:#000000;stop-opacity:1"
           d="m 91.941406,205.88867 v 0.26367 h 2.119141 v -0.26367 z"
           id="path79" />
        <path
           style="baseline-shift:baseline;display:inline;overflow:visible;opacity:1;vector-effect:none;fill:#800080;stroke-linecap:round;enable-background:accumulate;stop-color:#000000;stop-opacity:1"
           d="m 93.001953,165.83398 -0.888672,0.88868 a 0.1324995,0.1324995 0 0 0 0,0.1875 0.1324995,0.1324995 0 0 0 0.185547,0 l 0.703125,-0.70118 0.701172,0.70118 a 0.1324995,0.1324995 0 0 0 0.1875,0 0.1324995,0.1324995 0 0 0 0,-0.1875 z"
           id="path80" />
      </g>
      <path
         style="baseline-shift:baseline;display:inline;overflow:visible;vector-effect:none;fill:#800080;stroke-linecap:round;stroke-linejoin:round;paint-order:fill markers stroke;enable-background:accumulate;stop-color:#000000;stop-opacity:1"
         d="m 93.001953,165.95508 a 0.1324995,0.1324995 0 0 0 -0.132812,0.13281 v 39.93164 a 0.1324995,0.1324995 0 0 0 0.132812,0.13281 0.1324995,0.1324995 0 0 0 0.130859,-0.13281 v -39.93164 a 0.1324995,0.1324995 0 0 0 -0.130859,-0.13281 z"
         id="path82" />
    </g>
    <path
       style="font-size:4.23333px;line-height:1;font-family:Handlee;-inkscape-font-specification:Handlee;letter-spacing:0px;stroke-width:0.265;stroke-linecap:round;stroke-linejoin:round;stroke-dasharray:1, 1;paint-order:fill markers stroke"
       d="m 171.78597,144.68865 q 0,-0.68581 -0.072,-1.25308 0,-0.0889 0.12276,-0.0889 0.12277,0 0.32597,0.23706 0.2032,0.23284 0.38947,0.51223 0.18626,0.2794 0.37253,0.51647 0.1905,0.23283 0.27093,0.23283 0.0804,0 0.25824,-0.24553 0.18203,-0.24977 0.3556,-0.54187 0.1778,-0.29633 0.381,-0.54186 0.20743,-0.24977 0.3302,-0.24977 0.127,0 0.127,0.0677 0.0381,0.5207 0.0381,0.93134 0,0.41063 -0.004,0.66886 -0.004,0.254 -0.008,0.37254 0,0.11429 -0.0127,0.52916 -0.0127,0.41063 -0.0127,0.4826 -0.0635,0.0889 -0.17357,0.0889 -0.0466,0 -0.0889,-0.0254 -0.0254,-0.5207 -0.0254,-1.22766 0,-0.70697 0.0127,-1.46474 -0.0847,0.0677 -0.2413,0.3175 -0.1524,0.24554 -0.29633,0.49107 -0.14394,0.2413 -0.32597,0.44027 -0.18203,0.19473 -0.33867,0.19473 -0.15663,0 -0.35983,-0.2286 -0.19897,-0.2286 -0.4445,-0.61807 -0.2413,-0.3937 -0.3175,-0.49106 0.0212,0.3556 0.0212,0.74083 0,0.381 -0.004,0.5334 -0.004,0.67733 -0.0254,1.2319 -0.0677,0.0889 -0.21166,0.0889 -0.0381,0 -0.072,-0.0127 z m 4.79214,0.46567 -0.0212,0.48682 q 0,0.3683 0.0847,0.4953 0.0508,0.0847 0.13969,0.0847 0.0254,0 0.072,-0.0127 0.0889,-0.0254 0.14817,0.0254 -0.0296,0.14817 -0.29633,0.14817 -0.18204,0 -0.2413,-0.1524 -0.0466,-0.1143 -0.0677,-0.28363 -0.0212,-0.17357 -0.0339,-0.23707 -0.27517,0.52493 -0.5334,0.63923 -0.13124,0.0593 -0.3048,0.0593 -0.17357,0 -0.27094,-0.16509 -0.0931,-0.16933 -0.0931,-0.49108 0,-0.32173 0.10583,-0.67309 0.10584,-0.3556 0.30904,-0.5969 0.2032,-0.24554 0.4445,-0.24554 0.34713,0 0.46143,0.28787 0.0974,0.24553 0.0974,0.63077 z m -1.03717,-0.13547 q -0.0593,0.22859 -0.0889,0.43602 -0.0296,0.20321 -0.0296,0.36407 0,0.15663 0.0635,0.27093 0.0677,0.1143 0.17356,0.1143 0.2286,0 0.44027,-0.4318 0.21167,-0.4318 0.21167,-0.80433 0,-0.2413 -0.127,-0.39793 -0.0847,-0.1016 -0.22437,-0.1016 -0.13547,0 -0.24977,0.16086 -0.11006,0.15664 -0.16933,0.38947 z m 2.01506,0.93979 0.0127,0.2413 q 0,0.0931 -0.055,0.13123 -0.0508,0.0339 -0.10583,0.0339 -0.0508,0 -0.10584,-0.0169 -0.0931,-0.49106 -0.14393,-1.22343 -0.0466,-0.73236 -0.055,-0.82973 0.0635,-0.0593 0.13123,-0.0593 0.072,0 0.127,0.0169 0.0169,0.12276 0.0254,0.54186 0.008,0.4191 0.0212,0.52494 0.0593,-0.3556 0.21166,-0.66464 0.0847,-0.17356 0.22013,-0.27516 0.1397,-0.10584 0.29634,-0.10584 0.16086,0 0.2921,0.14394 0.13546,0.1397 0.13546,0.254 0,0.0423 -0.0508,0.0677 -0.0508,0.0212 -0.1143,0.0212 -0.0593,0 -0.0931,-0.0466 -0.0339,-0.0466 -0.0466,-0.1016 -0.0127,-0.0593 -0.055,-0.10583 -0.0423,-0.0466 -0.1143,-0.0466 -0.1905,0 -0.32597,0.3429 -0.20743,0.51223 -0.20743,1.1557 z m 1.98543,-1.70179 q 0.38524,0 0.5334,0.31326 0.0804,0.1651 0.13124,0.31327 0.0508,0.14816 0.0677,0.40639 0.0254,0.3937 0.0254,0.89747 0,0.49953 -0.2413,0.79586 -0.23707,0.30057 -0.6985,0.30057 -0.4572,0 -0.762,-0.29633 0.0847,-0.0847 0.18204,-0.0847 0.1016,0 0.27516,0.0847 0.1778,0.0889 0.37677,0.0889 0.19896,0 0.3302,-0.0931 0.13123,-0.0889 0.19473,-0.254 0.10583,-0.2921 0.10583,-0.71966 0,-0.0635 -0.0127,-0.4699 -0.1143,0.34713 -0.32596,0.57573 -0.21167,0.22437 -0.47837,0.22437 -0.2667,0 -0.3937,-0.23707 -0.12276,-0.2413 -0.12276,-0.5461 0,-0.3048 0.0847,-0.59266 0.0847,-0.2921 0.27517,-0.49953 0.1905,-0.20743 0.45296,-0.20743 z m -0.44873,0.64346 q -0.055,0.18626 -0.0804,0.35136 -0.0254,0.1651 -0.0254,0.33443 0,0.1651 0.0677,0.36831 0.072,0.20319 0.20743,0.20319 0.2667,0 0.47414,-0.39792 0.20743,-0.40217 0.20743,-0.80856 0,-0.1397 -0.13123,-0.31327 -0.127,-0.1778 -0.32174,-0.1778 -0.13546,0 -0.2413,0.12701 -0.1016,0.127 -0.15663,0.31325 z m 1.9812,-1.64254 q -0.004,0.0974 -0.004,0.21591 0,0.11854 0.0127,0.24554 -0.0593,0.0677 -0.16086,0.0677 -0.127,0 -0.127,-0.20321 0,-0.008 0,-0.0635 0,-0.055 0,-0.0974 0.004,-0.0466 0.0169,-0.10584 0.0296,-0.10159 0.13123,-0.10159 0.1016,0 0.13124,0.0423 z m -0.27094,2.07434 q 0,-0.82974 0.0847,-0.95673 0.0296,-0.0466 0.072,-0.0466 0.0423,0 0.1397,0.0466 -0.0212,0.35983 -0.0212,0.78317 0,0 0.008,0.93557 0,0.13123 -0.0593,0.18627 -0.055,0.0508 -0.10583,0.0508 -0.0466,0 -0.0974,-0.0254 -0.0212,-0.55033 -0.0212,-0.97367 z m 2.55694,0.92287 q -0.0762,0.0804 -0.17357,0.0804 -0.18203,0 -0.27093,-0.19473 -0.0889,-0.19473 -0.10583,-0.47413 -0.0127,-0.27941 -0.0169,-0.55881 -0.004,-0.2794 -0.0466,-0.47413 -0.0381,-0.19473 -0.14817,-0.19473 -0.14817,0 -0.254,0.26669 -0.1016,0.2667 -0.14393,0.59267 -0.11854,0.91016 -0.2286,1.02024 -0.0762,0.0381 -0.13124,0.0381 -0.055,0 -0.0931,-0.0127 -0.0889,-0.38947 -0.1143,-1.34196 -0.008,-0.47414 -0.0169,-0.61384 0.0889,-0.0593 0.1524,-0.0593 0.0635,0 0.1016,0.0127 0.0212,0.18203 0.0212,0.74506 0.004,0.56303 0.008,0.6477 0.0212,-0.0889 0.0508,-0.28787 0.0339,-0.19896 0.0593,-0.32596 0.0254,-0.13123 0.0804,-0.3048 0.055,-0.17357 0.12277,-0.27517 0.0677,-0.10583 0.18626,-0.1778 0.11854,-0.0762 0.2667,-0.0762 0.19897,0 0.28787,0.18204 0.0931,0.1778 0.1016,0.4445 0.008,0.2667 0.008,0.54186 0.004,0.27517 0.0677,0.50377 0.0677,0.2286 0.2286,0.29633 z"
       id="text48"
       aria-label="Margin" />
    <g
       id="path1"
       transform="translate(-0.22415045,0.06203)">
      <g
         id="g2">
        <path
           style="baseline-shift:baseline;display:inline;overflow:visible;opacity:1;vector-effect:none;fill:#1a1a1a;enable-background:accumulate;stop-color:#000000;stop-opacity:1"
           d="m 170.2832,144.12695 v 2.1211 h 0.26563 v -2.1211 z"
           id="path3" />
        <path
           style="baseline-shift:baseline;display:inline;overflow:visible;opacity:1;vector-effect:none;fill:#1a1a1a;stroke-linecap:round;enable-background:accumulate;stop-color:#000000;stop-opacity:1"
           d="m 139.53516,144.29883 -0.88868,0.88867 0.88868,0.88867 a 0.13249999,0.13249999 0 0 0 0.1875,0 0.13249999,0.13249999 0 0 0 0,-0.1875 l -0.70118,-0.70117 0.70118,-0.70117 a 0.13249999,0.13249999 0 0 0 0,-0.1875 0.13249999,0.13249999 0 0 0 -0.1875,0 z"
           id="path4" />
      </g>
      <path
         style="baseline-shift:baseline;display:inline;overflow:visible;vector-effect:none;fill:#1a1a1a;stroke-linecap:round;stroke-linejoin:round;paint-order:fill markers stroke;enable-background:accumulate;stop-color:#000000;stop-opacity:1"
         d="m 138.90039,145.05469 a 0.13249999,0.13249999 0 0 0 -0.13281,0.13281 0.13249999,0.13249999 0 0 0 0.13281,0.13281 h 31.51563 a 0.13249999,0.13249999 0 0 0 0.13281,-0.13281 0.13249999,0.13249999 0 0 0 -0.13281,-0.13281 z"
         id="path5" />
    </g>
    <text
       xml:space="preserve"
       style="font-size:4.23333px;line-height:1;font-family:Handlee;-inkscape-font-specification:Handlee;text-align:start;letter-spacing:0px;writing-mode:lr-tb;direction:ltr;text-anchor:start;opacity:1;fill:#000000;stroke:#000000;stroke-width:0.499999;stroke-linecap:round;stroke-linejoin:round;stroke-dasharray:none;paint-order:fill markers stroke"
       x="85.982231"
       y="66.848991"
       id="text1"><tspan
         sodipodi:role="line"
         id="tspan1"
         style="fill:#000000;stroke:none;stroke-width:0.5"
         x="85.982231"
         y="66.848991">Skjermkant</tspan></text>
  </g>
</svg>
