<?xml version="1.0" encoding="UTF-8" standalone="no"?>
<!-- Created with Inkscape (http://www.inkscape.org/) -->

<svg
   width="107.4731mm"
   height="16.855707mm"
   viewBox="0 0 107.4731 16.855707"
   version="1.1"
   id="svg1"
   inkscape:version="1.4.2 (f4327f4, 2025-05-13)"
   sodipodi:docname="geometrisk.svg"
   xmlns:inkscape="http://www.inkscape.org/namespaces/inkscape"
   xmlns:sodipodi="http://sodipodi.sourceforge.net/DTD/sodipodi-0.dtd"
   xmlns="http://www.w3.org/2000/svg"
   xmlns:svg="http://www.w3.org/2000/svg">
  <sodipodi:namedview
     id="namedview1"
     pagecolor="#ffffff"
     bordercolor="#000000"
     borderopacity="0.25"
     inkscape:showpageshadow="2"
     inkscape:pageopacity="0.0"
     inkscape:pagecheckerboard="0"
     inkscape:deskcolor="#d1d1d1"
     inkscape:document-units="mm"
     showguides="true"
     inkscape:zoom="2"
     inkscape:cx="166.25"
     inkscape:cy="-3.75"
     inkscape:window-width="1920"
     inkscape:window-height="1057"
     inkscape:window-x="-8"
     inkscape:window-y="-8"
     inkscape:window-maximized="1"
     inkscape:current-layer="layer1" />
  <defs
     id="defs1" />
  <g
     inkscape:label="Layer 1"
     inkscape:groupmode="layer"
     id="layer1"
     transform="translate(-12.337984,-140.64964)">
    <path
       style="font-size:9.87778px;line-height:1.3;font-family:Montserrat;-inkscape-font-specification:Montserrat;text-align:center;letter-spacing:0.407458px;word-spacing:-0.452437px;text-anchor:middle;stroke-width:0.265;stroke-linecap:round;paint-order:fill markers stroke"
       d="m 12.337994,147.97894 3.16089,-6.91444 h 0.721078 l 3.160889,6.91444 h -0.770466 l -2.904068,-6.4897 h 0.296334 l -2.904068,6.4897 z m 1.244601,-1.84714 0.217311,-0.59267 h 4.020256 l 0.217311,0.59267 z m 10.453169,1.84714 v -1.14582 l -0.02963,-0.18768 v -1.91629 q 0,-0.66181 -0.375356,-1.01741 -0.365477,-0.3556 -1.096433,-0.3556 -0.503767,0 -0.958145,0.16792 -0.454378,0.16793 -0.770467,0.4445 l -0.316089,-0.52352 q 0.395112,-0.33584 0.948267,-0.51364 0.553156,-0.18768 1.165578,-0.18768 1.007534,0 1.550812,0.50377 0.553155,0.49389 0.553155,1.5113 v 3.22015 z m -1.787878,0.0494 q -0.582789,0 -1.017411,-0.18768 -0.424745,-0.19755 -0.651934,-0.5334 -0.227189,-0.34572 -0.227189,-0.79022 0,-0.40499 0.187678,-0.73095 0.197556,-0.33585 0.632178,-0.5334 0.4445,-0.20744 1.185334,-0.20744 h 1.787878 v 0.52352 h -1.768123 q -0.750711,0 -1.047044,0.2667 -0.286456,0.2667 -0.286456,0.66182 0,0.4445 0.345722,0.7112 0.345723,0.2667 0.968023,0.2667 0.592667,0 1.017411,-0.2667 0.434622,-0.27658 0.632178,-0.79023 l 0.158045,0.48401 q -0.197556,0.51365 -0.691445,0.81986 -0.484011,0.30621 -1.224845,0.30621 z m 7.92445,0.01 q -0.780344,0 -1.442156,-0.25682 -0.661811,-0.2667 -1.145822,-0.74084 -0.484011,-0.47413 -0.760589,-1.11619 -0.2667,-0.64205 -0.2667,-1.40264 0,-0.76059 0.2667,-1.40264 0.276578,-0.64206 0.760589,-1.11619 0.493889,-0.47414 1.1557,-0.73096 0.661811,-0.2667 1.442156,-0.2667 0.750711,0 1.412523,0.25682 0.661811,0.24695 1.116189,0.75071 l -0.464256,0.46426 q -0.424745,-0.43462 -0.938389,-0.6223 -0.513645,-0.19756 -1.106311,-0.19756 -0.622301,0 -1.155701,0.21731 -0.5334,0.20744 -0.928511,0.60255 -0.395111,0.38523 -0.6223,0.90876 -0.217311,0.51364 -0.217311,1.13594 0,0.6223 0.217311,1.14582 0.227189,0.51365 0.6223,0.90876 0.395111,0.38523 0.928511,0.60254 0.5334,0.20744 1.155701,0.20744 0.592666,0 1.106311,-0.19756 0.513644,-0.19756 0.938389,-0.63218 l 0.464256,0.46426 q -0.454378,0.50376 -1.116189,0.76059 -0.661812,0.25682 -1.422401,0.25682 z m 6.188607,-0.01 q -0.770467,0 -1.38289,-0.33584 -0.602544,-0.34573 -0.948266,-0.93839 -0.345723,-0.60255 -0.345723,-1.37301 0,-0.78035 0.345723,-1.37301 0.345722,-0.59267 0.948266,-0.92852 0.612423,-0.33584 1.38289,-0.33584 0.661811,0 1.195211,0.25682 0.5334,0.25682 0.839611,0.77047 l -0.523522,0.3556 q -0.2667,-0.39511 -0.661811,-0.58279 -0.395112,-0.18768 -0.859367,-0.18768 -0.553156,0 -0.997656,0.25682 -0.4445,0.24695 -0.701322,0.70133 -0.256823,0.45437 -0.256823,1.0668 0,0.61242 0.256823,1.0668 0.256822,0.45437 0.701322,0.7112 0.4445,0.24694 0.997656,0.24694 0.464255,0 0.859367,-0.18768 0.395111,-0.18767 0.661811,-0.57291 l 0.523522,0.3556 q -0.306211,0.50377 -0.839611,0.77047 -0.5334,0.25682 -1.195211,0.25682 z m 3.963455,-0.0494 v -6.91444 h 2.815168 q 1.106311,0 1.936044,0.4445 0.839612,0.43462 1.303867,1.21496 0.464256,0.78035 0.464256,1.79776 0,1.01741 -0.464256,1.79776 -0.464255,0.78034 -1.303867,1.22484 -0.829733,0.43462 -1.936044,0.43462 z m 0.730956,-0.63218 h 2.044701 q 0.918633,0 1.590322,-0.3556 0.681567,-0.36547 1.056923,-0.99765 0.375355,-0.64206 0.375355,-1.47179 0,-0.83961 -0.375355,-1.47179 -0.375356,-0.63218 -1.056923,-0.98778 -0.671689,-0.36548 -1.590322,-0.36548 h -2.044701 z m 9.751839,0.68157 q -0.740833,0 -1.3335,-0.33584 -0.582789,-0.33585 -0.918634,-0.92851 -0.335844,-0.60255 -0.335844,-1.38289 0,-0.79023 0.335844,-1.38289 0.335845,-0.59267 0.918634,-0.91864 0.592667,-0.33584 1.3335,-0.33584 0.681567,0 1.214967,0.30621 0.543278,0.30621 0.859367,0.89888 0.325967,0.58279 0.325967,1.43228 0,0.83961 -0.316089,1.43227 -0.316089,0.59267 -0.859367,0.90876 -0.5334,0.30621 -1.224845,0.30621 z m 0.04939,-0.6223 q 0.553156,0 0.987778,-0.24694 0.4445,-0.25683 0.691445,-0.7112 0.256822,-0.46426 0.256822,-1.0668 0,-0.61243 -0.256822,-1.0668 -0.246945,-0.45438 -0.691445,-0.70133 -0.434622,-0.25682 -0.987778,-0.25682 -0.543278,0 -0.9779,0.25682 -0.434623,0.24695 -0.691445,0.70133 -0.256822,0.45437 -0.256822,1.0668 0,0.60254 0.256822,1.0668 0.256822,0.45437 0.691445,0.7112 0.434622,0.24694 0.9779,0.24694 z m 1.9558,0.57291 v -1.56069 l 0.06914,-1.04704 -0.09878,-1.04705 v -3.67453 h 0.701322 v 7.32931 z m 3.183109,0 v -6.91444 h 4.741335 v 0.63217 h -4.010379 v 5.65009 h 4.158545 v 0.63218 z m 0.651934,-3.2004 v -0.6223 h 3.654778 v 0.6223 z m 8.341964,3.24979 q -0.809978,0 -1.4224,-0.33584 -0.612423,-0.34573 -0.958145,-0.93839 -0.345722,-0.60255 -0.345722,-1.37301 0,-0.77047 0.325967,-1.36314 0.335844,-0.59266 0.908755,-0.92851 0.582789,-0.34572 1.303867,-0.34572 0.730956,0 1.29399,0.33584 0.572911,0.32597 0.898877,0.92852 0.325967,0.59266 0.325967,1.37301 0,0.0494 -0.0099,0.10865 0,0.0494 0,0.10866 h -4.514145 v -0.52352 h 4.13879 l -0.276578,0.20743 q 0,-0.56303 -0.246945,-0.99766 -0.237066,-0.4445 -0.651933,-0.69144 -0.414867,-0.24695 -0.958145,-0.24695 -0.5334,0 -0.958144,0.24695 -0.424745,0.24694 -0.661812,0.69144 -0.237066,0.4445 -0.237066,1.01741 v 0.10866 q 0,0.59267 0.256822,1.04704 0.2667,0.4445 0.730956,0.70133 0.474133,0.24694 1.076678,0.24694 0.474133,0 0.879122,-0.16792 0.414867,-0.16792 0.7112,-0.51365 l 0.395111,0.45438 q -0.345722,0.41487 -0.869244,0.63218 -0.513645,0.21731 -1.135945,0.21731 z m 7.351539,0.01 q -0.790223,0 -1.461912,-0.25682 -0.661811,-0.2667 -1.1557,-0.74084 -0.484011,-0.47413 -0.760589,-1.11619 -0.2667,-0.64205 -0.2667,-1.40264 0,-0.76059 0.2667,-1.40264 0.276578,-0.64206 0.770467,-1.11619 0.493889,-0.47414 1.1557,-0.73096 0.671689,-0.2667 1.461911,-0.2667 0.790223,0 1.442156,0.24694 0.661811,0.24695 1.126067,0.75072 l -0.454378,0.46425 q -0.434622,-0.43462 -0.958144,-0.6223 -0.523523,-0.18768 -1.126067,-0.18768 -0.642056,0 -1.185334,0.21731 -0.5334,0.20744 -0.938389,0.60255 -0.395111,0.38523 -0.6223,0.90876 -0.217311,0.51364 -0.217311,1.13594 0,0.61242 0.217311,1.13594 0.227189,0.52353 0.6223,0.91864 0.404989,0.38523 0.938389,0.60254 0.543278,0.20744 1.175456,0.20744 0.592667,0 1.116189,-0.1778 0.5334,-0.1778 0.9779,-0.60255 l 0.414867,0.55316 q -0.493889,0.43462 -1.1557,0.66181 -0.661812,0.21731 -1.382889,0.21731 z m 2.538589,-0.87912 -0.701322,-0.0889 v -2.54847 h 0.701322 z m 4.536376,2.78553 q -0.7112,0 -1.363134,-0.20743 -0.651933,-0.20744 -1.056922,-0.59267 l 0.3556,-0.5334 q 0.365478,0.32597 0.898878,0.51365 0.543278,0.19755 1.145822,0.19755 0.987778,0 1.452034,-0.46425 0.464256,-0.45438 0.464256,-1.42241 v -1.29398 l 0.09878,-0.889 -0.06914,-0.889 v -1.57057 h 0.671689 v 4.55365 q 0,1.34338 -0.661811,1.96568 -0.651934,0.63218 -1.936045,0.63218 z m -0.128411,-2.16323 q -0.740834,0 -1.333501,-0.31609 -0.592666,-0.32597 -0.938389,-0.89888 -0.335844,-0.57291 -0.335844,-1.31374 0,-0.74084 0.335844,-1.30387 0.345723,-0.57291 0.938389,-0.889 0.592667,-0.31609 1.333501,-0.31609 0.691444,0 1.2446,0.28646 0.553156,0.28645 0.879122,0.84948 0.325967,0.56304 0.325967,1.37302 0,0.80997 -0.325967,1.37301 -0.325966,0.56303 -0.879122,0.85936 -0.553156,0.29634 -1.2446,0.29634 z m 0.06914,-0.6223 q 0.572911,0 1.017412,-0.23707 0.4445,-0.24694 0.701322,-0.67169 0.256822,-0.43462 0.256822,-0.99765 0,-0.56304 -0.256822,-0.98778 -0.256822,-0.42475 -0.701322,-0.66181 -0.444501,-0.24695 -1.017412,-0.24695 -0.563033,0 -1.017411,0.24695 -0.4445,0.23706 -0.701322,0.66181 -0.246945,0.42474 -0.246945,0.98778 0,0.56303 0.246945,0.99765 0.256822,0.42475 0.701322,0.67169 0.454378,0.23707 1.017411,0.23707 z m 10.225967,0.81985 v -6.91444 h 0.721078 v 6.91444 z m -5.057423,0 v -6.91444 h 0.730955 v 6.91444 z m 0.651933,-3.19052 v -0.64206 h 4.474634 v 0.64206 z m 7.637987,3.19052 v -7.32931 h 0.701323 v 3.56588 l -0.138289,-0.2667 q 0.246944,-0.56303 0.790222,-0.87912 0.543278,-0.32597 1.293989,-0.32597 0.632178,0 1.106312,0.24694 0.484011,0.23707 0.750711,0.73096 0.276578,0.49389 0.276578,1.2446 v 3.01272 h -0.701322 v -2.94358 q 0,-0.81985 -0.414867,-1.23472 -0.404989,-0.42474 -1.145823,-0.42474 -0.553155,0 -0.968022,0.22719 -0.404989,0.21731 -0.632178,0.64205 -0.217311,0.41487 -0.217311,1.00754 v 2.72626 z m 7.23301,0 v -6.91444 h 0.73096 v 6.91444 z m 3.24239,0 v -5.18583 h 0.70132 v 5.18583 z m 0.3556,-6.33165 q -0.21732,0 -0.36548,-0.14817 -0.14817,-0.14817 -0.14817,-0.3556 0,-0.20743 0.14817,-0.34572 0.14816,-0.14817 0.36548,-0.14817 0.21731,0 0.36547,0.13829 0.14817,0.13829 0.14817,0.34572 0,0.21731 -0.14817,0.36548 -0.13829,0.14817 -0.36547,0.14817 z m 5.87974,6.39092 q -0.78035,0 -1.45204,-0.25682 -0.66181,-0.2667 -1.1557,-0.74084 -0.48401,-0.48401 -0.76058,-1.11619 -0.2667,-0.64205 -0.2667,-1.40264 0,-0.76059 0.2667,-1.39277 0.27657,-0.64205 0.76058,-1.11619 0.49389,-0.48401 1.1557,-0.74083 0.66182,-0.2667 1.45204,-0.2667 0.78034,0 1.44215,0.2667 0.66182,0.25682 1.14583,0.73096 0.49389,0.47413 0.76059,1.11619 0.27657,0.64205 0.27657,1.40264 0,0.76059 -0.27657,1.40264 -0.2667,0.64206 -0.76059,1.11619 -0.48401,0.47414 -1.14583,0.74084 -0.66181,0.25682 -1.44215,0.25682 z m 0,-0.65193 q 0.6223,0 1.14582,-0.20744 0.5334,-0.21731 0.91863,-0.60254 0.39512,-0.39511 0.61243,-0.90876 0.21731,-0.52352 0.21731,-1.14582 0,-0.6223 -0.21731,-1.13594 -0.21731,-0.52353 -0.61243,-0.90876 -0.38523,-0.39511 -0.91863,-0.60255 -0.52352,-0.21731 -1.14582,-0.21731 -0.6223,0 -1.1557,0.21731 -0.5334,0.20744 -0.92851,0.60255 -0.38524,0.38523 -0.61243,0.90876 -0.21731,0.51364 -0.21731,1.13594 0,0.61242 0.21731,1.13594 0.22719,0.52353 0.61243,0.91864 0.39511,0.38523 0.92851,0.60254 0.5334,0.20744 1.1557,0.20744 z m 7.63799,0.64205 q -0.75071,0 -1.35325,-0.33584 -0.59267,-0.34573 -0.93839,-0.93839 -0.34573,-0.60255 -0.34573,-1.37301 0,-0.78035 0.34573,-1.37301 0.34572,-0.59267 0.93839,-0.92852 0.59266,-0.33584 1.35325,-0.33584 0.77047,0 1.36314,0.33584 0.60254,0.33585 0.93838,0.92852 0.34573,0.59266 0.34573,1.37301 0,0.77046 -0.34573,1.37301 -0.33584,0.59266 -0.93838,0.93839 -0.60255,0.33584 -1.36314,0.33584 z m 0,-0.6223 q 0.56303,0 0.99766,-0.24694 0.43462,-0.25683 0.68156,-0.7112 0.25683,-0.46426 0.25683,-1.0668 0,-0.61243 -0.25683,-1.0668 -0.24694,-0.45438 -0.68156,-0.70133 -0.43463,-0.25682 -0.98778,-0.25682 -0.55316,0 -0.98778,0.25682 -0.43462,0.24695 -0.69144,0.70133 -0.25683,0.45437 -0.25683,1.0668 0,0.60254 0.25683,1.0668 0.25682,0.45437 0.69144,0.7112 0.43462,0.24694 0.9779,0.24694 z"
       id="text1"
       aria-label="AaCcDdEeGgHhIiOo" />
    <path
       id="path3"
       style="opacity:0.5;fill:#ff0000;stroke-width:0.264999;stroke-linecap:round;paint-order:fill markers stroke"
       d="m 113.14941,153.87468 a 3.6306639,3.6306639 0 0 1 -3.63066,3.63066 3.6306639,3.6306639 0 0 1 -3.63067,-3.63066 3.6306639,3.6306639 0 0 1 3.63067,-3.63066 3.6306639,3.6306639 0 0 1 3.63066,3.63066 z" />
    <path
       id="path3-8"
       style="opacity:0.5;fill:#ff0000;stroke-width:0.264999;stroke-linecap:round;paint-order:fill markers stroke"
       d="m 75.96429,153.87468 a 3.6306639,3.6306639 0 0 1 -3.630664,3.63066 3.6306639,3.6306639 0 0 1 -3.630664,-3.63066 3.6306639,3.6306639 0 0 1 3.630664,-3.63066 3.6306639,3.6306639 0 0 1 3.630664,3.63066 z" />
    <path
       id="path3-8-6"
       style="opacity:0.5;fill:#ff0000;stroke-width:0.264999;stroke-linecap:round;paint-order:fill markers stroke"
       d="m 33.734334,153.87468 a 3.6306639,3.6306639 0 0 1 -3.630664,3.63066 3.6306639,3.6306639 0 0 1 -3.630664,-3.63066 3.6306639,3.6306639 0 0 1 3.630664,-3.63066 3.6306639,3.6306639 0 0 1 3.630664,3.63066 z" />
    <path
       id="path3-8-1"
       style="opacity:0.5;fill:#ff0000;stroke-width:0.264999;stroke-linecap:round;paint-order:fill markers stroke"
       d="m 67.332387,154.97232 a 2.5330245,2.5330245 0 0 1 -2.533025,2.53303 2.5330245,2.5330245 0 0 1 -2.533024,-2.53303 2.5330245,2.5330245 0 0 1 2.533024,-2.53302 2.5330245,2.5330245 0 0 1 2.533025,2.53302 z" />
    <path
       id="path3-8-1-1"
       style="opacity:0.5;fill:#ff0000;stroke-width:0.264999;stroke-linecap:round;paint-order:fill markers stroke"
       d="m 81.778516,154.97232 a 2.5330245,2.5330245 0 0 1 -2.533025,2.53303 2.5330245,2.5330245 0 0 1 -2.533025,-2.53303 2.5330245,2.5330245 0 0 1 2.533025,-2.53302 2.5330245,2.5330245 0 0 1 2.533025,2.53302 z" />
    <path
       id="path3-8-1-1-2"
       style="opacity:0.5;fill:#ff0000;stroke-width:0.264999;stroke-linecap:round;paint-order:fill markers stroke"
       d="m 119.75352,154.97232 a 2.5330245,2.5330245 0 0 1 -2.53302,2.53303 2.5330245,2.5330245 0 0 1 -2.53303,-2.53303 2.5330245,2.5330245 0 0 1 2.53303,-2.53302 2.5330245,2.5330245 0 0 1 2.53302,2.53302 z" />
    <path
       id="path3-8-1-2"
       style="opacity:0.5;fill:#ff0000;stroke-width:0.264999;stroke-linecap:round;paint-order:fill markers stroke"
       d="m 53.220216,154.97232 a 2.5330245,2.5330245 0 0 1 -2.533025,2.53303 2.5330245,2.5330245 0 0 1 -2.533025,-2.53303 2.5330245,2.5330245 0 0 1 2.533025,-2.53302 2.5330245,2.5330245 0 0 1 2.533025,2.53302 z" />
    <path
       id="path3-8-1-2-2"
       style="opacity:0.5;fill:#ff0000;stroke-width:0.264999;stroke-linecap:round;paint-order:fill markers stroke"
       d="m 38.84055,154.97232 a 2.5330245,2.5330245 0 0 1 -2.533024,2.53303 2.5330245,2.5330245 0 0 1 -2.533025,-2.53303 2.5330245,2.5330245 0 0 1 2.533025,-2.53302 2.5330245,2.5330245 0 0 1 2.533024,2.53302 z" />
    <path
       id="rect7"
       style="opacity:0.5;fill:#ff0000;stroke-width:0.264999;stroke-linecap:round;paint-order:fill markers stroke"
       d="m 55.99411,150.56737 h 4.910153 v 6.93797 H 55.99411 Z" />
    <path
       id="rect7-9"
       style="opacity:0.5;fill:#ff0000;stroke-width:0.264999;stroke-linecap:round;paint-order:fill markers stroke"
       d="m 92.802605,150.56737 h 4.910153 v 6.93797 h -4.910153 z" />
    <path
       id="rect7-9-2"
       style="opacity:0.5;fill:#ff0000;stroke-width:0.264999;stroke-linecap:round;paint-order:fill markers stroke"
       d="m 84.5103,150.56737 h 5.798824 v 6.93797 H 84.5103 Z" />
    <path
       id="rect7-9-2-1"
       style="opacity:0.5;fill:#ff0000;stroke-width:0.264999;stroke-linecap:round;paint-order:fill markers stroke"
       d="m 40.307457,150.56737 h 5.798825 v 6.93797 h -5.798825 z" />
    <path
       id="rect8"
       style="opacity:0.5;fill:#ff0000;stroke-width:0.264999;stroke-linecap:round;paint-order:fill markers stroke"
       d="m 15.87915,149.6901 3.507913,7.81525 h -7.015825 z"
       sodipodi:nodetypes="cccc" />
  </g>
</svg>
