<?xml version="1.0" encoding="UTF-8" standalone="no"?>
<!-- Created with Inkscape (http://www.inkscape.org/) -->

<svg
   width="63.202686mm"
   height="9.2921047mm"
   viewBox="0 0 63.202686 9.2921047"
   version="1.1"
   id="svg1"
   inkscape:version="1.4.2 (f4327f4, 2025-05-13)"
   sodipodi:docname="monospace.svg"
   xmlns:inkscape="http://www.inkscape.org/namespaces/inkscape"
   xmlns:sodipodi="http://sodipodi.sourceforge.net/DTD/sodipodi-0.dtd"
   xmlns="http://www.w3.org/2000/svg"
   xmlns:svg="http://www.w3.org/2000/svg">
  <sodipodi:namedview
     id="namedview1"
     pagecolor="#ffffff"
     bordercolor="#000000"
     borderopacity="0.25"
     inkscape:showpageshadow="2"
     inkscape:pageopacity="0.0"
     inkscape:pagecheckerboard="0"
     inkscape:deskcolor="#d1d1d1"
     inkscape:document-units="mm"
     showguides="true"
     inkscape:zoom="3.0467172"
     inkscape:cx="136.21218"
     inkscape:cy="59.244095"
     inkscape:window-width="1920"
     inkscape:window-height="1057"
     inkscape:window-x="-8"
     inkscape:window-y="-8"
     inkscape:window-maximized="1"
     inkscape:current-layer="layer1" />
  <defs
     id="defs1" />
  <g
     inkscape:label="Layer 1"
     inkscape:groupmode="layer"
     id="layer1"
     transform="translate(-28.960937,-105.45438)">
    <rect
       style="opacity:1;fill:#e3d7f4;stroke-width:0.264999;stroke-linecap:round;paint-order:fill markers stroke"
       id="rect17"
       width="6.3202715"
       height="9.2921047"
       x="28.960938"
       y="105.45438" />
    <rect
       style="fill:#d7eef4;stroke-width:0.264999;stroke-linecap:round;paint-order:fill markers stroke"
       id="rect17-8"
       width="6.3202715"
       height="9.2921047"
       x="35.281208"
       y="105.45438" />
    <rect
       style="fill:#e3d7f4;stroke-width:0.264999;stroke-linecap:round;paint-order:fill markers stroke"
       id="rect17-1"
       width="6.3202715"
       height="9.2921047"
       x="41.601479"
       y="105.45438" />
    <rect
       style="fill:#d7eef4;stroke-width:0.264999;stroke-linecap:round;paint-order:fill markers stroke"
       id="rect17-2"
       width="6.3202715"
       height="9.2921047"
       x="47.921745"
       y="105.45438" />
    <rect
       style="fill:#e3d7f4;stroke-width:0.264999;stroke-linecap:round;paint-order:fill markers stroke"
       id="rect17-23"
       width="6.3202715"
       height="9.2921047"
       x="54.242016"
       y="105.45438" />
    <rect
       style="fill:#d7eef4;stroke-width:0.264999;stroke-linecap:round;paint-order:fill markers stroke"
       id="rect17-85"
       width="6.3202715"
       height="9.2921047"
       x="60.562286"
       y="105.45438" />
    <rect
       style="fill:#e3d7f4;stroke-width:0.264999;stroke-linecap:round;paint-order:fill markers stroke"
       id="rect17-8-7"
       width="6.3202715"
       height="9.2921047"
       x="66.882553"
       y="105.45438" />
    <rect
       style="fill:#d7eef4;stroke-width:0.264999;stroke-linecap:round;paint-order:fill markers stroke"
       id="rect17-1-6"
       width="6.3202715"
       height="9.2921047"
       x="73.20282"
       y="105.45438" />
    <rect
       style="fill:#e3d7f4;stroke-width:0.264999;stroke-linecap:round;paint-order:fill markers stroke"
       id="rect17-2-1"
       width="6.3202715"
       height="9.2921047"
       x="79.523094"
       y="105.45438" />
    <rect
       style="fill:#d7eef4;stroke-width:0.264999;stroke-linecap:round;paint-order:fill markers stroke"
       id="rect17-23-8"
       width="6.3202715"
       height="9.2921047"
       x="85.843353"
       y="105.45438" />
    <path
       style="font-size:9.87777px;line-height:1.3;font-family:'Clincher Mono';-inkscape-font-specification:'Clincher Mono';text-align:center;letter-spacing:0.407458px;word-spacing:-0.452437px;text-anchor:middle;stroke-width:0.265;stroke-linecap:round;paint-order:fill markers stroke"
       d="m 29.697939,113.2421 v -0.5334 l 2.262009,-6.28226 h 0.681566 l 2.232376,6.28226 v 0.5334 h -0.711199 l -0.602544,-1.74836 h -2.56822 l -0.602544,1.74836 z m 1.531054,-2.48919 h 2.094087 l -0.92851,-2.91395 h -0.217311 z m 5.405614,-2.49908 0.622299,-0.11853 q 0.414867,-0.079 0.790222,-0.13829 0.385233,-0.0593 0.740833,-0.0593 0.325966,0 0.642055,0.0889 0.316088,0.0889 0.563033,0.29633 0.246944,0.20744 0.39511,0.5334 0.148167,0.32597 0.148167,0.8001 v 2.667 q 0,0.18768 0.09878,0.29633 0.09878,0.0988 0.246944,0.0988 h 0.217311 v 0.56303 q -0.197555,0.0494 -0.325966,0.0593 -0.128412,0.0198 -0.217311,0.0198 -0.296334,0 -0.513645,-0.15805 -0.207433,-0.15804 -0.296333,-0.4445 H 39.58806 l -0.4445,0.20744 q -0.325966,0.14816 -0.642055,0.27657 -0.306211,0.11854 -0.671688,0.11854 -0.296333,0 -0.563033,-0.10866 -0.2667,-0.0988 -0.474133,-0.30621 -0.197555,-0.20743 -0.325966,-0.52352 -0.118534,-0.31609 -0.118534,-0.74083 0,-0.48401 0.167922,-0.80998 0.1778,-0.32597 0.474133,-0.51365 0.306211,-0.19755 0.721078,-0.27657 0.414866,-0.079 0.898877,-0.079 h 1.076677 v -0.12841 q 0,-0.6223 -0.256822,-0.89887 -0.256822,-0.27658 -0.819855,-0.27658 -0.306211,0 -0.6223,0.0494 -0.316088,0.0494 -0.829732,0.16792 l -0.523522,0.11853 z m 1.402643,4.37585 q 0.246944,0 0.553155,-0.10865 0.306211,-0.11854 0.563033,-0.24695 l 0.5334,-0.25682 v -1.34338 h -1.086555 q -0.681566,0 -1.047044,0.21731 -0.355599,0.21732 -0.355599,0.77047 0,0.55316 0.237066,0.76059 0.246944,0.20743 0.602544,0.20743 z m 6.768746,-6.20324 q 0.582789,0 1.01741,0.0889 0.4445,0.0889 0.740833,0.29634 0.296333,0.19755 0.4445,0.53339 0.148166,0.33585 0.148166,0.83962 0,0.41486 -0.227188,0.77046 -0.217311,0.34572 -0.602544,0.57291 v 0.16792 q 0.523522,0.19756 0.809977,0.64206 0.286455,0.43462 0.286455,0.99765 0,1.03717 -0.602544,1.47179 -0.592666,0.43462 -1.768121,0.43462 h -2.192865 v -6.81566 z m 1.748365,4.84999 q 0,-0.39511 -0.09878,-0.64206 -0.0889,-0.24694 -0.276578,-0.38523 -0.1778,-0.13829 -0.464255,-0.18768 -0.276578,-0.0494 -0.661811,-0.0494 h -1.323621 v 2.47932 h 1.323621 q 0.385233,0 0.661811,-0.0494 0.286455,-0.0593 0.464255,-0.19755 0.187678,-0.13829 0.276578,-0.37536 0.09878,-0.23706 0.09878,-0.59266 z m -2.825042,-4.09928 v 2.10397 h 1.323621 q 0.316089,0 0.543278,-0.0395 0.237066,-0.0494 0.385233,-0.15805 0.158044,-0.11853 0.227188,-0.31609 0.07902,-0.20743 0.07902,-0.52352 0,-0.33584 -0.0889,-0.54328 -0.0889,-0.20743 -0.276578,-0.32596 -0.1778,-0.11854 -0.464255,-0.15805 -0.276578,-0.0395 -0.651933,-0.0395 z m 6.284736,0.76059 -0.09878,0.60254 h 0.296333 l 0.434622,-0.22718 q 0.286455,-0.14817 0.582789,-0.25683 0.296333,-0.11853 0.612421,-0.11853 0.414867,0 0.750711,0.13829 0.345722,0.13829 0.592666,0.45438 0.246944,0.30621 0.385233,0.80997 0.138289,0.50377 0.138289,1.2446 0,0.77047 -0.167922,1.30387 -0.167922,0.52352 -0.4445,0.85937 -0.2667,0.32596 -0.622299,0.47413 -0.3556,0.13829 -0.730955,0.13829 -0.306211,0 -0.592667,-0.10866 -0.286455,-0.0988 -0.563032,-0.2667 l -0.375356,-0.22719 h -0.296333 l -0.09878,0.48401 h -0.651932 v -7.40832 h 0.849488 z m 0,1.39277 v 2.63736 l 0.563033,0.29633 q 0.246944,0.12842 0.513644,0.24695 0.2667,0.10865 0.493888,0.10865 0.237067,0 0.464256,-0.0889 0.227188,-0.0988 0.404988,-0.32596 0.1778,-0.23707 0.286455,-0.63218 0.118534,-0.39511 0.118534,-0.98778 0,-0.56303 -0.0889,-0.92851 -0.0889,-0.37535 -0.246944,-0.58279 -0.158045,-0.21731 -0.375356,-0.30621 -0.217311,-0.0889 -0.464255,-0.0889 -0.227189,0 -0.513644,0.11854 -0.276578,0.11853 -0.5334,0.23706 z m 7.875056,3.27942 q 0.148166,0 0.345722,-0.0296 0.207433,-0.0395 0.434621,-0.0988 0.227189,-0.0692 0.464256,-0.14817 0.237066,-0.0889 0.454377,-0.1778 l 0.345722,-0.14817 v 0.82973 l -0.246944,0.0889 q -0.414867,0.14817 -0.879122,0.29634 -0.464255,0.13829 -0.918632,0.13829 -0.6223,0 -1.116188,-0.1778 -0.484011,-0.18768 -0.829733,-0.60255 -0.335844,-0.41486 -0.513644,-1.07667 -0.1778,-0.67169 -0.1778,-1.63971 0,-0.98778 0.1778,-1.66935 0.187677,-0.68156 0.523522,-1.09643 0.345722,-0.42474 0.83961,-0.60254 0.503766,-0.18768 1.126066,-0.18768 0.3556,0 0.770466,0.0889 0.414866,0.0889 0.760588,0.19755 l 0.2667,0.0889 v 0.81986 l -0.3556,-0.12841 q -0.424744,-0.14817 -0.790221,-0.22719 -0.365478,-0.0889 -0.651933,-0.0889 -0.424744,0 -0.760588,0.12841 -0.325967,0.11853 -0.563033,0.43462 -0.227189,0.30621 -0.3556,0.85937 -0.118533,0.54328 -0.118533,1.38289 0,0.81985 0.118533,1.35325 0.118533,0.5334 0.345722,0.84949 0.237066,0.30621 0.563033,0.42474 0.325966,0.11854 0.740833,0.11854 z m 6.22547,0.75071 q -0.5334,0 -0.987777,-0.14817 -0.4445,-0.14817 -0.760589,-0.47413 -0.316088,-0.32597 -0.493888,-0.82974 -0.1778,-0.51364 -0.1778,-1.22484 0,-0.7112 0.167922,-1.22484 0.1778,-0.52352 0.493889,-0.85937 0.316088,-0.33584 0.75071,-0.49389 0.434622,-0.16792 0.958144,-0.16792 0.345722,0 0.75071,0.0889 0.414867,0.0889 0.760589,0.19756 l 0.266699,0.0889 v 0.79022 l -0.355599,-0.12841 q -0.375356,-0.13829 -0.721077,-0.21731 -0.335845,-0.0889 -0.592667,-0.0889 -0.355599,0 -0.651933,0.10865 -0.296333,0.0988 -0.513644,0.33585 -0.217311,0.23706 -0.345722,0.6223 -0.118533,0.38523 -0.118533,0.94826 0,0.5334 0.128411,0.90876 0.128411,0.36547 0.345722,0.60254 0.227189,0.22719 0.5334,0.33584 0.316088,0.0988 0.671688,0.0988 0.296333,0 0.701322,-0.11853 0.414866,-0.12841 0.83961,-0.31609 l 0.345722,-0.14817 v 0.79022 l -0.246944,0.0889 q -0.414866,0.14817 -0.859366,0.29634 -0.4445,0.13829 -0.888999,0.13829 z m 4.081992,-0.11854 v -6.81566 h 1.995309 q 0.632178,0 1.116188,0.16792 0.484011,0.15805 0.8001,0.56304 0.325966,0.39511 0.48401,1.05692 0.167923,0.66181 0.167923,1.64959 0,0.93838 -0.167923,1.58044 -0.158044,0.64205 -0.48401,1.04704 -0.316089,0.39511 -0.8001,0.57291 -0.48401,0.1778 -1.116188,0.1778 z m 1.995309,-0.75071 q 0.434622,0 0.750711,-0.11853 0.325966,-0.11853 0.533399,-0.41487 0.207434,-0.29633 0.306211,-0.8001 0.108656,-0.51364 0.108656,-1.29398 0,-0.83961 -0.108656,-1.36314 -0.09878,-0.52352 -0.316088,-0.81985 -0.207434,-0.29633 -0.5334,-0.39511 -0.316089,-0.10866 -0.740833,-0.10866 h -1.126066 v 5.31424 z m 7.707136,-6.65761 h 0.849488 v 7.40832 h -0.651933 l -0.108655,-0.48401 h -0.286456 l -0.404988,0.20744 q -0.296333,0.14816 -0.582789,0.27657 -0.276577,0.11854 -0.592666,0.11854 -0.365477,0 -0.711199,-0.13829 -0.345722,-0.13829 -0.612422,-0.45438 -0.2667,-0.31609 -0.434622,-0.82973 -0.158044,-0.51365 -0.158044,-1.26436 0,-0.75071 0.158044,-1.26435 0.158044,-0.52352 0.424744,-0.84949 0.2667,-0.32597 0.6223,-0.47413 0.355599,-0.14817 0.760588,-0.14817 0.306211,0 0.592666,0.0889 0.286456,0.0889 0.563033,0.23707 l 0.375355,0.20743 h 0.296334 l -0.09878,-0.5334 z m -0.553155,3.14113 q -0.246945,-0.12841 -0.503767,-0.20744 -0.256822,-0.0889 -0.48401,-0.0889 -0.276578,0 -0.513644,0.0988 -0.237067,0.0988 -0.414867,0.33585 -0.1778,0.22718 -0.276577,0.61242 -0.09878,0.38523 -0.09878,0.94826 0,0.57291 0.108655,0.94827 0.118534,0.36548 0.296334,0.59267 0.177799,0.21731 0.404988,0.30621 0.227189,0.0889 0.464255,0.0889 0.217311,0 0.474133,-0.10866 0.256822,-0.11853 0.503767,-0.23707 l 0.592666,-0.29633 v -2.69663 z m 3.489324,-0.77047 v -0.6223 l 1.718732,-1.1557 h 1.313743 v 6.06495 h 1.363132 v 0.75071 h -4.326463 v -0.75071 h 2.094087 v -5.31424 h -0.335844 l -1.19521,1.02729 z m 6.264981,3.48685 2.064454,-1.46191 q 0.730955,-0.51364 1.056921,-0.99765 0.335844,-0.48401 0.335844,-1.0668 0,-0.29633 -0.108655,-0.50377 -0.09878,-0.21731 -0.276578,-0.34572 -0.167922,-0.13829 -0.395111,-0.19755 -0.217311,-0.0593 -0.464255,-0.0593 -0.355599,0 -0.760588,0.11853 -0.404989,0.11854 -0.958144,0.37536 l -0.414866,0.19755 v -0.82973 l 0.365477,-0.15804 q 0.434622,-0.18768 0.908755,-0.31609 0.474133,-0.13829 0.918633,-0.13829 0.424744,0 0.790221,0.10865 0.375356,0.10866 0.651933,0.33585 0.286456,0.22719 0.4445,0.58279 0.167922,0.34572 0.167922,0.81985 0,0.32597 -0.05927,0.6223 -0.05927,0.29633 -0.237066,0.60255 -0.1778,0.29633 -0.503766,0.61242 -0.316089,0.31609 -0.839611,0.67169 l -1.876776,1.29398 v 0.5334 h 3.486853 v 0.75071 h -4.29683 z"
       id="text1"
       aria-label="AaBbCcDd12" />
  </g>
</svg>
