<?xml version="1.0" encoding="UTF-8" standalone="no"?>
<!-- Created with Inkscape (http://www.inkscape.org/) -->

<svg
   width="61.320415mm"
   height="36.887089mm"
   viewBox="0 0 61.320415 36.887089"
   version="1.1"
   id="svg1"
   inkscape:version="1.4.2 (f4327f4, 2025-05-13)"
   sodipodi:docname="serif-sans-serif.svg"
   xmlns:inkscape="http://www.inkscape.org/namespaces/inkscape"
   xmlns:sodipodi="http://sodipodi.sourceforge.net/DTD/sodipodi-0.dtd"
   xmlns="http://www.w3.org/2000/svg"
   xmlns:svg="http://www.w3.org/2000/svg">
  <sodipodi:namedview
     id="namedview1"
     pagecolor="#ffffff"
     bordercolor="#000000"
     borderopacity="0.25"
     inkscape:showpageshadow="2"
     inkscape:pageopacity="0.0"
     inkscape:pagecheckerboard="0"
     inkscape:deskcolor="#d1d1d1"
     inkscape:document-units="mm"
     showguides="true"
     inkscape:zoom="2.4453416"
     inkscape:cx="111.2319"
     inkscape:cy="110.61849"
     inkscape:window-width="1920"
     inkscape:window-height="1057"
     inkscape:window-x="-8"
     inkscape:window-y="-8"
     inkscape:window-maximized="1"
     inkscape:current-layer="layer1" />
  <defs
     id="defs1" />
  <g
     inkscape:label="Layer 1"
     inkscape:groupmode="layer"
     id="layer1"
     transform="translate(-25.138763,-94.547361)">
    <path
       d="m 32.238403,103.66029 -1.054196,-2.71748 h -3.431991 l -1.048339,2.71748 h -1.007342 l 3.349999,-8.597545 H 29.9426 l 3.326571,8.597545 z m -1.352884,-3.60183 -1.001486,-2.699912 q -0.03514,-0.105419 -0.117133,-0.345542 -0.07614,-0.240122 -0.158129,-0.497814 -0.08199,-0.257692 -0.134703,-0.415821 -0.05857,0.240122 -0.128846,0.480244 -0.06442,0.234266 -0.128846,0.439248 -0.06442,0.199126 -0.111276,0.339685 l -1.019056,2.699912 z m 6.228958,-2.922464 q 1.147902,0 1.704283,0.515384 0.556381,0.515385 0.556381,1.645716 v 4.363194 h -0.708654 l -0.187412,-0.94877 h -0.04685 q -0.269405,0.3514 -0.562237,0.59152 -0.292832,0.23426 -0.67937,0.35725 -0.380682,0.11714 -0.937063,0.11714 -0.585664,0 -1.042482,-0.20499 -0.450961,-0.20498 -0.71451,-0.6208 -0.257692,-0.41582 -0.257692,-1.0542 0,-0.96048 0.761363,-1.47587 0.761363,-0.515383 2.31923,-0.562236 l 1.106905,-0.04685 v -0.392395 q 0,-0.831643 -0.357255,-1.165472 -0.357255,-0.333828 -1.007342,-0.333828 -0.503672,0 -0.960489,0.146416 -0.456818,0.146416 -0.866783,0.345542 L 34.935811,97.67481 q 0.433391,-0.222552 0.995629,-0.380682 0.562237,-0.158129 1.183041,-0.158129 z m 1.300175,3.361714 -0.978059,0.041 q -1.200612,0.0469 -1.69257,0.3924 -0.491957,0.34554 -0.491957,0.97806 0,0.55052 0.333828,0.81407 0.333829,0.26355 0.884353,0.26355 0.855069,0 1.399737,-0.47439 0.544668,-0.47439 0.544668,-1.42316 z m 3.517333,-5.399825 h 2.42465 q 1.604719,0 2.412936,0.480245 0.808216,0.480244 0.808216,1.634002 0,0.497815 -0.193269,0.896066 -0.187413,0.392395 -0.550524,0.650087 -0.363112,0.257693 -0.896066,0.357255 v 0.05857 q 0.562237,0.08785 0.995629,0.322115 0.433391,0.234266 0.67937,0.655945 0.245979,0.42167 0.245979,1.07176 0,0.79065 -0.368969,1.33532 -0.363111,0.54466 -1.030768,0.82578 -0.667657,0.27526 -1.581293,0.27526 h -2.945891 z m 0.995629,3.672114 h 1.63986 q 1.118618,0 1.546153,-0.368969 0.433391,-0.368968 0.433391,-1.077622 0,-0.73208 -0.515384,-1.054195 -0.509528,-0.322115 -1.628146,-0.322115 h -1.475874 z m 0,0.837499 v 3.203582 h 1.780419 q 1.142045,0 1.616433,-0.4451 0.474388,-0.45097 0.474388,-1.21233 0,-0.4861 -0.216696,-0.83164 -0.210839,-0.345543 -0.691083,-0.527099 -0.474388,-0.187413 -1.270892,-0.187413 z m 7.985951,-5.060137 v 2.278233 q 0,0.392395 -0.02343,0.761363 -0.01757,0.368969 -0.02928,0.573951 h 0.05271 q 0.263549,-0.433391 0.761363,-0.73208 0.497815,-0.298689 1.270891,-0.298689 1.206468,0 1.920978,0.8375 0.720367,0.831643 0.720367,2.477361 0,1.08348 -0.327972,1.82727 -0.327972,0.74379 -0.925349,1.12447 -0.597377,0.38069 -1.41145,0.38069 -0.761364,0 -1.253321,-0.28112 -0.486102,-0.28698 -0.74965,-0.69694 h -0.07614 l -0.199126,0.86092 H 49.94136 v -9.112929 z m 1.874125,3.396851 q -0.69694,0 -1.106905,0.275262 -0.409965,0.269406 -0.591521,0.81993 -0.175699,0.544668 -0.175699,1.382166 v 0.0527 q 0,1.21233 0.404108,1.85656 0.404108,0.63837 1.470017,0.63837 0.896066,0 1.341171,-0.65594 0.450961,-0.65595 0.450961,-1.87413 0,-1.241607 -0.445105,-1.868267 -0.439248,-0.626661 -1.347027,-0.626661 z m 8.706318,-2.09082 q -0.708654,0 -1.276748,0.245979 -0.562238,0.240122 -0.960489,0.702796 -0.392395,0.456818 -0.603234,1.106905 -0.210839,0.650088 -0.210839,1.464161 0,1.077617 0.333828,1.874127 0.339686,0.79064 1.007343,1.22404 0.673513,0.43339 1.680855,0.43339 0.573951,0 1.077622,-0.0937 0.509528,-0.0996 0.989773,-0.24598 v 0.86678 q -0.468532,0.1757 -0.983916,0.2577 -0.515384,0.0878 -1.224038,0.0878 -1.306031,0 -2.184527,-0.53881 -0.872639,-0.54467 -1.311887,-1.53444 -0.433392,-0.98978 -0.433392,-2.336804 0,-0.972202 0.269406,-1.774562 0.275262,-0.808217 0.796503,-1.393881 0.527097,-0.585664 1.288461,-0.901922 0.76722,-0.322115 1.756992,-0.322115 0.650087,0 1.253321,0.128846 0.603234,0.128846 1.089335,0.368968 l -0.398251,0.843356 q -0.409965,-0.187412 -0.901923,-0.322115 -0.486101,-0.140559 -1.054195,-0.140559 z m 6.726773,7.924038 q -0.866783,0 -1.528583,-0.35726 -0.661801,-0.35725 -1.030769,-1.08933 -0.368968,-0.73208 -0.368968,-1.84485 0,-1.165467 0.386538,-1.903404 0.392395,-0.743793 1.077622,-1.101048 0.685227,-0.357255 1.557866,-0.357255 0.480245,0 0.925349,0.09956 0.450962,0.09371 0.737937,0.240122 l -0.292832,0.814073 q -0.292832,-0.117133 -0.67937,-0.210839 -0.380682,-0.09371 -0.71451,-0.09371 -0.667657,0 -1.112762,0.286975 -0.439248,0.286975 -0.661801,0.843356 -0.216695,0.556381 -0.216695,1.37045 0,0.77893 0.210839,1.32946 0.216696,0.55052 0.638374,0.84335 0.427534,0.28698 1.065908,0.28698 0.509528,0 0.919493,-0.10542 0.409965,-0.11128 0.743793,-0.25769 v 0.86678 q -0.322115,0.16399 -0.720367,0.25184 -0.392395,0.0878 -0.937062,0.0878 z m 10.527735,-4.480334 q 0,1.446594 -0.527098,2.418794 -0.527097,0.96634 -1.528583,1.4583 -0.995629,0.4861 -2.418793,0.4861 h -2.325086 v -8.562405 h 2.582779 q 1.30603,0 2.24895,0.480245 0.942919,0.474387 1.452446,1.41145 0.515385,0.931206 0.515385,2.307516 z m -1.048339,0.03514 q 0,-1.153758 -0.386538,-1.903408 -0.380682,-0.74965 -1.124475,-1.112762 -0.737937,-0.368968 -1.809702,-0.368968 h -1.434877 v 6.858122 h 1.212325 q 1.768705,0 2.653058,-0.87264 0.890209,-0.87263 0.890209,-2.600344 z m 5.496877,4.445194 q -1.218181,0 -1.932691,-0.83165 -0.708654,-0.83164 -0.708654,-2.4715 0,-1.657428 0.726223,-2.500784 0.726224,-0.849213 1.932692,-0.849213 0.509528,0 0.890209,0.134702 0.380682,0.134703 0.655944,0.363112 0.275262,0.222552 0.462675,0.509528 h 0.07028 q -0.02343,-0.181556 -0.04685,-0.497815 -0.02343,-0.316258 -0.02343,-0.515384 v -2.571065 h 0.972202 v 9.112929 h -0.78479 l -0.146416,-0.91363 h -0.041 q -0.181556,0.28697 -0.462675,0.52124 -0.275262,0.23426 -0.6618,0.37482 -0.380682,0.13471 -0.901923,0.13471 z m 0.152273,-0.80822 q 1.030768,0 1.458303,-0.58566 0.427535,-0.58567 0.427535,-1.73943 v -0.1757 q 0,-1.224033 -0.409965,-1.879977 -0.404108,-0.655944 -1.475873,-0.655944 -0.896066,0 -1.341171,0.691084 -0.445105,0.685227 -0.445105,1.874127 0,1.18304 0.439248,1.82727 0.445105,0.64423 1.347028,0.64423 z"
       id="text1"
       style="font-size:11.9944px;line-height:1.3;font-family:'Open Sans';-inkscape-font-specification:'Open Sans';letter-spacing:0.407458px;word-spacing:-0.452437px;stroke-width:0.264583;stroke-linecap:round;paint-order:fill markers stroke"
       aria-label="AaBbCcDd" />
    <path
       d="m 29.971882,110.30384 h 0.392395 l 3.109876,7.92404 q 0.187412,0.48024 0.76722,0.48024 h 0.269405 v 0.43925 H 31.05536 v -0.43925 h 0.275262 q 0.538811,0 0.761364,-0.11713 0.152272,-0.082 0.152272,-0.25184 0,-0.0996 -0.041,-0.21084 l -0.720367,-1.83898 h -3.420278 l -0.404108,1.05419 q -0.15813,0.42168 -0.15813,0.66766 0,0.28698 0.263549,0.49196 0.269406,0.20498 0.778934,0.20498 h 0.292832 v 0.43925 h -3.13916 v -0.43925 q 0.503671,0 0.796503,-0.21669 0.292832,-0.22256 0.538811,-0.8375 z m -0.169843,1.66914 -1.55201,3.85953 h 3.063024 z m 10.834785,6.57116 0.210839,0.32797 q -0.427535,0.43925 -0.948776,0.43925 -0.398251,0 -0.673513,-0.2167 -0.269406,-0.2167 -0.474388,-0.76136 -0.556381,0.58566 -0.978059,0.78479 -0.421678,0.19327 -1.013199,0.19327 -0.843356,0 -1.282604,-0.36312 -0.439248,-0.36311 -0.439248,-0.9312 0,-0.85507 1.001485,-1.41731 1.007342,-0.56809 2.676485,-0.75551 v -0.83164 q 0,-0.4451 -0.357255,-0.76136 -0.357255,-0.31626 -0.907779,-0.31626 -0.509528,0 -0.878497,0.21084 -0.263548,0.15813 -0.263548,0.3104 0,0.0879 0.140559,0.27526 0.169843,0.23427 0.169843,0.41582 0,0.26355 -0.169843,0.4334 -0.169843,0.16398 -0.445105,0.16398 -0.292832,0 -0.491958,-0.19912 -0.193269,-0.19913 -0.193269,-0.50953 0,-0.57981 0.650087,-1.06005 0.655944,-0.48025 1.715996,-0.48025 0.978059,0 1.493444,0.42168 0.515384,0.42753 0.515384,1.03662 v 2.9986 q 0,0.39826 0.128846,0.58567 0.128846,0.19327 0.333828,0.19327 0.228409,0 0.480245,-0.18741 z m -1.920978,-2.31338 q -1.487587,0.20498 -2.108391,0.66766 -0.462674,0.3514 -0.462674,0.99563 0,0.45096 0.240122,0.70865 0.240122,0.25184 0.62666,0.25184 0.691084,0 1.194755,-0.52124 0.509528,-0.5271 0.509528,-1.31775 z m 2.969317,-5.74536 h 4.51547 q 1.329458,0 2.032255,0.58566 0.708653,0.58567 0.708653,1.47002 0,0.73794 -0.491958,1.25332 -0.491957,0.51538 -1.48173,0.81407 1.224038,0.2577 1.833129,0.81408 0.614947,0.55052 0.614947,1.39388 0,0.64423 -0.351398,1.14204 -0.345542,0.49782 -1.159615,0.84336 -0.808217,0.34554 -1.838985,0.34554 h -4.380768 v -0.43925 h 0.714511 q 0.322115,0 0.468531,-0.10542 0.152272,-0.10542 0.152272,-0.24012 v -6.94012 q 0,-0.24598 -0.146416,-0.36897 -0.146416,-0.12884 -0.427534,-0.12884 h -0.761364 z m 2.588636,3.98251 h 1.639859 q 0.755507,0 1.200611,-0.4451 0.450962,-0.44511 0.450962,-1.4583 0,-0.62667 -0.216696,-0.97806 -0.210839,-0.3514 -0.620804,-0.50953 -0.404108,-0.16399 -1.405594,-0.16399 -0.708653,0 -0.878496,0.10542 -0.169842,0.0996 -0.169842,0.35726 z m 0,0.43339 v 3.33829 q 0,0.23427 0.134702,0.3514 0.14056,0.11713 0.497815,0.11713 h 1.048338 q 1.042482,0 1.540297,-0.45682 0.497814,-0.46267 0.497814,-1.43487 0,-0.89021 -0.515384,-1.39974 -0.515384,-0.51539 -1.423164,-0.51539 z m 7.596061,-4.51547 v 4.07623 q 0.345542,-0.4861 0.76722,-0.72623 0.421678,-0.24012 0.919493,-0.24012 0.966345,0 1.634002,0.75551 0.667657,0.7555 0.667657,1.99126 0,1.34117 -0.720366,2.16695 -0.714511,0.81993 -1.774563,0.81993 -0.503671,0 -0.913635,-0.19912 -0.409965,-0.19913 -0.843357,-0.67352 -0.333828,0.53296 -0.64423,0.87264 l -0.234266,-0.082 q 0.163986,-0.67351 0.163986,-1.40559 v -6.20219 q 0,-0.28697 -0.204982,-0.45096 -0.199126,-0.16398 -0.568094,-0.16398 h -0.245979 v -0.43925 z m 1.475874,3.62527 q -0.661801,0 -1.077622,0.5798 -0.415822,0.57395 -0.415822,1.90341 0,1.26504 0.409965,1.8097 0.409965,0.54467 1.071765,0.54467 0.597378,0 0.960489,-0.53881 0.456818,-0.67937 0.456818,-1.93855 0,-1.24161 -0.404108,-1.79799 -0.398251,-0.56223 -1.001485,-0.56223 z m 10.04414,-2.85219 0.404108,-0.8375 h 0.368968 l 0.152273,3.4847 h -0.392395 q -0.386538,-1.47001 -0.972202,-2.16695 -0.726224,-0.87264 -1.733566,-0.87264 -1.089335,0 -1.774562,0.9722 -0.685227,0.9722 -0.685227,3.29143 0,1.95026 0.78479,2.97517 0.667657,0.86679 1.874125,0.86679 1.054195,0 1.768705,-0.67352 0.714511,-0.67937 0.931206,-2.04396 h 0.415822 q -0.181556,1.54615 -1.060052,2.37779 -0.878496,0.83165 -2.21381,0.83165 -1.083479,0 -1.991258,-0.54467 -0.901923,-0.54467 -1.44659,-1.56373 -0.538811,-1.02491 -0.538811,-2.24309 0,-1.29432 0.556381,-2.4305 0.562237,-1.13619 1.434877,-1.70429 0.872639,-0.57395 1.879981,-0.57395 0.562238,0 1.089335,0.19327 0.527098,0.19327 1.147902,0.6618 z m 6.307599,6.36031 0.380681,0.11128 q -0.456818,1.68086 -2.014684,1.68086 -1.142045,0 -1.868269,-0.75551 -0.726223,-0.75551 -0.726223,-2.00883 0,-1.45245 0.796503,-2.24895 0.796503,-0.80236 1.874125,-0.80236 0.808217,0 1.335314,0.44511 0.527098,0.4451 0.527098,0.98977 0,0.32797 -0.199126,0.54467 -0.193269,0.21083 -0.462675,0.21083 -0.263548,0 -0.445104,-0.18155 -0.181556,-0.18156 -0.181556,-0.43925 0,-0.25769 0.199126,-0.49196 0.09371,-0.11127 0.09371,-0.1757 0,-0.16984 -0.228409,-0.32797 -0.228409,-0.16398 -0.620804,-0.16398 -0.71451,0 -1.083478,0.52124 -0.527098,0.7555 -0.527098,1.99125 0,1.17719 0.468531,1.78628 0.468531,0.60323 1.194755,0.60323 1.001485,0 1.487587,-1.28846 z m 1.147903,-7.03382 h 4.474474 q 0.995629,0 1.692569,0.3514 0.866783,0.4451 1.470017,1.48173 0.60909,1.03662 0.60909,2.45393 0,1.17133 -0.363111,2.10839 -0.275263,0.72037 -0.849213,1.25918 -0.568094,0.53881 -1.388024,0.80821 -0.614947,0.19913 -1.63986,0.19913 h -4.005942 v -0.43925 h 0.81993 q 0.310402,0 0.427535,-0.0996 0.122989,-0.0996 0.122989,-0.3104 v -6.97526 q 0,-0.18156 -0.128846,-0.28698 -0.128846,-0.11127 -0.357255,-0.11127 h -0.884353 z m 3.13916,0.43925 q -0.263549,0 -0.392395,0.11127 -0.12299,0.11128 -0.12299,0.33383 v 6.91084 q 0,0.21084 0.146416,0.32211 0.146416,0.10542 0.497815,0.10542 h 0.737936 q 0.989773,0 1.733566,-0.50953 0.486101,-0.33968 0.737937,-0.95463 0.345542,-0.83164 0.345542,-2.2958 0,-2.16696 -0.755507,-3.1743 -0.64423,-0.84921 -1.944405,-0.84921 z m 9.282775,-0.43925 2.14353,-0.0996 v 7.50822 q 0,0.43925 0.163986,0.62666 0.169843,0.18741 0.503671,0.18741 h 0.380682 v 0.43925 h -1.874125 l -0.14056,-1.11862 q -0.333828,0.59738 -0.78479,0.90192 -0.445104,0.29869 -1.001485,0.29869 -0.937063,0 -1.598863,-0.78479 -0.655944,-0.78479 -0.655944,-2.07325 0,-1.39388 0.843357,-2.22552 0.6618,-0.65009 1.522726,-0.65009 0.527098,0 0.942919,0.26355 0.421678,0.26355 0.73208,0.7965 v -3.09816 q 0,-0.24598 -0.193269,-0.38654 -0.187412,-0.14641 -0.591521,-0.14641 h -0.392394 z m -0.339686,3.49641 q -0.632517,0 -1.007342,0.52124 -0.368968,0.52124 -0.368968,1.757 0,1.34117 0.380681,1.89169 0.380682,0.54467 0.978059,0.54467 0.638374,0 1.089336,-0.60909 0.456818,-0.61495 0.456818,-1.79213 0,-1.11277 -0.486102,-1.75114 -0.421678,-0.56224 -1.042482,-0.56224 z"
       id="text2"
       style="font-size:11.9944px;line-height:1.3;font-family:'Century Schoolbook';-inkscape-font-specification:'Century Schoolbook';letter-spacing:0px;word-spacing:-0.452437px;stroke-width:0.264583;stroke-linecap:round;paint-order:fill markers stroke"
       aria-label="AaBbCcDd" />
    <circle
       style="fill:none;stroke:#ff0000;stroke-width:0.264583;stroke-linecap:round;paint-order:fill markers stroke"
       id="path2"
       cx="27.225002"
       cy="119.10394"
       r="1.9539473" />
    <circle
       style="fill:none;stroke:#ff0000;stroke-width:0.264583;stroke-linecap:round;paint-order:fill markers stroke"
       id="path2-8"
       cx="35.758938"
       cy="114.8085"
       r="1.9539473" />
    <circle
       style="fill:none;stroke:#ff0000;stroke-width:0.264583;stroke-linecap:round;paint-order:fill markers stroke"
       id="path2-1"
       cx="39.441174"
       cy="119.36968"
       r="1.9539473" />
    <circle
       style="fill:none;stroke:#ff0000;stroke-width:0.264583;stroke-linecap:round;paint-order:fill markers stroke"
       id="path2-1-2"
       cx="50.975712"
       cy="110.55324"
       r="1.9539473" />
    <circle
       style="fill:none;stroke:#ff0000;stroke-width:0.264583;stroke-linecap:round;paint-order:fill markers stroke"
       id="path2-1-23"
       cx="64.013321"
       cy="112.03767"
       r="1.9539473" />
    <circle
       style="fill:none;stroke:#ff0000;stroke-width:0.264583;stroke-linecap:round;paint-order:fill markers stroke"
       id="path2-1-8"
       cx="68.888657"
       cy="114.87341"
       r="1.9539473" />
    <circle
       style="fill:none;stroke:#ff0000;stroke-width:0.264583;stroke-linecap:round;paint-order:fill markers stroke"
       id="path2-1-89"
       cx="71.988983"
       cy="110.48427"
       r="1.9539473" />
    <path
       style="font-size:3.52778px;line-height:1.3;font-family:Elephant;-inkscape-font-specification:Elephant;letter-spacing:0.407458px;word-spacing:-0.452437px;fill:#ff0000;stroke-width:0.264583;stroke-linecap:round;paint-order:fill markers stroke"
       d="m 49.869773,130.63716 q 0,0.34925 -0.296334,0.57503 -0.292806,0.22225 -0.638528,0.22225 -0.303389,0 -0.599723,-0.1905 -0.296333,-0.19403 -0.342194,-0.19403 -0.116417,0 -0.144639,0.0882 -0.02822,0.0882 -0.05292,0.29634 h -0.05997 v -1.26295 h 0.05997 q 0.02117,0.0741 0.07056,0.24342 0.05292,0.16933 0.190501,0.40569 0.141111,0.23284 0.366889,0.38806 0.229305,0.15522 0.529167,0.15522 0.172861,0 0.282222,-0.0917 0.109361,-0.0917 0.109361,-0.21872 0,-0.1517 -0.08114,-0.23989 -0.08114,-0.0882 -0.292805,-0.16933 -0.211667,-0.0847 -0.448028,-0.17992 -0.236362,-0.0953 -0.500945,-0.25753 -0.264584,-0.15875 -0.264584,-0.59972 0,-0.34572 0.278695,-0.58561 0.278695,-0.23989 0.642056,-0.23989 0.201083,0 0.391583,0.0952 l 0.36689,0.20461 q 0.102305,0 0.134055,-0.0847 0.03175,-0.0882 0.03175,-0.21519 h 0.06703 v 0.93486 h -0.0635 q -0.01764,-0.06 -0.07408,-0.20461 -0.05292,-0.14464 -0.211667,-0.32456 -0.155222,-0.17991 -0.310445,-0.25753 -0.151694,-0.0811 -0.366889,-0.0811 -0.144639,0 -0.268111,0.0847 -0.123472,0.0847 -0.123472,0.21167 0,0.13405 0.09172,0.22578 0.09525,0.0882 0.215194,0.14111 0.123473,0.0529 0.338667,0.13405 0.215195,0.0811 0.444501,0.1905 0.232833,0.10584 0.381,0.31398 0.148167,0.20461 0.148167,0.48683 z m 1.9244,0.68439 q 0.148167,-0.004 0.303389,-0.004 0.155222,-0.004 0.328084,-0.0247 0.172861,-0.0247 0.426861,-0.34925 0.254,-0.32809 0.373945,-0.67381 h 0.05644 v 1.12184 h -2.772835 v -0.0565 q 0.04586,0 0.105833,-0.004 0.05997,-0.007 0.134056,-0.0141 0.07761,-0.0106 0.116417,-0.0529 0.04233,-0.0459 0.05292,-0.15876 l 0.0071,-0.16227 v -1.67217 l -0.0071,-0.16228 q -0.01058,-0.11289 -0.05292,-0.15875 -0.04233,-0.0459 -0.119945,-0.0564 -0.07408,-0.0106 -0.137583,-0.0106 -0.05997,-0.004 -0.109361,-0.007 v -0.0565 h 2.712862 v 1.04423 h -0.05644 q -0.179917,-0.39512 -0.437445,-0.66323 -0.257528,-0.27164 -0.433917,-0.28927 -0.172861,-0.0176 -0.292805,-0.0212 -0.119945,-0.004 -0.158751,-0.004 h -0.03175 l -0.0071,1.15711 0.148167,-0.007 q 0.204611,-0.0212 0.306917,-0.1905 0.105833,-0.17286 0.105833,-0.4057 h 0.06703 v 1.28411 h -0.06703 q 0,-0.23636 -0.105833,-0.41275 -0.102306,-0.17638 -0.306917,-0.19755 l -0.148167,-0.007 z m 3.469571,-1.21356 v 0.8255 l 0.0071,0.16228 q 0.01058,0.11289 0.05644,0.16228 0.04586,0.0494 0.155223,0.0635 l 0.179916,0.0141 v 0.0565 h -1.693334 v -0.0565 h 0.109361 q 0.07761,-0.0106 0.148167,-0.0176 0.07056,-0.0106 0.109361,-0.0529 0.04233,-0.0459 0.05292,-0.15876 l 0.0071,-0.16227 v -1.67217 l -0.0071,-0.16228 q -0.01058,-0.11289 -0.05292,-0.15875 -0.04233,-0.0459 -0.119944,-0.0564 -0.07761,-0.0106 -0.134056,-0.0106 -0.05645,-0.004 -0.105833,-0.007 v -0.0565 l 1.576917,-0.004 q 0.328084,0 0.532695,0.0282 0.204611,0.0282 0.331611,0.11289 0.130528,0.0847 0.204612,0.21166 0.07761,0.12348 0.07761,0.28928 0,0.12347 -0.04586,0.24695 -0.04233,0.12347 -0.134056,0.21166 -0.09172,0.0882 -0.229306,0.13759 -0.134055,0.0494 -0.430389,0.0494 v 0.0247 q 0.179917,0.0388 0.299861,0.0741 0.123473,0.0353 0.222251,0.10231 0.09878,0.067 0.176389,0.20108 0.08114,0.13053 0.130527,0.28928 0.04939,0.15522 0.08819,0.22225 0.03881,0.0635 0.109361,0.0635 0.09172,0 0.119945,-0.11642 0.03175,-0.11994 0.03175,-0.27164 h 0.05644 q 0,0.17287 -0.02117,0.27517 -0.02117,0.10231 -0.105833,0.2152 -0.08467,0.10936 -0.243417,0.17991 -0.155222,0.067 -0.338667,0.067 -0.28575,0 -0.458611,-0.16228 -0.169334,-0.1658 -0.211667,-0.43039 -0.0388,-0.26811 -0.0635,-0.45155 -0.03881,-0.20461 -0.102306,-0.23636 -0.0635,-0.0353 -0.137583,-0.0388 -0.07408,-0.004 -0.148167,-0.004 z m 0.282223,-0.0741 q 0.134055,-0.0212 0.201083,-0.19403 0.07056,-0.17286 0.07056,-0.38453 0,-0.17286 -0.07056,-0.33866 -0.07055,-0.16934 -0.169333,-0.19756 -0.09878,-0.0282 -0.176389,-0.0317 -0.07761,-0.004 -0.137584,-0.007 v 1.16416 h 0.119945 q 0.09878,0 0.162278,-0.0106 z m 3.734157,1.3582 h -1.661585 v -0.0565 q 0.0247,0 0.06703,0 0.04233,-0.004 0.137584,-0.0141 0.09878,-0.0141 0.137583,-0.06 0.04233,-0.0459 0.05292,-0.15523 l 0.0071,-0.16227 v -1.6757 l -0.0071,-0.16228 q -0.01058,-0.11289 -0.04939,-0.15522 -0.03528,-0.0459 -0.144639,-0.06 l -0.1905,-0.0141 v -0.0565 h 1.651001 v 0.0565 l -0.1905,0.0106 q -0.109362,0.0106 -0.148167,0.0529 -0.03528,0.0388 -0.04586,0.15875 l -0.0071,0.16228 v 1.6898 l 0.0071,0.16228 q 0.01058,0.11642 0.04939,0.15875 0.04233,0.0388 0.151694,0.0529 l 0.183445,0.0106 z m 3.254374,-2.57176 v 1.143 h -0.05644 q -0.148167,-0.32102 -0.275167,-0.53975 -0.127,-0.21872 -0.313972,-0.37041 -0.183445,-0.15523 -0.433917,-0.15523 l -0.268111,-0.0106 v 1.13242 l 0.162278,-0.007 q 0.204611,-0.0212 0.306916,-0.19402 0.105834,-0.17287 0.105834,-0.40217 h 0.06703 v 1.28411 h -0.06703 q 0,-0.23636 -0.102306,-0.41275 -0.102305,-0.17639 -0.310444,-0.19756 l -0.162278,-0.007 v 0.85019 l 0.0071,0.16228 q 0.01058,0.11289 0.05644,0.16228 0.04586,0.0494 0.119944,0.06 0.07761,0.0106 0.137584,0.0141 0.0635,0 0.112889,0.004 v 0.0565 h -1.718029 v -0.0565 q 0.04586,0 0.105833,-0.004 0.05997,-0.007 0.134056,-0.0141 0.07761,-0.0106 0.116417,-0.0529 0.04233,-0.0459 0.05292,-0.15876 l 0.0071,-0.16227 v -1.67217 l -0.0071,-0.16228 q -0.01058,-0.11289 -0.05292,-0.15875 -0.04233,-0.0459 -0.119945,-0.0564 -0.07408,-0.0106 -0.137583,-0.0106 -0.05997,-0.004 -0.109362,-0.007 v -0.0565 z"
       id="text3"
       aria-label="SERIF" />
    <g
       id="path3"
       style="opacity:1">
      <path
         style="baseline-shift:baseline;display:inline;overflow:visible;vector-effect:none;fill:#ff0000;stroke-linecap:round;paint-order:fill markers stroke;enable-background:accumulate;stop-color:#000000;stop-opacity:1"
         d="m 45.598884,128.03646 -15.4164,-6.96224"
         id="path14" />
      <g
         id="g11">
        <g
           id="path11"
           style="opacity:1">
          <path
             style="baseline-shift:baseline;display:inline;overflow:visible;vector-effect:none;fill:#ff0000;fill-rule:evenodd;enable-background:accumulate;stop-color:#000000;stop-opacity:1"
             d="m 29.457947,120.74701 c 0.416804,0.0429 1.008898,0.0195 1.359481,-0.11297 0,0 -0.218141,0.48303 -0.514188,0.49472 0.186977,0.22982 -0.03116,0.71285 -0.03116,0.71285 -0.132442,-0.35059 -0.506396,-0.81024 -0.81413,-1.0946 z"
             id="path12" />
          <path
             style="baseline-shift:baseline;display:inline;overflow:visible;vector-effect:none;fill:#ff0000;fill-rule:evenodd;enable-background:accumulate;stop-color:#000000;stop-opacity:1"
             d="m 30.986328,120.47656 -0.199219,0.0742 c -0.323038,0.12206 -0.915238,0.14912 -1.320312,0.10742 l -0.263672,-0.0254 0.195312,0.17969 c 0.299084,0.27637 0.66898,0.7375 0.791016,1.06055 l 0.07617,0.19922 0.08789,-0.19336 c 0,0 0.05642,-0.12873 0.08984,-0.28907 0.02736,-0.13127 0.0039,-0.28667 -0.05859,-0.42382 0.144924,-0.0434 0.276773,-0.12866 0.357421,-0.23633 0.09819,-0.13109 0.15625,-0.25977 0.15625,-0.25977 z m -0.330078,0.25586 c -0.02221,0.0383 -0.02028,0.0459 -0.05469,0.0918 -0.08489,0.11335 -0.201785,0.21281 -0.302734,0.2168 l -0.175781,0.006 0.111328,0.13671 c 0.06376,0.0784 0.06601,0.23051 0.03711,0.36914 -0.01162,0.0557 -0.01727,0.0598 -0.03125,0.10157 -0.149434,-0.2925 -0.379285,-0.59054 -0.621093,-0.83399 0.342826,0.0206 0.718449,-0.006 1.037109,-0.0879 z"
             id="path13" />
        </g>
      </g>
      <path
         style="baseline-shift:baseline;display:inline;overflow:visible;vector-effect:none;fill:#ff0000;stroke-linecap:round;paint-order:fill markers stroke;enable-background:accumulate;stop-color:#000000;stop-opacity:1"
         d="m 30.236328,120.95313 a 0.1324995,0.1324995 0 0 0 -0.173828,0.0664 0.1324995,0.1324995 0 0 0 0.06641,0.17578 l 15.416016,6.96094 a 0.1324995,0.1324995 0 0 0 0.173828,-0.0644 0.1324995,0.1324995 0 0 0 -0.06445,-0.17578 z"
         id="path15" />
    </g>
    <g
       id="path5"
       style="opacity:1">
      <path
         style="baseline-shift:baseline;display:inline;overflow:visible;vector-effect:none;fill:#ff0000;stroke-linecap:round;paint-order:fill markers stroke;enable-background:accumulate;stop-color:#000000;stop-opacity:1"
         d="m 61.240592,127.35013 5.842741,-9.3051"
         id="path9" />
      <g
         id="g6">
        <g
           id="path6"
           style="opacity:1">
          <path
             style="baseline-shift:baseline;display:inline;overflow:visible;vector-effect:none;fill:#ff0000;fill-rule:evenodd;enable-background:accumulate;stop-color:#000000;stop-opacity:1"
             d="m 67.506087,117.37176 c -0.09916,0.40709 -0.156576,0.99686 -0.07307,1.3622 0,0 -0.44885,-0.28183 -0.420144,-0.57672 -0.253131,0.15397 -0.701981,-0.12787 -0.701981,-0.12787 0.365344,-0.0835 0.871605,-0.39144 1.195195,-0.65761 z"
             id="path7" />
          <path
             style="baseline-shift:baseline;display:inline;overflow:visible;vector-effect:none;fill:#ff0000;fill-rule:evenodd;enable-background:accumulate;stop-color:#000000;stop-opacity:1"
             d="m 67.654297,117.13477 -0.205078,0.16796 c -0.314496,0.25869 -0.821567,0.56369 -1.158203,0.64063 l -0.207032,0.0469 0.179688,0.11329 c 0,0 0.11914,0.0759 0.273437,0.13086 0.127137,0.0453 0.284545,0.0426 0.429688,-0.002 0.02341,0.14935 0.08796,0.29224 0.183594,0.38672 0.11651,0.11511 0.236328,0.18945 0.236328,0.18945 l 0.179687,0.11329 -0.04687,-0.20704 c -0.07694,-0.33663 -0.02411,-0.92661 0.07227,-1.32226 z m -0.244141,0.38867 c -0.06682,0.33656 -0.09,0.71087 -0.05273,1.03711 -0.03495,-0.0272 -0.04315,-0.0261 -0.08398,-0.0664 -0.100738,-0.0995 -0.181663,-0.22757 -0.171875,-0.32812 l 0.01563,-0.17579 -0.15039,0.0918 c -0.08631,0.0525 -0.237683,0.0338 -0.371094,-0.0137 -0.05346,-0.019 -0.05624,-0.0254 -0.0957,-0.0449 0.309693,-0.10794 0.636069,-0.29379 0.910156,-0.5 z"
             id="path8" />
        </g>
      </g>
      <path
         style="baseline-shift:baseline;display:inline;overflow:visible;vector-effect:none;fill:#ff0000;stroke-linecap:round;paint-order:fill markers stroke;enable-background:accumulate;stop-color:#000000;stop-opacity:1"
         d="m 67.154297,117.93359 a 0.1324995,0.1324995 0 0 0 -0.183594,0.041 l -5.841797,9.30469 a 0.1324995,0.1324995 0 0 0 0.04102,0.18359 0.1324995,0.1324995 0 0 0 0.183594,-0.043 l 5.841796,-9.30469 a 0.1324995,0.1324995 0 0 0 -0.04102,-0.18164 z"
         id="path10" />
    </g>
  </g>
</svg>
