<?xml version="1.0" encoding="UTF-8" standalone="no"?>
<svg
   id="Layer_2"
   data-name="Layer 2"
   viewBox="0 0 240.94 254.74"
   version="1.1"
   sodipodi:docname="LD.svg"
   inkscape:version="1.4.2 (f4327f4, 2025-05-13)"
   xmlns:inkscape="http://www.inkscape.org/namespaces/inkscape"
   xmlns:sodipodi="http://sodipodi.sourceforge.net/DTD/sodipodi-0.dtd"
   xmlns="http://www.w3.org/2000/svg"
   xmlns:svg="http://www.w3.org/2000/svg">
  <sodipodi:namedview
     id="namedview14"
     pagecolor="#ffffff"
     bordercolor="#000000"
     borderopacity="0.25"
     inkscape:showpageshadow="2"
     inkscape:pageopacity="0.0"
     inkscape:pagecheckerboard="0"
     inkscape:deskcolor="#d1d1d1"
     inkscape:zoom="2.3705314"
     inkscape:cx="109.04728"
     inkscape:cy="135.41267"
     inkscape:window-width="1920"
     inkscape:window-height="1057"
     inkscape:window-x="-8"
     inkscape:window-y="201"
     inkscape:window-maximized="1"
     inkscape:current-layer="Layer_2" />
  <defs
     id="defs1">
    <style
       id="style1">
      .cls-1 {
        font-family: CenturySchoolbook, 'Century Schoolbook';
        font-size: 45px;
      }

      .cls-1, .cls-2 {
        fill: #414042;
      }

      .cls-2 {
        stroke-width: 0px;
      }
    </style>
  </defs>
  <g
     id="g1"
     transform="translate(0,-5.8649973)">
    <g
       id="g4">
      <path
         class="cls-2"
         d="m 14.17,76.54 v 113.39 h 99.21 V 76.54 Z m 84.05,99.21 H 27.38 v -4.31 h 6.96 c 2.38,0 4.04,-0.45 5,-1.35 0.96,-0.9 1.44,-2.35 1.44,-4.34 V 99.34 c 0,-1.42 -0.4,-2.49 -1.21,-3.22 -0.81,-0.73 -1.99,-1.09 -3.56,-1.09 h -8.62 v -4.31 h 39.44 v 4.31 H 57.4 c -1.49,0 -2.6,0.39 -3.31,1.18 -0.71,0.79 -1.06,2.02 -1.06,3.71 v 67.1 c 0,1.61 0.45,2.75 1.35,3.42 0.9,0.67 2.71,1.01 5.43,1.01 h 11.94 c 6.35,0 11.55,-2.12 15.59,-6.35 4.04,-4.23 6.98,-11.59 8.81,-22.05 h 4.03 l -1.96,32.72 z"
         id="path1" />
      <g
         id="g3">
        <path
           class="cls-2"
           d="m 177.17,95.02 h -9.66 c -1.73,0 -3,0.36 -3.82,1.09 -0.82,0.73 -1.24,1.82 -1.24,3.28 v 67.85 c 0,1.38 0.48,2.43 1.44,3.13 0.96,0.71 2.59,1.06 4.89,1.06 h 7.24 c 6.48,0 12.15,-1.67 17.02,-5 3.18,-2.22 5.6,-5.35 7.24,-9.37 2.26,-5.44 3.39,-12.96 3.39,-22.54 0,-14.18 -2.47,-24.57 -7.42,-31.16 -4.22,-5.56 -10.58,-8.34 -19.09,-8.34 z"
           id="path2" />
        <path
           class="cls-2"
           d="m 127.56,76.54 v 113.39 h 99.21 V 76.54 Z m 86.52,76.96 c -1.8,4.71 -4.57,8.84 -8.31,12.36 -3.74,3.53 -8.29,6.17 -13.66,7.93 -4.03,1.3 -9.39,1.96 -16.1,1.96 h -39.33 v -4.31 h 8.05 c 2.03,0 3.44,-0.33 4.23,-0.98 0.79,-0.65 1.18,-1.67 1.18,-3.05 V 98.93 c 0,-1.19 -0.42,-2.14 -1.27,-2.85 -0.84,-0.71 -2.01,-1.06 -3.51,-1.06 h -8.68 v -4.31 h 43.93 c 6.52,0 12.05,1.15 16.62,3.45 5.67,2.91 10.49,7.76 14.46,14.55 3.97,6.79 5.95,14.82 5.95,24.09 0,7.67 -1.19,14.57 -3.56,20.7 z"
           id="path3" />
      </g>
    </g>
  </g>
</svg>
